<svg width="78" height="39" viewBox="0 0 78 39" fill="none" xmlns="http://www.w3.org/2000/svg">
<path d="M38.6025 27.2614L42.3438 17.277H46.1875L37.3379 38.3297H33.4941L36.5898 31.2086L30.8623 17.277H34.9131L38.6025 27.2614ZM21.6592 17.0455C22.7254 17.0455 23.6542 17.2602 24.4453 17.6901C25.2537 18.12 25.8993 18.6615 26.3809 19.3151V17.277H30.0186V31.5699H26.3809V29.4801C25.9165 30.1509 25.2709 30.7097 24.4453 31.1569C23.637 31.5868 22.7 31.8023 21.6338 31.8024C20.4298 31.8024 19.3286 31.4928 18.3311 30.8737C17.3508 30.2545 16.5682 29.386 15.9834 28.2682C15.4158 27.133 15.1318 25.8337 15.1318 24.3717C15.1319 22.9271 15.4159 21.6458 15.9834 20.528C16.5682 19.41 17.3507 18.5499 18.3311 17.9479C19.3286 17.3459 20.4381 17.0456 21.6592 17.0455ZM8.02734 13.5621C9.42026 13.5622 10.6067 13.8033 11.5869 14.2848C12.5673 14.7664 13.2987 15.4283 13.7803 16.2711C14.279 17.1138 14.5283 18.0682 14.5283 19.1344C14.5283 20.0974 14.2963 21.0007 13.832 21.8434C13.3849 22.6861 12.6707 23.3655 11.6904 23.8815C10.7273 24.3974 9.50632 24.6558 8.02734 24.6559H5.00879V31.5699H1.39648V13.5621H8.02734ZM22.5879 20.2184C21.9172 20.2184 21.298 20.3819 20.7305 20.7086C20.1629 21.0354 19.6981 21.5166 19.3369 22.153C18.993 22.772 18.8213 23.5119 18.8213 24.3717C18.8213 25.2315 18.993 25.9887 19.3369 26.6422C19.6981 27.2786 20.1629 27.7689 20.7305 28.1129C21.3152 28.4569 21.9344 28.6285 22.5879 28.6285C23.2587 28.6285 23.8869 28.4661 24.4717 28.1393C25.0564 27.7953 25.5203 27.3131 25.8643 26.694C26.2082 26.0576 26.3809 25.3006 26.3809 24.4235C26.3808 23.5464 26.2082 22.7985 25.8643 22.1793C25.5203 21.543 25.0564 21.0608 24.4717 20.734C23.8869 20.39 23.2587 20.2184 22.5879 20.2184ZM5.00879 21.7408H7.87207C8.86956 21.7408 9.60923 21.5171 10.0908 21.0699C10.5724 20.6056 10.8135 19.96 10.8135 19.1344C10.8133 17.3803 9.83267 16.5035 7.87207 16.5035H5.00879V21.7408Z" fill="white"/>
<g clip-path="url(#clip0_5961_73752)">
<path d="M22.482 4.54102C22.964 4.54102 23.396 4.66038 23.7877 4.89062C24.1793 5.13093 24.4905 5.46181 24.7115 5.90234C24.9424 6.34283 25.0532 6.84347 25.0533 7.41406C25.0533 7.98483 24.9425 8.49593 24.7115 8.93652C24.4805 9.37706 24.1793 9.71745 23.7877 9.96777C23.396 10.2081 22.9641 10.3281 22.482 10.3281C22.0702 10.3281 21.7086 10.2483 21.3873 10.0781C21.0759 9.9079 20.8144 9.69783 20.6236 9.4375V12.9121H19.1978V4.64062H20.6236V5.45215C20.8044 5.1918 21.0561 4.98102 21.3775 4.80078C21.6988 4.63067 22.0703 4.54102 22.482 4.54102ZM29.0005 4.54102C29.4825 4.54106 29.9146 4.66035 30.3062 4.89062C30.6979 5.13094 31.0091 5.46177 31.23 5.90234C31.461 6.34283 31.5718 6.84347 31.5718 7.41406C31.5718 7.98481 31.461 8.49594 31.23 8.93652C30.9991 9.37702 30.6978 9.71745 30.3062 9.96777C29.9146 10.2081 29.4825 10.3281 29.0005 10.3281C28.5889 10.3281 28.2272 10.2483 27.9058 10.0781C27.5945 9.90792 27.333 9.69779 27.1421 9.4375V12.9121H25.7164V4.64062H27.1421V5.45215C27.3229 5.19187 27.5738 4.98099 27.8951 4.80078C28.2165 4.63055 28.5888 4.54102 29.0005 4.54102ZM38.3209 4.54102C38.8632 4.54102 39.3555 4.66105 39.7974 4.90137C40.2392 5.14168 40.5803 5.48235 40.8414 5.92285C41.0924 6.36337 41.2232 6.86369 41.2232 7.44434C41.2232 8.01511 41.0927 8.5262 40.8316 8.9668C40.5705 9.4073 40.2188 9.74799 39.7769 9.98828C39.3351 10.2285 38.8328 10.3486 38.2906 10.3486C37.7282 10.3486 37.2459 10.2286 36.814 9.98828C36.3822 9.74797 36.0407 9.40734 35.7896 8.9668C35.5385 8.5262 35.4185 8.02512 35.4185 7.44434C35.4185 6.87369 35.5493 6.36337 35.8003 5.92285C36.0514 5.48233 36.4025 5.14168 36.8443 4.90137C37.2862 4.66104 37.7785 4.54102 38.3209 4.54102ZM49.5386 4.5498C49.9605 4.5498 50.3227 4.62957 50.6441 4.7998C50.9554 4.97003 51.2062 5.18105 51.397 5.44141V4.63965H52.8335V10.2578H51.397V9.43652C51.2163 9.69674 50.9653 9.91673 50.6441 10.0869C50.3227 10.2571 49.9507 10.3477 49.5289 10.3477C49.0569 10.3476 48.6246 10.2276 48.233 9.9873C47.8414 9.747 47.53 9.39651 47.3091 8.95605C47.0781 8.51546 46.9683 8.00436 46.9683 7.43359C46.9683 6.86308 47.0783 6.35256 47.3091 5.91211C47.5401 5.47165 47.8414 5.1307 48.233 4.90039C48.6245 4.66014 49.0567 4.54988 49.5386 4.5498ZM66.7535 4.5498C67.1751 4.5498 67.5367 4.62977 67.858 4.7998C68.1693 4.97003 68.421 5.18105 68.6119 5.44141V4.63965H70.0484V10.2578H68.6119V9.43652C68.4311 9.69687 68.1794 9.91668 67.858 10.0869C67.5366 10.2571 67.1654 10.3476 66.7437 10.3477C66.2717 10.3477 65.8395 10.2276 65.4478 9.9873C65.0562 9.74701 64.7449 9.39653 64.524 8.95605C64.293 8.51546 64.1822 8.00436 64.1822 7.43359C64.1822 6.86304 64.3032 6.35258 64.524 5.91211C64.7549 5.47158 65.0562 5.1307 65.4478 4.90039C65.8394 4.6601 66.2715 4.54983 66.7535 4.5498ZM4.75542 2.00684C7.04523 2.00695 8.91363 3.85982 8.91363 6.13281V10.2578H4.75542C2.46566 10.2578 0.597445 8.40569 0.597221 6.13281C0.597221 3.85974 2.46552 2.00684 4.75542 2.00684ZM18.4849 10.2578H16.9781L16.5064 8.90625H13.6841L13.2125 10.2578H11.7154L14.2671 3.16797H15.9244L18.4849 10.2578ZM44.106 8.94531L45.5318 4.63965H47.0484L44.9595 10.2578H43.232L41.1529 4.63965H42.6793L44.106 8.94531ZM55.0933 10.2578H53.6675V3.17773H55.0933V10.2578ZM59.8033 8.43555L62.063 3.17773H63.6705V10.2578H62.2437V5.65137L60.3453 10.2578H59.2613L57.3531 5.65137V10.2578H55.9263V3.17773H57.5435L59.8033 8.43555ZM73.2613 6.37207L74.3062 4.63965H75.8228L73.9742 7.43359L75.8423 10.2578H74.2457L73.0806 8.50488L72.0562 10.2578H70.5298L72.3677 7.43359L70.5093 4.63965H72.1168L73.2613 6.37207ZM35.1968 6.05176H34.8257C34.3738 6.05176 34.0421 6.15204 33.8111 6.3623C33.5801 6.57259 33.4693 6.9334 33.4693 7.4541V10.248H32.0435V4.64062H33.4693V5.51172C33.6501 5.21131 33.8819 4.98078 34.1832 4.81055C34.4743 4.64045 34.8154 4.5606 35.1968 4.56055V6.05176ZM22.1002 5.80273C21.8391 5.80276 21.5984 5.87281 21.3775 6.00293C21.1465 6.13309 20.9654 6.32294 20.8248 6.57324C20.6842 6.82347 20.6139 7.11383 20.6138 7.4541C20.6138 7.79456 20.6842 8.0856 20.8248 8.33594C20.9654 8.5862 21.1465 8.7761 21.3775 8.90625C21.6084 9.03635 21.8492 9.10642 22.1002 9.10645C22.3613 9.10645 22.6126 9.03643 22.8335 8.90625C23.0644 8.7761 23.2457 8.57637 23.3863 8.32617C23.5269 8.07585 23.5972 7.77501 23.5972 7.43457C23.5972 7.08433 23.5267 6.79394 23.3863 6.55371C23.2457 6.30337 23.0645 6.12236 22.8335 5.99219C22.6026 5.86205 22.3612 5.80273 22.1002 5.80273ZM28.6187 5.80273C28.3576 5.80273 28.116 5.87275 27.8951 6.00293C27.6644 6.13307 27.4838 6.32316 27.3433 6.57324C27.2028 6.82347 27.1324 7.11383 27.1324 7.4541C27.1324 7.79456 27.2027 8.0856 27.3433 8.33594C27.4838 8.586 27.6644 8.77612 27.8951 8.90625C28.1261 9.03643 28.3676 9.10645 28.6187 9.10645C28.8798 9.10643 29.1312 9.03642 29.3521 8.90625C29.5828 8.77616 29.7634 8.57616 29.9039 8.32617C30.0445 8.07585 30.1148 7.77501 30.1148 7.43457C30.1148 7.08417 30.0444 6.79401 29.9039 6.55371C29.7633 6.30339 29.5831 6.12236 29.3521 5.99219C29.1211 5.86202 28.8798 5.80274 28.6187 5.80273ZM38.2906 5.78223C37.8889 5.78225 37.5474 5.92253 37.2662 6.21289C36.9951 6.50324 36.8541 6.91375 36.8541 7.44434C36.8541 7.97498 36.9853 8.3854 37.2564 8.67578C37.5276 8.96617 37.8593 9.10645 38.271 9.10645C38.5318 9.10638 38.7727 9.04692 39.0035 8.91699C39.2345 8.79683 39.4159 8.60581 39.5464 8.35547C39.6769 8.1052 39.7466 7.80465 39.7466 7.44434C39.7466 6.91371 39.6059 6.50325 39.3248 6.21289C39.0436 5.92263 38.7023 5.78223 38.2906 5.78223ZM49.9009 5.79199C49.6399 5.79199 49.3884 5.85135 49.1675 5.98145C48.9466 6.11162 48.7661 6.30264 48.6255 6.54297C48.485 6.79328 48.4146 7.08343 48.4146 7.42383C48.4146 7.76426 48.4849 8.0551 48.6255 8.31543C48.7661 8.56542 48.9466 8.76542 49.1773 8.89551C49.4083 9.02568 49.6498 9.0957 49.9009 9.0957C50.162 9.09565 50.4132 9.02564 50.6441 8.89551C50.8749 8.76539 51.0553 8.57527 51.1959 8.3252C51.3264 8.07486 51.397 7.78407 51.397 7.43359C51.397 7.10322 51.3264 6.80278 51.1959 6.5625C51.0654 6.3124 50.8749 6.12232 50.6441 5.99219C50.4132 5.86206 50.162 5.79204 49.9009 5.79199ZM67.1255 5.79199C66.8645 5.79199 66.6131 5.85135 66.3921 5.98145C66.1712 6.11162 65.9908 6.30264 65.8502 6.54297C65.7096 6.79328 65.6392 7.08343 65.6392 7.42383C65.6392 7.76426 65.7096 8.0551 65.8502 8.31543C65.9907 8.56542 66.1712 8.76542 66.4019 8.89551C66.6329 9.02568 66.8745 9.0957 67.1255 9.0957C67.3866 9.09565 67.6378 9.02564 67.8687 8.89551C68.0995 8.7654 68.2799 8.57527 68.4205 8.3252C68.551 8.07486 68.6216 7.78407 68.6216 7.43359C68.6216 7.10322 68.551 6.80278 68.4205 6.5625C68.2799 6.3124 68.0995 6.12232 67.8687 5.99219C67.6378 5.86206 67.3866 5.79204 67.1255 5.79199ZM6.99468 4.38965C6.73358 4.19968 6.37195 4.26027 6.18121 4.52051L4.32378 7.06348L3.3189 6.05273C3.09803 5.82251 2.72668 5.82195 2.49566 6.04199C2.26476 6.2622 2.26424 6.63295 2.48492 6.86328L3.97222 8.35547C4.08262 8.46541 4.23289 8.52533 4.38335 8.52539H4.42339C4.59411 8.51538 4.74483 8.42532 4.84527 8.28516L7.12554 5.20117C7.31634 4.94082 7.2558 4.5799 6.99468 4.38965ZM14.066 7.77441H16.1246L15.1002 4.81055L14.066 7.77441Z" fill="white"/>
</g>
<defs>
<clipPath id="clip0_5961_73752">
<rect width="75.6271" height="11.4154" fill="white" transform="translate(0.406586 1.59619)"/>
</clipPath>
</defs>
</svg>
