<svg width="160" height="28" viewBox="0 0 160 28" fill="none" xmlns="http://www.w3.org/2000/svg">
<path fill-rule="evenodd" clip-rule="evenodd" d="M16.7824 9.42299C16.2427 9.03173 15.4863 9.15006 15.0936 9.68988L11.2268 14.9948L9.14466 12.8916C8.67569 12.4176 7.91059 12.4123 7.43494 12.8794C6.95922 13.3466 6.95385 14.1096 7.42274 14.5828L10.5062 17.6978C10.7343 17.9284 11.0446 18.0567 11.3671 18.0567C11.3975 18.0567 11.4278 18.0554 11.4582 18.0534C11.8124 18.0265 12.137 17.8464 12.3455 17.56L17.0503 11.1055C17.4429 10.5671 17.3229 9.81418 16.7824 9.42299V9.42299ZM20.7533 21.6551H12.1147C7.35145 21.6551 3.47626 17.7943 3.47626 13.0487C3.47626 8.30315 7.35145 4.44238 12.1147 4.44238C16.8781 4.44238 20.7533 8.30315 20.7533 13.0487V21.6551Z" fill="#36CF8A"/>
<path d="M36.3422 18.8582H30.4637L29.4917 21.6711H26.3834L31.6903 6.89136H35.1369L40.4439 21.6711H37.3141L36.3422 18.8582ZM35.5393 16.4905L33.4029 10.3166L31.2666 16.4905H35.5374H35.5393Z" fill="#36CF8A"/>
<path d="M46.4612 10.3048C47.1299 9.9452 47.8958 9.76636 48.755 9.76636C49.7561 9.76636 50.662 10.0132 51.4726 10.507C52.2832 11.0008 52.9247 11.7025 53.3971 12.6103C53.8695 13.5201 54.1047 14.5737 54.1047 15.7712C54.1047 16.9686 53.8676 18.03 53.3971 18.9534C52.9247 19.8768 52.2832 20.5921 51.4726 21.0995C50.662 21.6069 49.7561 21.8615 48.755 21.8615C47.8958 21.8615 47.1377 21.6846 46.4825 21.3328C45.8274 20.9809 45.2948 20.5358 44.8866 20.0012V27.254H41.926V9.95686H44.8866V11.6481C45.2676 11.1135 45.7925 10.6645 46.4612 10.3048V10.3048ZM50.6484 13.9419C50.3588 13.4268 49.9777 13.0361 49.5073 12.7678C49.0349 12.4995 48.5237 12.3654 47.9735 12.3654C47.4234 12.3654 46.9335 12.5034 46.4612 12.7775C45.9888 13.0516 45.6078 13.4501 45.3201 13.973C45.0304 14.494 44.8866 15.1083 44.8866 15.812C44.8866 16.5157 45.0304 17.13 45.3201 17.651C45.6097 18.1719 45.9888 18.5704 46.4612 18.8465C46.9335 19.1206 47.437 19.2586 47.9735 19.2586C48.5101 19.2586 49.0349 19.1186 49.5073 18.8348C49.9797 18.5529 50.3607 18.1505 50.6484 17.6296C50.938 17.1086 51.0819 16.4885 51.0819 15.7692C51.0819 15.05 50.938 14.4551 50.6484 13.94V13.9419Z" fill="#36CF8A"/>
<path d="M60.0178 10.3048C60.6865 9.9452 61.4524 9.76636 62.3116 9.76636C63.3128 9.76636 64.2186 10.0132 65.0293 10.507C65.8399 11.0008 66.4814 11.7025 66.9538 12.6103C67.4261 13.5201 67.6614 14.5737 67.6614 15.7712C67.6614 16.9686 67.4242 18.03 66.9538 18.9534C66.4814 19.8768 65.8399 20.5921 65.0293 21.0995C64.2186 21.6069 63.3128 21.8615 62.3116 21.8615C61.4524 21.8615 60.6943 21.6846 60.0392 21.3328C59.3841 20.9809 58.8514 20.5358 58.4432 20.0012V27.254H55.4826V9.95686H58.4432V11.6481C58.8242 11.1135 59.3491 10.6645 60.0178 10.3048V10.3048ZM64.205 13.9419C63.9154 13.4268 63.5344 13.0361 63.0639 12.7678C62.5916 12.4995 62.0803 12.3654 61.5302 12.3654C60.9801 12.3654 60.4902 12.5034 60.0178 12.7775C59.5454 13.0516 59.1644 13.4501 58.8767 13.973C58.5871 14.494 58.4432 15.1083 58.4432 15.812C58.4432 16.5157 58.5871 17.13 58.8767 17.651C59.1664 18.1719 59.5454 18.5704 60.0178 18.8465C60.4902 19.1206 60.9937 19.2586 61.5302 19.2586C62.0667 19.2586 62.5916 19.1186 63.0639 18.8348C63.5363 18.5529 63.9173 18.1505 64.205 17.6296C64.4947 17.1086 64.6385 16.4885 64.6385 15.7692C64.6385 15.05 64.4947 14.4551 64.205 13.94V13.9419Z" fill="#36CF8A"/>
<path d="M73.0883 10.3166C73.7006 9.96474 74.4024 9.78784 75.1916 9.78784V12.8962H74.4102C73.479 12.8962 72.7792 13.1139 72.3068 13.5513C71.8344 13.9887 71.5992 14.7507 71.5992 15.8354V21.6711H68.6386V9.95696H71.5992V11.7745C71.9802 11.1544 72.4759 10.6684 73.0902 10.3166H73.0883Z" fill="#36CF8A"/>
<path d="M78.5602 21.1092C77.6582 20.6096 76.9487 19.9001 76.4355 18.9845C75.9203 18.0689 75.6637 17.0114 75.6637 15.812C75.6637 14.6126 75.9281 13.557 76.4568 12.6395C76.9856 11.7239 77.7068 11.0144 78.6243 10.5148C79.5399 10.0152 80.5624 9.7644 81.6899 9.7644C82.8174 9.7644 83.8399 10.0152 84.7555 10.5148C85.6711 11.0144 86.3942 11.7239 86.923 12.6395C87.4517 13.5551 87.7161 14.6126 87.7161 15.812C87.7161 17.0114 87.444 18.0669 86.9016 18.9845C86.3593 19.9001 85.6264 20.6096 84.703 21.1092C83.7797 21.6088 82.7474 21.8596 81.6063 21.8596C80.4652 21.8596 79.4641 21.6088 78.5621 21.1092H78.5602ZM83.1168 18.8892C83.5891 18.6287 83.9663 18.238 84.2481 17.7151C84.53 17.1941 84.67 16.5604 84.67 15.812C84.67 14.6981 84.3764 13.8428 83.7933 13.2421C83.2081 12.6434 82.4928 12.344 81.6472 12.344C80.8015 12.344 80.092 12.6434 79.5224 13.2421C78.9509 13.8408 78.6652 14.6981 78.6652 15.812C78.6652 16.9259 78.9431 17.7812 79.5011 18.3819C80.057 18.9806 80.7588 19.28 81.6044 19.28C82.139 19.28 82.6444 19.1497 83.1168 18.8892V18.8892Z" fill="#36CF8A"/>
<path d="M93.7303 18.9419L96.6909 9.95508H99.842L95.507 21.6692H91.9127L87.5991 9.95508H90.7716L93.7322 18.9419H93.7303Z" fill="#36CF8A"/>
<path d="M100.389 12.62C100.861 11.7045 101.502 10.9988 102.313 10.505C103.124 10.0113 104.03 9.7644 105.031 9.7644C105.905 9.7644 106.669 9.9413 107.324 10.2932C107.98 10.645 108.504 11.0902 108.899 11.6247V9.95491H111.881V21.6691H108.899V19.9565C108.518 20.5066 107.993 20.9615 107.324 21.3211C106.654 21.6807 105.882 21.8596 105.009 21.8596C104.022 21.8596 103.124 21.6069 102.313 21.0975C101.502 20.5902 100.861 19.8748 100.389 18.9514C99.9161 18.0281 99.6809 16.9667 99.6809 15.7692C99.6809 14.5718 99.9161 13.5356 100.389 12.6181V12.62ZM108.475 13.9633C108.193 13.4482 107.812 13.0535 107.334 12.7794C106.854 12.5054 106.341 12.3673 105.791 12.3673C105.241 12.3673 104.733 12.5015 104.269 12.7697C103.804 13.038 103.427 13.4287 103.137 13.9439C102.848 14.459 102.704 15.0675 102.704 15.7731C102.704 16.4788 102.848 17.095 103.137 17.6237C103.427 18.1525 103.806 18.5568 104.278 18.8387C104.751 19.1206 105.254 19.2625 105.791 19.2625C106.327 19.2625 106.854 19.1244 107.334 18.8504C107.812 18.5763 108.193 18.1816 108.475 17.6665C108.757 17.1514 108.899 16.5351 108.899 15.8159C108.899 15.0966 108.757 14.4804 108.475 13.9652V13.9633Z" fill="#36CF8A"/>
<path d="M116.581 6.90869V21.6711H113.621V6.90869H116.581Z" fill="#36CF8A"/>
<path d="M134.413 6.91089V21.6692H131.453V12.0701L127.499 21.6692H125.258L121.282 12.0701V21.6692H118.322V6.91089H121.683L126.377 17.8844L131.072 6.91089H134.413V6.91089Z" fill="#36CF8A"/>
<path d="M136.206 12.62C136.678 11.7045 137.32 10.9988 138.131 10.505C138.941 10.0113 139.847 9.7644 140.848 9.7644C141.723 9.7644 142.487 9.9413 143.142 10.2932C143.797 10.645 144.322 11.0902 144.717 11.6247V9.95491H147.699V21.6691H144.717V19.9565C144.336 20.5066 143.811 20.9615 143.142 21.3211C142.471 21.6807 141.7 21.8596 140.827 21.8596C139.839 21.8596 138.941 21.6069 138.131 21.0975C137.32 20.5902 136.678 19.8748 136.206 18.9514C135.734 18.0281 135.499 16.9667 135.499 15.7692C135.499 14.5718 135.734 13.5356 136.206 12.6181V12.62ZM144.293 13.9633C144.011 13.4482 143.63 13.0535 143.152 12.7794C142.672 12.5054 142.158 12.3673 141.608 12.3673C141.058 12.3673 140.551 12.5015 140.086 12.7697C139.622 13.038 139.244 13.4287 138.955 13.9439C138.665 14.459 138.521 15.0675 138.521 15.7731C138.521 16.4788 138.665 17.095 138.955 17.6237C139.244 18.1525 139.624 18.5568 140.096 18.8387C140.568 19.1206 141.072 19.2625 141.608 19.2625C142.145 19.2625 142.672 19.1244 143.152 18.8504C143.63 18.5763 144.011 18.1816 144.293 17.6665C144.575 17.1514 144.717 16.5351 144.717 15.8159C144.717 15.0966 144.575 14.4804 144.293 13.9652V13.9633Z" fill="#36CF8A"/>
<path d="M156.407 21.6712L153.996 18.0341L151.86 21.6712H148.687L152.515 15.7927L148.645 9.95703H151.986L154.375 13.5727L156.531 9.95703H159.704L155.855 15.7927L159.745 21.6712H156.403H156.407Z" fill="#36CF8A"/>
</svg>
