<svg width="95" height="37" viewBox="0 0 95 37" fill="none" xmlns="http://www.w3.org/2000/svg">
<path fill-rule="evenodd" clip-rule="evenodd" d="M6.14448 2.725C5.89524 2.54433 5.54599 2.59897 5.36464 2.84824L3.57911 5.29789L2.61763 4.32668C2.40108 4.10782 2.04778 4.10535 1.82814 4.32106C1.60847 4.53681 1.60599 4.88911 1.82251 5.10761L3.24634 6.54603C3.35167 6.65249 3.49497 6.71176 3.64388 6.71176C3.65792 6.71176 3.67193 6.71116 3.68597 6.71024C3.84951 6.69781 3.99938 6.61462 4.09567 6.48238L6.26818 3.50191C6.44949 3.25331 6.39404 2.90564 6.14448 2.725ZM7.97795 8.37318H3.98896C1.78943 8.37318 0 6.59038 0 4.39904C0 2.2077 1.78943 0.424927 3.98896 0.424927C6.18852 0.424927 7.97795 2.2077 7.97795 4.39904V8.37318Z" fill="white"/>
<path d="M15.1458 7.07174H12.4368L11.9889 8.36864H10.5565L13.0021 1.55432H14.5904L17.036 8.36864H15.5937L15.1458 7.07174ZM14.7758 5.98009L13.7913 3.13354L12.8068 5.98009H14.7749H14.7758Z" fill="white"/>
<path d="M19.809 3.12815C20.1172 2.96234 20.4702 2.87988 20.8661 2.87988C21.3275 2.87988 21.7449 2.99371 22.1185 3.22136C22.492 3.44901 22.7876 3.77257 23.0053 4.19112C23.223 4.61058 23.3314 5.09635 23.3314 5.64845C23.3314 6.20055 23.2221 6.68992 23.0053 7.11564C22.7876 7.54137 22.492 7.8712 22.1185 8.10512C21.7449 8.33905 21.3275 8.45646 20.8661 8.45646C20.4702 8.45646 20.1208 8.3749 19.8189 8.21267C19.517 8.05045 19.2716 7.8452 19.0834 7.59873V10.9427H17.7191V2.96772H19.0834V3.74747C19.259 3.501 19.5009 3.29396 19.809 3.12815ZM21.7386 4.80507C21.6052 4.56755 21.4296 4.3874 21.2128 4.26372C20.9951 4.14003 20.7595 4.07819 20.506 4.07819C20.2525 4.07819 20.0267 4.14183 19.809 4.2682C19.5914 4.39457 19.4158 4.57831 19.2832 4.81941C19.1497 5.05961 19.0834 5.34283 19.0834 5.66728C19.0834 5.99172 19.1497 6.27494 19.2832 6.51514C19.4167 6.75534 19.5914 6.93908 19.809 7.06635C20.0267 7.19272 20.2587 7.25636 20.506 7.25636C20.7532 7.25636 20.9951 7.19183 21.2128 7.06097C21.4305 6.93101 21.6061 6.74548 21.7386 6.50529C21.8721 6.26509 21.9384 5.97918 21.9384 5.64756C21.9384 5.31594 21.8721 5.04168 21.7386 4.80417V4.80507Z" fill="white"/>
<path d="M26.0572 3.12815C26.3653 2.96234 26.7183 2.87988 27.1142 2.87988C27.5756 2.87988 27.993 2.99371 28.3666 3.22136C28.7402 3.44901 29.0358 3.77257 29.2535 4.19112C29.4711 4.61058 29.5795 5.09635 29.5795 5.64845C29.5795 6.20055 29.4702 6.68992 29.2535 7.11564C29.0358 7.54137 28.7402 7.8712 28.3666 8.10512C27.993 8.33905 27.5756 8.45646 27.1142 8.45646C26.7183 8.45646 26.3689 8.3749 26.067 8.21267C25.7651 8.05045 25.5197 7.8452 25.3316 7.59873V10.9427H23.9672V2.96772H25.3316V3.74747C25.5072 3.501 25.749 3.29396 26.0572 3.12815ZM27.9868 4.80507C27.8533 4.56755 27.6777 4.3874 27.4609 4.26372C27.2432 4.14003 27.0076 4.07819 26.7541 4.07819C26.5006 4.07819 26.2749 4.14183 26.0572 4.2682C25.8395 4.39457 25.6639 4.57831 25.5313 4.81941C25.3979 5.05961 25.3316 5.34283 25.3316 5.66727C25.3316 5.99172 25.3979 6.27494 25.5313 6.51514C25.6648 6.75534 25.8395 6.93908 26.0572 7.06635C26.2749 7.19272 26.5069 7.25636 26.7541 7.25636C27.0014 7.25636 27.2432 7.19183 27.4609 7.06097C27.6786 6.93101 27.8542 6.74548 27.9868 6.50529C28.1202 6.26509 28.1865 5.97918 28.1865 5.64756C28.1865 5.31594 28.1202 5.04168 27.9868 4.80417V4.80507Z" fill="white"/>
<path d="M32.0786 3.13343C32.3608 2.97121 32.6841 2.88965 33.0478 2.88965V4.32278H32.6877C32.2586 4.32278 31.9361 4.42316 31.7185 4.62482C31.5008 4.82648 31.3924 5.17782 31.3924 5.67794V8.36853H30.028V2.96762H31.3924V3.80563C31.568 3.51972 31.7964 3.29566 32.0795 3.13343H32.0786Z" fill="white"/>
<path d="M34.6017 8.10952C34.186 7.87918 33.8591 7.55205 33.6226 7.1299C33.3852 6.70776 33.2669 6.22019 33.2669 5.66719C33.2669 5.1142 33.3888 4.62752 33.6324 4.20449C33.8761 3.78234 34.2084 3.45521 34.6313 3.22487C35.0532 2.99452 35.5244 2.87891 36.044 2.87891C36.5635 2.87891 37.0347 2.99452 37.4567 3.22487C37.8786 3.45521 38.2118 3.78234 38.4555 4.20449C38.6992 4.62663 38.821 5.1142 38.821 5.66719C38.821 6.22019 38.6956 6.70687 38.4457 7.1299C38.1957 7.55205 37.858 7.87918 37.4325 8.10952C37.007 8.33986 36.5313 8.45548 36.0055 8.45548C35.4796 8.45548 35.0183 8.33986 34.6026 8.10952H34.6017ZM36.7015 7.08599C36.9192 6.96589 37.093 6.78574 37.2229 6.54464C37.3528 6.30444 37.4173 6.01226 37.4173 5.66719C37.4173 5.15363 37.282 4.75928 37.0132 4.48233C36.7436 4.20628 36.4139 4.06825 36.0243 4.06825C35.6346 4.06825 35.3076 4.20628 35.0451 4.48233C34.7818 4.75838 34.6501 5.15363 34.6501 5.66719C34.6501 6.18076 34.7782 6.57511 35.0353 6.85206C35.2915 7.12811 35.6149 7.26614 36.0046 7.26614C36.2509 7.26614 36.4838 7.20609 36.7015 7.08599Z" fill="white"/>
<path d="M41.5912 7.11024L42.9555 2.9668H44.4076L42.41 8.36771H40.7536L38.7658 2.9668H40.2278L41.5921 7.11024H41.5912Z" fill="white"/>
<path d="M44.6592 4.19552C44.8769 3.77338 45.1725 3.44804 45.546 3.22038C45.9196 2.99273 46.337 2.87891 46.7984 2.87891C47.2015 2.87891 47.5536 2.96047 47.8554 3.12269C48.1573 3.28492 48.3992 3.49016 48.5811 3.73663V2.96674H49.9552V8.36765H48.5811V7.57804C48.4055 7.83168 48.1636 8.04141 47.8554 8.20722C47.5464 8.37303 47.1908 8.45548 46.7885 8.45548C46.3335 8.45548 45.9196 8.33897 45.546 8.10415C45.1725 7.87022 44.8769 7.54039 44.6592 7.11467C44.4415 6.68894 44.3331 6.19958 44.3331 5.64748C44.3331 5.09538 44.4415 4.61767 44.6592 4.19463V4.19552ZM48.3858 4.81484C48.2559 4.57733 48.0803 4.39539 47.8599 4.26902C47.6387 4.14264 47.4022 4.07901 47.1487 4.07901C46.8951 4.07901 46.6613 4.14085 46.4472 4.26454C46.2331 4.38822 46.0593 4.56837 45.9259 4.80588C45.7924 5.04339 45.7261 5.32392 45.7261 5.64927C45.7261 5.97461 45.7924 6.25873 45.9259 6.50252C46.0593 6.7463 46.234 6.93272 46.4517 7.06268C46.6694 7.19264 46.9014 7.25807 47.1487 7.25807C47.3959 7.25807 47.6387 7.19443 47.8599 7.06806C48.0803 6.94169 48.2559 6.75974 48.3858 6.52223C48.5157 6.28472 48.5811 6.00061 48.5811 5.66899C48.5811 5.33737 48.5157 5.05325 48.3858 4.81574V4.81484Z" fill="white"/>
<path d="M52.1208 1.56226V8.36859H50.7565V1.56226H52.1208Z" fill="white"/>
<path d="M60.3374 1.56311V8.36757H58.973V3.9418L57.1509 8.36757H56.1181L54.2861 3.9418V8.36757H52.9218V1.56311H54.4707L56.6341 6.62254L58.7975 1.56311H60.3374Z" fill="white"/>
<path d="M61.1658 4.19552C61.3835 3.77338 61.6791 3.44804 62.0526 3.22038C62.4262 2.99273 62.8436 2.87891 63.305 2.87891C63.7081 2.87891 64.0602 2.96047 64.3621 3.12269C64.6639 3.28492 64.9058 3.49016 65.0877 3.73663V2.96674H66.4619V8.36765H65.0877V7.57804C64.9121 7.83168 64.6702 8.04141 64.3621 8.20722C64.053 8.37303 63.6974 8.45548 63.2951 8.45548C62.8401 8.45548 62.4262 8.33897 62.0526 8.10415C61.6791 7.87022 61.3835 7.54039 61.1658 7.11467C60.9481 6.68894 60.8397 6.19958 60.8397 5.64748C60.8397 5.09538 60.9481 4.61767 61.1658 4.19463V4.19552ZM64.8924 4.81484C64.7625 4.57733 64.5869 4.39539 64.3665 4.26902C64.1453 4.14264 63.9088 4.07901 63.6553 4.07901C63.4017 4.07901 63.1679 4.14085 62.9538 4.26454C62.7397 4.38822 62.5659 4.56837 62.4325 4.80588C62.299 5.04339 62.2327 5.32392 62.2327 5.64927C62.2327 5.97461 62.299 6.25873 62.4325 6.50252C62.5659 6.7463 62.7406 6.93272 62.9583 7.06268C63.176 7.19264 63.408 7.25807 63.6553 7.25807C63.9025 7.25807 64.1453 7.19443 64.3665 7.06806C64.5869 6.94169 64.7625 6.75974 64.8924 6.52223C65.0223 6.28472 65.0877 6.00061 65.0877 5.66899C65.0877 5.33737 65.0223 5.05325 64.8924 4.81574V4.81484Z" fill="white"/>
<path d="M70.4735 8.36856L69.3627 6.69164L68.3782 8.36856H66.9162L68.6801 5.65825L66.8965 2.96765H68.4364L69.5374 4.63471L70.5308 2.96765H71.9928L70.2191 5.65825L72.0116 8.36856H70.4717H70.4735Z" fill="white"/>
<path d="M94.7808 23.1458C94.7808 23.6339 94.7483 24.0733 94.6832 24.4638H84.8028C84.8842 25.4401 85.2257 26.2049 85.8275 26.7582C86.4292 27.3114 87.1693 27.5881 88.0475 27.5881C89.3161 27.5881 90.2188 27.043 90.7555 25.9527H94.4393C94.0489 27.2545 93.3008 28.3285 92.1948 29.1746C91.0889 30.0045 89.7308 30.4194 88.1207 30.4194C86.8196 30.4194 85.6486 30.1347 84.6077 29.5651C83.583 28.9793 82.778 28.1576 82.1925 27.0999C81.6232 26.0422 81.3386 24.8218 81.3386 23.4387C81.3386 22.0393 81.6232 20.8107 82.1925 19.753C82.7617 18.6953 83.5586 17.8817 84.5833 17.3122C85.6079 16.7426 86.787 16.4579 88.1207 16.4579C89.4056 16.4579 90.5522 16.7345 91.5605 17.2878C92.5852 17.841 93.374 18.6302 93.927 19.6554C94.4962 20.6642 94.7808 21.8277 94.7808 23.1458ZM91.2434 22.1694C91.2271 21.2907 90.91 20.591 90.2919 20.0703C89.6739 19.5333 88.9176 19.2648 88.0231 19.2648C87.1774 19.2648 86.4618 19.5252 85.8763 20.0459C85.307 20.5503 84.9573 21.2582 84.8272 22.1694H91.2434Z" fill="white"/>
<path d="M76.7475 18.7766C77.1866 18.0606 77.7558 17.4992 78.4552 17.0924C79.1708 16.6856 79.984 16.4822 80.8948 16.4822V20.0702H79.9922C78.9187 20.0702 78.1055 20.3224 77.5525 20.8269C77.0158 21.3313 76.7475 22.21 76.7475 23.463V30.1996H73.332V16.6774H76.7475V18.7766Z" fill="white"/>
<path d="M70.9352 16.6775V30.1997H67.4954V28.4911C67.0562 29.0769 66.4789 29.5407 65.7633 29.8824C65.0639 30.2078 64.2995 30.3705 63.47 30.3705C62.4129 30.3705 61.4777 30.1509 60.6645 29.7115C59.8513 29.2559 59.2089 28.5969 58.7372 27.7344C58.2818 26.8557 58.0541 25.8143 58.0541 24.6102V16.6775H61.4696V24.122C61.4696 25.196 61.7379 26.0259 62.2746 26.6117C62.8113 27.1812 63.5432 27.466 64.4703 27.466C65.4136 27.466 66.1536 27.1812 66.6903 26.6117C67.227 26.0259 67.4954 25.196 67.4954 24.122V16.6775H70.9352Z" fill="white"/>
<path d="M53.6694 19.4844V26.0258C53.6694 26.4814 53.7752 26.815 53.9866 27.0266C54.2143 27.2218 54.5884 27.3195 55.1088 27.3195H56.6946V30.1996H54.5477C51.669 30.1996 50.2296 28.8002 50.2296 26.0014V19.4844H48.6195V16.6774H50.2296V13.3335H53.6694V16.6774H56.6946V19.4844H53.6694Z" fill="white"/>
<path d="M37.5506 18.6302C37.9897 18.0119 38.5915 17.4993 39.3559 17.0925C40.1366 16.6694 41.023 16.4579 42.0151 16.4579C43.1698 16.4579 44.2107 16.7426 45.1378 17.3122C46.0811 17.8817 46.8211 18.6953 47.3578 19.753C47.9108 20.7944 48.1873 22.0067 48.1873 23.3898C48.1873 24.773 47.9108 26.0015 47.3578 27.0755C46.8211 28.1332 46.0811 28.9549 45.1378 29.5407C44.2107 30.1265 43.1698 30.4194 42.0151 30.4194C41.023 30.4194 40.1447 30.216 39.3803 29.8092C38.6321 29.4024 38.0222 28.8898 37.5506 28.2715V36.6435H34.1351V16.6776H37.5506V18.6302ZM44.6986 23.3898C44.6986 22.5762 44.5279 21.8765 44.1863 21.2907C43.861 20.6887 43.4219 20.233 42.8689 19.9239C42.3322 19.6147 41.7467 19.4601 41.1124 19.4601C40.4944 19.4601 39.9089 19.6228 39.3559 19.9483C38.8192 20.2574 38.38 20.7131 38.0385 21.3151C37.7132 21.9172 37.5506 22.625 37.5506 23.4387C37.5506 24.2523 37.7132 24.9601 38.0385 25.5622C38.38 26.1643 38.8192 26.628 39.3559 26.9535C39.9089 27.2626 40.4944 27.4172 41.1124 27.4172C41.7467 27.4172 42.3322 27.2545 42.8689 26.929C43.4219 26.6036 43.861 26.1398 44.1863 25.5378C44.5279 24.9357 44.6986 24.2197 44.6986 23.3898Z" fill="white"/>
<path d="M17.699 23.3898C17.699 22.023 17.9674 20.8107 18.5041 19.753C19.0571 18.6953 19.7971 17.8817 20.7241 17.3122C21.6675 16.7426 22.7165 16.4579 23.8712 16.4579C24.8796 16.4579 25.7579 16.6613 26.506 17.0681C27.2704 17.4749 27.8803 17.9875 28.3357 18.6058V16.6776H31.7756V30.1998H28.3357V28.2227C27.8966 28.8573 27.2867 29.3861 26.506 29.8092C25.7416 30.216 24.8552 30.4194 23.8468 30.4194C22.7084 30.4194 21.6675 30.1265 20.7241 29.5407C19.7971 28.9549 19.0571 28.1332 18.5041 27.0755C17.9674 26.0015 17.699 24.773 17.699 23.3898ZM28.3357 23.4387C28.3357 22.6088 28.1731 21.9009 27.8478 21.3151C27.5225 20.7131 27.0834 20.2574 26.5304 19.9483C25.9774 19.6228 25.3838 19.4601 24.7495 19.4601C24.1152 19.4601 23.5297 19.6147 22.993 19.9239C22.4563 20.233 22.0171 20.6887 21.6756 21.2907C21.3503 21.8765 21.1877 22.5762 21.1877 23.3898C21.1877 24.2035 21.3503 24.9194 21.6756 25.5378C22.0171 26.1398 22.4563 26.6036 22.993 26.929C23.546 27.2545 24.1315 27.4172 24.7495 27.4172C25.3838 27.4172 25.9774 27.2626 26.5304 26.9535C27.0834 26.628 27.5225 26.1724 27.8478 25.5866C28.1731 24.9845 28.3357 24.2685 28.3357 23.4387Z" fill="white"/>
<path d="M0 21.6568C0 19.9807 0.374073 18.4837 1.12222 17.1656C1.88663 15.8313 2.91939 14.798 4.22052 14.0658C5.5379 13.3173 7.0098 12.943 8.6362 12.943C10.5391 12.943 12.2062 13.4312 13.6374 14.4075C15.0686 15.3838 16.0689 16.7344 16.6381 18.4593H12.7103C12.32 17.6457 11.767 17.0355 11.0514 16.6286C10.3521 16.2218 9.53886 16.0184 8.61181 16.0184C7.6197 16.0184 6.73331 16.2544 5.95264 16.7263C5.18823 17.1819 4.58646 17.8328 4.14733 18.6789C3.72446 19.5251 3.51303 20.5177 3.51303 21.6568C3.51303 22.7795 3.72446 23.7721 4.14733 24.6346C4.58646 25.4807 5.18823 26.1397 5.95264 26.6116C6.73331 27.0673 7.6197 27.2951 8.61181 27.2951C9.53886 27.2951 10.3521 27.0917 11.0514 26.6849C11.767 26.2618 12.32 25.6434 12.7103 24.8298H16.6381C16.0689 26.571 15.0686 27.9297 13.6374 28.906C12.2224 29.8661 10.5554 30.3461 8.6362 30.3461C7.0098 30.3461 5.5379 29.98 4.22052 29.2477C2.91939 28.4992 1.88663 27.4659 1.12222 26.1479C0.374073 24.8298 0 23.3328 0 21.6568Z" fill="white"/>
</svg>
