<svg width="182" height="48" viewBox="0 0 182 48" fill="none" xmlns="http://www.w3.org/2000/svg">
<path d="M139.422 40.2288C139.525 40.2288 140.091 40.1339 140.24 40.111C143.023 39.6841 145.062 38.4545 146.185 35.0579C146.949 32.7458 150 23.3739 150 23.3739H146.762L144.172 32.2231H143.652L141.692 23.3739H138.328L141.605 34.9787H143.371C143.371 34.9787 143.3 35.2097 143.247 35.3919C142.87 36.6841 140.864 37.5583 139.006 37.8021L139.422 40.2288ZM107.635 34.9719V25.9868C107.982 25.8714 108.836 25.7327 109.806 25.7327C110.315 25.7327 111.12 25.771 111.536 25.8171V23.1966C111.212 23.1042 110.338 23.0769 109.529 23.0769C107.497 23.0769 105.557 23.6081 104.541 24.0931V34.9719H107.635ZM138.302 34.9667L138.412 32.6212C138.29 32.6485 137.956 32.7229 137.642 32.7229C136.594 32.7229 136.284 32.042 136.284 31.1085V18.3937L133.189 19.7889V31.7054C133.189 33.4125 134.037 35.1175 136.487 35.1175C137.459 35.1175 138.177 34.9903 138.302 34.9667ZM131.939 34.9667L132.049 32.6212C131.927 32.6485 131.594 32.7229 131.279 32.7229C130.231 32.7229 129.921 32.042 129.921 31.1085V18.3937L126.826 19.7889V31.7054C126.826 33.4125 127.674 35.1175 130.124 35.1175C131.096 35.1175 131.814 34.9903 131.939 34.9667ZM120.837 34.9719V23.3579L123.932 23.3739V34.9719H120.837ZM122.361 21.9996C121.414 21.9996 120.698 21.63 120.698 20.2905C120.698 19.0666 121.345 18.5582 122.361 18.5582C123.4 18.5582 124.07 18.9508 124.07 20.2674C124.07 21.5376 123.446 21.9996 122.361 21.9996ZM99.9628 27.8808V27.6264C99.9628 26.0563 99.2679 25.3403 97.5745 25.3403C95.8424 25.3403 95.1554 26.287 95.1093 27.8808H99.9628ZM98.5467 32.6847C100.287 32.6847 101.364 32.3015 101.902 32.1364L102.202 34.4461C101.751 34.6539 100.27 35.2718 98.3527 35.2718C94.1493 35.2718 91.9685 33.1171 91.9685 28.9599C91.9685 24.7551 94.0541 23.0537 97.6533 23.0537C101.578 23.0537 102.827 25.2246 102.827 28.8969C102.827 29.2894 102.803 29.844 102.757 30.0518H95.0631C95.0631 32.1477 96.6066 32.6847 98.5467 32.6847ZM84.6126 34.9719V29.8669H85.3483L89.0869 34.9719H92.5511L87.7443 28.2284L92.1192 23.3739H88.7367L85.2703 27.2799H84.6126V18.3937L81.5177 19.7889V34.9719H84.6126ZM116.422 35.1175C117.653 35.1175 118.454 34.9268 118.586 34.8926L118.725 32.5133C118.619 32.5579 118.022 32.7238 117.641 32.7238C116.219 32.7238 115.769 31.7132 115.769 30.3736V26.1255H119.077V23.3739H115.769V20.8979L112.71 22.293V31.244C112.71 33.9038 114.099 35.1175 116.422 35.1175ZM76.3411 30.1135C75.7851 30.0251 74.7565 29.8762 73.9044 29.8762C71.8975 29.8762 71.7284 30.7071 71.7284 31.4318C71.7284 32.6077 72.2618 33.042 73.9849 33.042C75.1099 33.042 75.925 32.8627 76.3411 32.7471V30.1135ZM73.7999 35.2602C69.8976 35.2602 68.8007 34.0375 68.8007 31.5067C68.8007 28.9241 69.9311 27.7711 73.6972 27.7711C74.8817 27.7711 75.9903 27.9483 76.3411 27.9963V27.2258C76.3411 26.2966 75.8496 25.6173 73.3766 25.6173C71.4114 25.6173 70.3012 26.1762 69.9143 26.3277L69.6753 23.9257C70.1857 23.7246 71.8166 23.0535 74.2555 23.0535C77.9227 23.0535 79.3894 24.6173 79.3894 27.6283V34.3738C78.512 34.7667 76.2553 35.2602 73.7999 35.2602ZM61.425 32.7609C63.8323 32.7609 64.5708 31.3942 64.5708 29.1701C64.5708 27.0132 63.7986 25.6421 61.425 25.6421C60.7322 25.6421 60.1052 25.779 59.3662 26.0099V32.3931C59.903 32.5691 60.6661 32.7609 61.425 32.7609ZM56.2712 19.7889L59.3662 18.3937V23.5617C60.1744 23.3076 60.8123 23.0537 62.4292 23.0537C65.9348 23.0537 67.6375 24.9206 67.6375 29.1703C67.6375 34.1494 65.6826 35.2718 61.1907 35.2718C59.0428 35.2718 57.1951 34.9019 56.2712 34.4863V19.7889ZM44.9449 9.57068C44.1362 9.17136 42.8842 9 41.6768 9C36.2079 9 31 12.0831 31 17.2753C31 19.1093 31.5823 21.0702 32.5989 22.827C33.748 24.8135 35.3418 26.6297 37.2439 27.9202C38.6875 28.8999 40.3595 29.5833 42.0868 29.5833C43.5254 29.5833 44.4913 29.1889 44.8261 28.9132C44.6814 28.9362 44.3334 28.9873 43.9036 28.9873C39.3588 28.9873 36.2659 24.9415 35.1073 22.0025C34.661 20.8701 34.329 19.509 34.329 18.158C34.329 12.6302 39.2779 9.59507 44.1115 9.59507C44.3823 9.59507 44.6546 9.60385 44.9283 9.62267C44.9494 9.6243 44.9629 9.61099 44.9629 9.59671C44.9629 9.58741 44.9572 9.5776 44.9449 9.57068ZM45.7849 17.784C43.3968 17.784 41.4095 19.5622 41.4095 21.931C41.4095 24.1269 43.2072 26.21 45.8313 26.21C46.4377 26.21 47.0419 26.0749 47.596 25.8238C47.6909 25.7807 47.8153 25.74 47.8968 25.6743C47.964 25.6203 47.9957 25.5253 48.0408 25.4492C48.741 24.2761 49.5244 21.5902 49.6376 20.0852C49.6492 19.9307 49.6061 19.8749 49.5142 19.7506C48.8943 18.9114 47.6878 17.784 45.7849 17.784ZM49.7302 17.9701C49.7302 18.1732 49.7258 18.6108 49.7208 18.8104C48.8312 17.2446 47.1017 16.3445 45.3121 16.3445C42.7004 16.3445 40.3137 18.6336 40.3137 21.6606C40.3137 24.6367 42.7086 26.7845 45.3951 26.7845C46.1306 26.7845 46.8658 26.6229 47.5386 26.2972C47.2498 26.7384 46.9264 27.1581 46.5651 27.5425C46.4033 27.7148 46.2353 27.9317 46.0113 28.014C45.7563 28.1078 45.2211 28.3216 44.2675 28.3216C41.0752 28.3216 38.9033 25.9553 37.885 24.4332C36.8695 22.9156 35.9924 20.8813 35.9924 18.7052C35.9924 14.3653 39.6012 12.1287 43.5627 12.1287C47.8743 12.1287 49.7302 15.5573 49.7302 17.9701Z" fill="#465161"/>
</svg>
