<svg width="182" height="48" viewBox="0 0 182 48" fill="none" xmlns="http://www.w3.org/2000/svg">
<g clip-path="url(#clip0_134_18374)">
<path d="M67.7754 16.5856H72.3507C73.6061 16.5856 75.1962 16.8883 75.1962 19.046C75.1962 21.2037 72.9232 22.083 71.2363 22.083H67.7754V16.5856ZM67.7754 25.0145H70.3818C74.6666 25.0145 76.8488 25.962 76.8488 28.498C76.8488 30.745 75.0981 31.6949 72.3507 31.6949H68.18L63.4109 35.0729L72.3188 35.0717C77.6531 35.0717 81.244 33.1284 81.244 28.6331C81.244 24.7119 78.0662 23.1718 75.2293 23.1718C77.1896 23.1718 79.5055 21.3947 79.5055 18.3813C79.5055 15.3704 76.7826 13.2064 73.676 13.2064H64.5842H62.6128L63.4109 14.9983V33.4993L67.7754 30.4077V25.0145Z" fill="#465161"/>
<path d="M88.4272 16.5856H91.4003C92.6262 16.5856 98.8824 16.8995 98.8824 24.1402C98.8824 32.4017 91.4003 31.6924 91.4003 31.6924L88.833 31.6949L84.0615 35.0729L92.6262 35.0741C97.9616 35.0741 103.429 31.7544 103.429 24.1402C103.429 17.388 98.6543 13.2064 92.6262 13.2064H83.2646L84.0615 14.9983V33.4993L88.4272 30.4077V16.5856Z" fill="#465161"/>
<path d="M109.995 24.1395C109.995 17.9564 114.206 16.219 116.934 16.219C119.661 16.219 123.874 17.9564 123.874 24.1395C123.874 30.3226 119.661 32.0599 116.934 32.0599C114.206 32.0599 109.995 30.3226 109.995 24.1395ZM105.446 24.1395C105.446 32.8635 112.417 35.3152 116.934 35.3152C121.45 35.3152 128.421 32.8635 128.421 24.1395C128.421 15.4154 121.45 12.965 116.934 12.965C112.417 12.965 105.446 15.4154 105.446 24.1395Z" fill="#465161"/>
<path d="M53.5793 13.2068V40.4653L57.8433 37.4444V13.2068H53.5793Z" fill="#6A7688"/>
<path d="M58.6398 38.4524L53.579 42.035H128.182V38.4524H58.6398Z" fill="#6A7688"/>
</g>
<defs>
<clipPath id="clip0_134_18374">
<rect width="76" height="30" fill="white" transform="translate(53 12.5)"/>
</clipPath>
</defs>
</svg>
