<svg width="182" height="48" viewBox="0 0 182 48" fill="none" xmlns="http://www.w3.org/2000/svg">
<path d="M124.736 15.4257V29.4533C130.842 29.4533 135.647 25.9756 136.996 19.3653V29.4533C144.209 29.4533 149.629 24.579 149.629 15.4257H124.736Z" fill="#465161"/>
<path d="M76.1141 16.9389C73.6423 16.9389 71.662 18.893 71.662 22.5142C71.662 26.1354 73.6446 28.0894 76.2226 28.0894C78.5772 28.0894 80.2181 26.515 80.2659 24.0169H76.6039V22.5066H81.8975V23.9988C81.8975 27.4497 79.5347 29.6458 76.2243 29.6458C72.5314 29.6458 70.0333 26.9051 70.0333 22.5072C70.0333 18.1093 72.5489 15.3645 76.1141 15.3645C77.4489 15.316 78.7571 15.7464 79.8024 16.5779C80.8477 17.4094 81.5612 18.5873 81.8141 19.8989H80.0782C79.8508 19.0292 79.3346 18.2627 78.6144 17.7249C77.8941 17.1871 77.0125 16.91 76.1141 16.9389Z" fill="#465161"/>
<path d="M84.0813 19.0306H85.6265V20.605H85.7356C85.9578 20.074 86.3364 19.6231 86.8211 19.3125C87.3057 19.0019 87.8735 18.8462 88.4488 18.8662C88.6879 18.8662 89.1072 18.8796 89.2903 18.893V20.5257C88.9694 20.4544 88.6422 20.4154 88.3136 20.4091C87.9779 20.3862 87.6411 20.4322 87.3239 20.5443C87.0067 20.6564 86.7158 20.8323 86.4691 21.0611C86.2224 21.2898 86.0252 21.5667 85.8895 21.8745C85.7538 22.1824 85.6826 22.5148 85.6802 22.8512V29.4533H84.0871L84.0813 19.0306Z" fill="#465161"/>
<path d="M89.9031 24.2956C89.9031 21.0383 91.8041 18.893 94.6264 18.893C97.4487 18.893 99.3497 21.0383 99.3497 24.2956C99.3497 27.5529 97.4517 29.6714 94.6264 29.6714C91.8012 29.6714 89.9031 27.529 89.9031 24.2956ZM97.7479 24.2956C97.7479 22.2063 96.7711 20.3304 94.6258 20.3304C92.4805 20.3304 91.5038 22.2045 91.5038 24.2956C91.5038 26.3867 92.4805 28.2329 94.6258 28.2329C96.7711 28.2329 97.7397 26.3879 97.7397 24.2956H97.7479Z" fill="#465161"/>
<path d="M107.887 19.0306H109.48V29.4533H107.887V27.6905H107.778C107.509 28.2794 107.072 28.7748 106.52 29.1134C105.969 29.4521 105.329 29.6185 104.682 29.5915C102.728 29.5915 101.316 28.3145 101.316 25.6543V19.0306H102.908V25.5452C102.908 27.0666 103.858 28.0433 105.189 28.0433C105.555 28.0408 105.917 27.9641 106.252 27.8178C106.588 27.6715 106.891 27.4587 107.142 27.1922C107.393 26.9256 107.587 26.611 107.713 26.2671C107.839 25.9233 107.894 25.5575 107.875 25.1919L107.887 19.0306Z" fill="#465161"/>
<path d="M111.943 19.0277H113.49V20.6709H113.682C113.954 20.1108 114.385 19.6427 114.92 19.3243C115.456 19.0059 116.072 18.8511 116.695 18.879C119.328 18.879 121.147 20.9712 121.147 24.2548C121.147 27.5383 119.328 29.6574 116.722 29.6574C116.093 29.684 115.47 29.526 114.93 29.2028C114.389 28.8796 113.956 28.4054 113.682 27.8387H113.546V33.3608H111.953L111.943 19.0277ZM116.504 28.2293C118.513 28.2293 119.546 26.4666 119.546 24.2472C119.546 22.0278 118.54 20.3368 116.504 20.3368C114.55 20.3368 113.52 21.9112 113.52 24.2472C113.52 26.5832 114.576 28.2323 116.504 28.2323V28.2293Z" fill="#465161"/>
<path d="M31.3706 28.7524V15.4864H34.6466V18.9029C35.3885 18.2339 36.3582 17.8741 37.3569 17.897C40.1559 17.897 41.7933 19.5298 41.7933 23.509C41.7933 27.5284 39.4025 29.6708 36.242 29.6708C34.5785 29.6367 32.9323 29.3263 31.3706 28.7524ZM38.4718 23.509C38.4718 21.04 37.6199 20.7374 36.635 20.7374C35.8886 20.7416 35.174 21.0402 34.6466 21.5683V26.6124C35.0558 26.7499 35.4837 26.8242 35.9154 26.8328C37.3767 26.8304 38.4718 26.1534 38.4718 23.509Z" fill="#465161"/>
<path d="M59.6753 21.2395V29.4959H56.3976V22.1579C56.4235 21.9808 56.4083 21.8001 56.3532 21.6298C56.2981 21.4596 56.2046 21.3042 56.0798 21.1759C55.955 21.0476 55.8024 20.9497 55.6337 20.8899C55.4651 20.83 55.2849 20.8097 55.1071 20.8307C54.3814 20.8686 53.6795 21.1026 53.0761 21.5077V29.4965H49.8002V22.1579C49.8002 21.3613 49.5348 20.8307 48.6187 20.8307C47.8527 20.8691 47.1182 21.1478 46.5195 21.6272V29.4959H43.243V18.0801H46.1632L46.3597 19.142C47.3633 18.3457 48.6042 17.9075 49.8853 17.897C51.2125 17.897 52.0942 18.3349 52.5746 19.1216C53.6896 18.3401 55.0145 17.9133 56.376 17.897C58.67 17.897 59.6753 19.1875 59.6753 21.2395Z" fill="#465161"/>
<path d="M64.8394 22.32V29.4877H61.5634V15.4864H64.8394V18.0521L62.6014 19.0808C64.1414 19.4341 64.8394 20.6126 64.8394 22.3142" fill="#465161"/>
</svg>
