<svg width="182" height="48" viewBox="0 0 182 48" fill="none" xmlns="http://www.w3.org/2000/svg">
<path d="M68.3893 34.5925C69.9108 34.4567 71.1538 33.1457 71.1538 31.1827C71.1538 29.0431 69.5916 27.868 67.7508 27.868C67.6218 27.868 67.3704 27.868 67.3297 27.8884V34.3276L68.2602 34.6401L68.3893 34.5925ZM67.6489 27.4469C69.2791 27.4877 70.6919 26.5979 70.6919 24.5262C70.6919 22.6107 69.381 21.653 67.6897 21.653L67.3297 21.6734V27.4401H67.6489V27.4469ZM62.1946 34.6808L62.9554 34.5925C63.6346 34.4838 63.8656 34.3684 63.8656 34.1918V21.9654C63.8656 21.7888 63.7365 21.7413 62.7652 21.6326L62.215 21.5647L62.1539 21.1436H68.2806C72.424 21.1436 74.1764 22.0538 74.1764 24.3292C74.1764 26.0205 72.6142 26.9986 70.4338 27.379V27.4469C72.9742 27.6914 74.747 28.9412 74.747 31.0741C74.747 33.4989 72.9945 35.0612 68.5931 35.0612H62.1267L62.1878 34.6808H62.1946Z" fill="#465161"/>
<path d="M82.7889 30.3609C82.7889 27.7322 82.3677 26.4213 81.8176 25.8371C81.5459 25.5451 81.247 25.4568 80.8666 25.4568C79.5557 25.4568 78.8561 27.1956 78.8561 29.933C78.8561 32.6703 79.2568 33.8997 79.807 34.5246C80.0583 34.7895 80.4183 34.905 80.7987 34.905C82.0893 34.905 82.7821 33.0575 82.7821 30.3609M75.5618 30.1843C75.5618 27.2907 77.7625 24.9473 80.9685 24.9473C84.1745 24.9473 86.1239 27.3111 86.1239 30.0892C86.1239 33.0303 83.9436 35.3669 80.7172 35.3669C77.4908 35.3669 75.5618 33.0031 75.5618 30.1775" fill="#465161"/>
<path d="M92.0609 32.745L92.1899 29.6069C90.2473 30.1639 89.6496 30.9178 89.6496 31.991C89.6496 32.8809 90.1115 33.4378 90.879 33.4378C91.3884 33.4378 91.7892 33.0846 92.0609 32.745ZM92.1696 33.2341L92.1084 33.2137C91.1167 34.4363 90.2269 35.3261 89.0451 35.3261C87.7749 35.3261 86.7424 34.3276 86.7424 33.0574C86.7424 31.3186 88.2436 30.2726 92.1764 29.1586L92.1967 28.5337C92.2579 27.019 91.4767 25.8371 90.0639 25.8371C89.2828 25.8371 88.9432 26.0613 88.9432 26.2854C88.9432 26.4417 89.6156 27.019 89.6156 27.6643C89.6156 28.3571 89.0247 28.9752 88.2028 28.9752C87.4421 28.9752 86.8104 28.5541 86.8104 27.773C86.8104 26.1224 89.7447 24.9473 91.8639 24.9473C94.2956 24.9473 95.3484 26.0409 95.2669 28.5745L95.0971 32.4937C95.0563 33.3631 95.3688 33.6959 95.8375 33.6959C96.1363 33.6959 96.4691 33.3427 96.7476 33.0031L96.9582 33.2476C96.3469 34.0695 95.2669 35.3397 94.1258 35.3397C93.0865 35.3397 92.3258 34.6061 92.1832 33.2273" fill="#465161"/>
<path d="M96.8086 34.6808L97.0802 34.6604C97.6916 34.6129 97.9225 34.5518 97.9225 34.2801V28.4454C97.9225 27.0665 97.7527 26.8899 97.0327 26.6658L96.6116 26.5503L96.6319 26.2582L101.027 24.9677L100.986 28.262H101.047C101.726 26.1699 102.589 24.9405 103.9 24.9405C104.871 24.9405 105.591 25.5654 105.591 26.7201C105.591 27.4741 104.98 28.2824 104.178 28.2824C103.248 28.2824 102.786 27.6167 102.548 26.9035C101.957 27.0597 101.448 27.8137 100.986 29.4167V34.2733C100.986 34.4771 101.156 34.5857 102.045 34.6537L102.426 34.674L102.487 35.0544H96.7406L96.8018 34.674L96.8086 34.6808Z" fill="#465161"/>
<path d="M112.757 32.8537V27.3315C112.125 26.2379 111.317 25.5247 110.767 25.5247C109.605 25.5247 108.947 27.2635 108.947 29.668C108.947 32.0725 109.857 33.5872 111.208 33.5872C111.84 33.5872 112.309 33.2544 112.75 32.8537M112.757 33.4106L112.716 33.3631C111.956 34.4295 110.706 35.3669 109.463 35.3669C107.31 35.3669 105.639 33.2544 105.639 30.5103C105.639 26.9715 108.301 25.0288 111.025 25.0288C111.786 25.0288 112.336 25.1375 112.737 25.2937C112.737 25.2937 112.757 25.3413 112.757 25.2937V22.9368C112.757 21.8228 112.608 21.5783 112.037 21.4221L111.236 21.1775L111.276 20.9126L115.82 19.9753V32.6703C115.82 33.7639 115.95 34.0084 116.561 34.185L117.152 34.3412L117.111 34.6333L112.757 35.3872V33.4039V33.4106Z" fill="#465161"/>
<path d="M126.165 25.0152C126.165 22.8349 125.235 21.653 123.462 21.6055L122.742 21.653V28.1533C122.973 28.1737 123.251 28.262 123.543 28.262C125.065 28.262 126.165 26.9239 126.165 25.0085M117.607 34.6808L118.367 34.5925C119.04 34.4838 119.278 34.3684 119.278 34.1918V21.9655C119.278 21.7889 119.149 21.7209 118.177 21.6055L117.627 21.5172L117.566 21.1368H123.822C127.816 21.1368 129.887 22.2711 129.887 24.7028C129.887 27.2839 127.374 28.7307 123.652 28.7307C123.333 28.7307 123 28.7103 122.742 28.6628V34.2325C122.742 34.4091 122.85 34.4974 123.774 34.5857L124.555 34.674L124.617 35.0544H117.539L117.6 34.674L117.607 34.6808Z" fill="#465161"/>
<path d="M130.581 34.6808L130.852 34.6604C131.464 34.6129 131.694 34.5518 131.694 34.2801V28.4454C131.694 27.0665 131.525 26.8899 130.805 26.6658L130.384 26.5503L130.404 26.2582L134.799 24.9677L134.758 28.262H134.819C135.498 26.1699 136.361 24.9405 137.672 24.9405C138.643 24.9405 139.363 25.5654 139.363 26.7201C139.363 27.4741 138.752 28.2824 137.943 28.2824C137.013 28.2824 136.551 27.6167 136.32 26.9035C135.729 27.0597 135.22 27.8137 134.758 29.4167V34.2733C134.758 34.4771 134.928 34.5857 135.811 34.6537L136.191 34.674L136.252 35.0544H130.506L130.567 34.674L130.581 34.6808Z" fill="#465161"/>
<path d="M146.665 30.3609C146.665 27.7322 146.243 26.4213 145.693 25.8371C145.422 25.5451 145.123 25.4568 144.742 25.4568C143.431 25.4568 142.732 27.1956 142.732 29.933C142.732 32.6703 143.133 33.8997 143.683 34.5246C143.934 34.7895 144.294 34.905 144.674 34.905C145.965 34.905 146.658 33.0575 146.658 30.3609M139.438 30.1843C139.438 27.2907 141.638 24.9473 144.844 24.9473C148.05 24.9473 150 27.3111 150 30.0892C150 33.0303 147.819 35.3669 144.593 35.3669C141.367 35.3669 139.438 33.0031 139.438 30.1775" fill="#465161"/>
<path d="M50.0632 27.5352C50.0632 28.262 49.8866 29.1043 49.5878 29.7903C48.8406 31.5224 47.0949 33.5669 45.0233 33.9744C44.3916 34.0967 43.7531 33.9337 43.3252 33.5261C43.0738 33.2884 42.7886 32.8605 42.8633 32.1744C42.9244 31.5971 43.2233 30.9858 43.7463 30.3541C44.9893 28.8597 47.0542 27.936 50.0564 27.5352M56.842 27.8816C55.7009 25.742 53.1334 25.6809 51.2994 25.8235C51.1976 25.5722 51.0685 25.3481 50.9191 25.1443C50.3961 24.4515 49.5945 23.9692 48.5349 23.7043C47.9508 23.5549 47.3395 23.487 46.7281 23.4937C47.1968 22.7466 47.4006 21.9315 47.2987 21.1572C47.19 20.3557 46.7417 19.6425 46.0421 19.1398C45.2134 18.5489 44.147 18.3383 43.1893 18.5625C41.7969 18.8885 40.5403 20.0025 39.6505 21.6938C37.9999 24.8183 38.0339 28.5405 38.2444 31.4341C38.258 31.6446 38.3531 31.8348 38.5093 31.9775C38.6656 32.1133 38.8626 32.1744 39.0595 32.1608C39.4807 32.1269 39.7931 31.7465 39.7591 31.3186C39.5622 28.6424 39.5214 25.219 40.9818 22.4545C41.3757 21.7073 42.2316 20.41 43.5221 20.1043C44.0655 19.9753 44.6972 20.1043 45.1727 20.444C45.5191 20.6885 45.7365 21.0281 45.784 21.3881C45.8451 21.8364 45.6685 22.373 45.3018 22.8621C44.9214 23.3647 44.3712 23.7858 43.8414 24.1934C43.5289 24.4311 43.4406 24.8726 43.6376 25.219C43.8278 25.5654 44.2421 25.7081 44.5953 25.5518C45.7297 25.056 46.9999 24.9473 48.1681 25.2462C48.8134 25.4092 49.3025 25.6673 49.6217 26.0137C46.3546 26.4892 44.0519 27.576 42.5916 29.3352C41.8648 30.2114 41.4505 31.108 41.3486 32.0046C41.2399 33.0439 41.5727 34.0016 42.2927 34.6876C43.0738 35.4348 44.2014 35.7472 45.3085 35.5299C47.9304 35.0137 50.0428 32.5956 50.9734 30.4356C51.2858 29.702 51.6051 28.5405 51.5779 27.3926C52.9772 27.3043 54.8111 27.3654 55.4971 28.656C55.6466 28.9345 55.7009 29.308 55.6737 29.7971C55.4836 32.7518 53.0858 35.5774 50.7832 37.0718C48.4127 38.6068 45.5395 39.2249 42.8972 38.7699C42.7206 38.7427 42.544 38.7019 42.3674 38.668C39.4467 38.0159 36.9471 36.2295 35.3169 33.628C33.6935 31.0265 33.1434 27.936 33.775 24.9201C35.0792 18.6847 41.0497 14.7044 47.0814 16.0425C51.3742 17.0002 54.7432 20.4779 55.6737 24.9134C55.762 25.3345 56.1696 25.6062 56.5839 25.5179C56.9915 25.4228 57.2564 25.0017 57.1681 24.5805C56.1153 19.5474 52.2775 15.5942 47.4074 14.5074C40.5471 12.9859 33.7683 17.5029 32.2875 24.5941C30.8068 31.6786 35.1879 38.6883 42.0482 40.2098C42.2452 40.2574 42.4489 40.2981 42.6527 40.3321C43.3048 40.4476 43.9704 40.5019 44.6361 40.5019C47.0474 40.5019 49.4995 39.7751 51.5983 38.4166C54.03 36.834 56.9575 33.662 57.1952 29.9126C57.2428 29.1111 57.1273 28.459 56.8352 27.9088" fill="#465161"/>
</svg>
