<svg width="182" height="48" viewBox="0 0 182 48" fill="none" xmlns="http://www.w3.org/2000/svg">
<g clip-path="url(#clip0_194_336)">
<path fill-rule="evenodd" clip-rule="evenodd" d="M37.2242 17.1653C34.072 14.8786 27.6057 14.5211 28.1955 15.5013C29.8307 17.9817 28.9742 21.2077 30.9832 24.0588C28.3424 25.2264 24.3625 30.9969 25.0864 30.8783C27.0395 30.8002 30.3491 33.2091 33.815 32.9092C33.8209 36.4293 36.8332 39.2134 36.8381 40.8791C36.9115 41.4796 41.4348 38.0218 42.9021 34.8609C44.4359 35.7475 47.4862 35.3649 47.8907 35.8511C48.1585 35.8777 48.1699 32.4819 45.4433 32.2365C45.2476 32.2196 44.6716 32.1515 44.084 32.3443C43.6988 32.4737 42.7686 32.7783 41.8389 32.4136C41.5195 32.2618 41.2898 32.0322 41.159 31.7291C40.9225 31.0347 41.1276 30.3623 41.1385 30.1379C41.1567 29.1059 38.6773 29.4321 37.6888 28.7547C36.6277 28.1118 36.5962 26.5661 36.9078 25.8374C37.5186 24.4085 39.4389 23.8454 39.5944 23.1161C39.6981 22.3868 39.2279 22.2312 39.5425 21.502C39.7499 20.8764 40.6444 20.845 40.8512 20.514C41.2864 19.7885 41.5216 17.9592 43.0336 17.9592C44.0943 17.9592 45.3945 18.2388 45.9557 16.9928C45.982 14.8192 43.6484 13.7769 43.1837 11.1982C42.9799 10.0675 38.6915 14.0043 37.2242 17.1653Z" fill="#465161"/>
<path fill-rule="evenodd" clip-rule="evenodd" d="M46.9575 22.2587C47.3689 22.4732 47.0469 22.8568 47.3197 23.3275C47.5174 23.6688 48.1022 23.6085 48.2723 23.9849C48.5008 24.4905 47.977 25.0739 47.977 25.2997C47.977 25.6711 48.6265 25.8943 48.6265 26.2657C48.6265 26.7156 48.2525 26.7592 48.2025 27.1396C48.1442 27.5822 48.5227 27.8748 48.2223 28.2393C47.9458 28.4352 47.4402 28.2198 46.932 28.2198C46.4041 28.2198 46.3835 28.9523 45.8556 28.9523C45.6015 28.9523 45.4794 28.9758 45.1138 28.7672C44.7869 28.5763 45.231 27.2032 44.7228 26.4798C44.3709 25.991 43.5497 26.0496 43.5497 25.4436C43.5497 24.427 44.3295 24.5132 43.6948 22.9636C43.6713 21.989 44.8519 22.8901 45.119 22.9111C45.808 22.9653 46.1578 21.8417 46.9575 22.2587ZM44.9068 18.9957C44.745 18.9957 43.6829 18.964 43.5212 18.964C42.6317 18.964 42.5512 20.8197 42.3007 21.1837C42.05 21.5556 41.0531 21.5516 41.0531 22.2794C41.0531 23.1851 41.9377 23.6671 41.9377 24.4191C41.9377 25.1389 41.3121 25.3404 41.3121 26.3998C41.3121 27.5886 42.9389 26.5814 42.9389 28.1502C42.9389 28.312 42.6803 29.5734 42.6803 29.7351C42.6803 30.6165 42.7853 31.1261 44.0387 31.1261C44.2004 31.1261 45.753 30.8672 45.9148 30.8672C47.2248 30.8672 47.1632 31.9713 48.7644 31.9713C50.005 31.9713 49.9683 30.6175 50.1674 30.0981C50.6857 28.7469 52.0962 29.8871 52.6182 29.1578C52.9809 28.2693 51.9925 27.651 52.0962 27.0773C52.1998 26.1406 53.451 26.348 53.6066 25.6187C53.7583 24.9069 52.5146 24.5747 52.4109 24.0527C52.3018 23.5038 52.9291 22.6004 52.9291 22.4386C52.9291 20.789 50.702 21.681 50.702 20.4196C50.702 20.2578 50.8961 19.8373 50.8961 19.6756C50.8961 19.4007 50.6787 18.7712 50.2905 18.658C50.0398 18.5852 49.3616 18.6899 49.1271 18.5848C48.2861 18.2128 48.2424 17.3853 47.3576 17.3335C46.3983 17.2312 46.5806 18.9957 44.9068 18.9957Z" fill="#465161"/>
<mask id="mask0_194_336" style="mask-type:luminance" maskUnits="userSpaceOnUse" x="55" y="16" width="9" height="11">
<path d="M55.9999 16.0078H63.724V26.5219H55.9999V16.0078Z" fill="white"/>
</mask>
<g mask="url(#mask0_194_336)">
<path fill-rule="evenodd" clip-rule="evenodd" d="M63.4536 16.7224L62.7109 18.2143C62.3084 17.8118 61.6607 17.6108 60.7678 17.6108C59.9211 17.6108 59.2272 17.9656 58.6855 18.6762C58.1444 19.3864 57.8739 20.2854 57.8739 21.3722C57.8739 22.4595 58.1246 23.3224 58.6267 23.961C59.1287 24.5996 59.7982 24.9184 60.6358 24.9184C61.5937 24.9184 62.3429 24.5762 62.8845 23.8915L63.7241 25.3488C62.9886 26.1306 61.9104 26.5219 60.4901 26.5219C59.0693 26.5219 57.9657 26.0544 57.18 25.1199C56.3932 24.1854 55.9998 22.9103 55.9998 21.296C55.9998 19.7925 56.4363 18.5346 57.3084 17.524C58.18 16.5133 59.2967 16.0077 60.6566 16.0077C61.8226 16.0077 62.7546 16.2463 63.4536 16.7224Z" fill="#465161"/>
</g>
<path fill-rule="evenodd" clip-rule="evenodd" d="M69.1889 22.8505C68.8929 22.7906 68.6706 22.7601 68.5229 22.7601C67.1533 22.7601 66.4685 23.2089 66.4685 24.1069C66.4685 24.7728 66.8548 25.1058 67.6274 25.1058C68.6685 25.1058 69.1889 24.5855 69.1889 23.5444V22.8505ZM69.3553 25.6058C69.1985 25.8647 68.9244 26.0764 68.5335 26.2409C68.1416 26.4048 67.734 26.4871 67.3081 26.4871C66.5081 26.4871 65.8787 26.2871 65.4203 25.8865C64.9625 25.4865 64.7335 24.9185 64.7335 24.183C64.7335 23.3226 65.0564 22.6495 65.702 22.1632C66.3472 21.6774 67.2645 21.4348 68.4533 21.4348C68.6569 21.4348 68.8975 21.4693 69.1751 21.5388C69.1751 20.6642 68.6224 20.2272 67.5163 20.2272C66.864 20.2272 66.3183 20.3358 65.8787 20.5536L65.5036 19.2069C66.1005 18.92 66.8107 18.7769 67.634 18.7769C68.768 18.7769 69.5985 19.0343 70.1259 19.5505C70.6533 20.0667 70.9168 21.0434 70.9168 22.4825V24.0718C70.9168 25.0617 71.1163 25.6845 71.5137 25.9388C71.3706 26.1886 71.2107 26.3424 71.035 26.4003C70.8594 26.4581 70.6584 26.4871 70.431 26.4871C70.1812 26.4871 69.9574 26.3942 69.7579 26.2094C69.5589 26.0246 69.4249 25.8231 69.3553 25.6058Z" fill="#465161"/>
<path fill-rule="evenodd" clip-rule="evenodd" d="M77.7152 26.3483V22.0523C77.7152 21.4183 77.5934 20.9559 77.3502 20.6645C77.1076 20.3731 76.7106 20.227 76.1604 20.227C75.9061 20.227 75.634 20.299 75.3446 20.4422C75.0558 20.5853 74.8299 20.764 74.6685 20.9767V26.3483H72.9335V18.9153H74.1827L74.502 19.6097C74.9741 19.0544 75.67 18.7767 76.5908 18.7767C77.4741 18.7767 78.1715 19.0412 78.6827 19.5711C79.1944 20.1011 79.4502 20.8402 79.4502 21.7889V26.3483H77.7152Z" fill="#465161"/>
<path fill-rule="evenodd" clip-rule="evenodd" d="M87.3099 19.5054L86.5672 20.8033C86.1601 20.4191 85.6139 20.2272 84.9297 20.2272C84.2728 20.2272 83.753 20.446 83.3713 20.883C82.9896 21.3201 82.7987 21.9252 82.7987 22.6978C82.7987 24.2566 83.5413 25.0363 85.0266 25.0363C85.6698 25.0363 86.2368 24.8242 86.7271 24.3983L87.3652 25.7653C86.8611 26.08 86.42 26.279 86.0434 26.3622C85.6662 26.4455 85.221 26.4871 84.7073 26.4871C83.5596 26.4871 82.654 26.1531 81.9906 25.4841C81.3261 24.8155 80.9946 23.8871 80.9946 22.6978C80.9946 21.5272 81.3576 20.581 82.084 19.8592C82.8104 19.1374 83.8007 18.7764 85.0545 18.7764C85.9195 18.7764 86.6713 19.0196 87.3099 19.5054Z" fill="#465161"/>
<path fill-rule="evenodd" clip-rule="evenodd" d="M90.2836 21.8581H93.9339C93.8131 20.7708 93.2126 20.2271 92.1298 20.2271C91.1395 20.2271 90.5237 20.7708 90.2836 21.8581ZM95.5303 23.1626H90.2212C90.2527 23.755 90.4572 24.2154 90.8319 24.5439C91.2065 24.8723 91.7105 25.0368 92.3451 25.0368C93.1359 25.0368 93.7369 24.8307 94.1491 24.419L94.8222 25.7444C94.2116 26.2398 93.2994 26.487 92.0882 26.487C90.9537 26.487 90.0578 26.155 89.3984 25.4911C88.739 24.8276 88.41 23.9007 88.41 22.7119C88.41 21.5413 88.7715 20.5926 89.4953 19.8662C90.2197 19.1403 91.0887 18.7769 92.1019 18.7769C93.1796 18.7769 94.0451 19.0982 94.6973 19.7413C95.3496 20.3845 95.676 21.2033 95.676 22.1982C95.676 22.4109 95.6273 22.7327 95.5303 23.1626Z" fill="#465161"/>
<path fill-rule="evenodd" clip-rule="evenodd" d="M101.502 20.5325C101.192 20.329 100.852 20.227 100.481 20.227C100.079 20.227 99.7221 20.4102 99.4099 20.7757C99.0977 21.1407 98.9408 21.5874 98.9408 22.1148V26.3483H97.2058V18.9153H98.9408V19.5955C99.4266 19.0498 100.072 18.7767 100.877 18.7767C101.47 18.7767 101.923 18.8671 102.237 19.0473L101.502 20.5325Z" fill="#465161"/>
<mask id="mask1_194_336" style="mask-type:luminance" maskUnits="userSpaceOnUse" x="107" y="16" width="7" height="11">
<path d="M107.491 16.0078H113.647V26.5217H107.491V16.0078Z" fill="white"/>
</mask>
<g mask="url(#mask1_194_336)">
<path fill-rule="evenodd" clip-rule="evenodd" d="M107.491 25.7861L108.157 24.1688C108.87 24.6688 109.571 24.9186 110.26 24.9186C111.32 24.9186 111.85 24.5485 111.85 23.8084C111.85 23.4612 111.725 23.1308 111.475 22.8155C111.225 22.5008 110.71 22.1485 109.931 21.7572C109.151 21.3663 108.626 21.045 108.355 20.7927C108.085 20.5404 107.877 20.2409 107.731 19.8942C107.585 19.547 107.512 19.1628 107.512 18.7419C107.512 17.9551 107.8 17.3029 108.376 16.7851C108.952 16.2668 109.691 16.0074 110.593 16.0074C111.769 16.0074 112.632 16.2272 113.182 16.6668L112.634 18.2216C112 17.7678 111.332 17.5414 110.629 17.5414C110.212 17.5414 109.889 17.6516 109.66 17.8709C109.431 18.0907 109.317 18.3765 109.317 18.7282C109.317 19.311 109.962 19.9171 111.253 20.5465C111.933 20.8795 112.423 21.1856 112.724 21.4658C113.025 21.746 113.254 22.0724 113.411 22.4445C113.569 22.8166 113.647 23.2323 113.647 23.6902C113.647 24.5135 113.322 25.1917 112.672 25.7237C112.022 26.2556 111.151 26.5216 110.059 26.5216C109.111 26.5216 108.255 26.2765 107.491 25.7861Z" fill="#465161"/>
</g>
<path fill-rule="evenodd" clip-rule="evenodd" d="M116.6 22.6145C116.6 24.2526 117.19 25.0714 118.37 25.0714C118.911 25.0714 119.34 24.8587 119.657 24.4328C119.974 24.0069 120.133 23.4013 120.133 22.6145C120.133 20.9998 119.545 20.1927 118.37 20.1927C117.829 20.1927 117.398 20.4049 117.079 20.8308C116.76 21.2566 116.6 21.8511 116.6 22.6145ZM114.796 22.6145C114.796 21.481 115.123 20.5577 115.778 19.8455C116.433 19.1333 117.296 18.7764 118.37 18.7764C119.499 18.7764 120.375 19.1191 121 19.8039C121.625 20.4886 121.937 21.4252 121.937 22.6145C121.937 23.7988 121.619 24.7404 120.983 25.4389C120.347 26.1374 119.475 26.4871 118.37 26.4871C117.241 26.4871 116.363 26.1343 115.736 25.4287C115.109 24.7231 114.796 23.7851 114.796 22.6145Z" fill="#465161"/>
<path fill-rule="evenodd" clip-rule="evenodd" d="M129.297 19.5054L128.554 20.8033C128.147 20.4191 127.601 20.2272 126.916 20.2272C126.259 20.2272 125.74 20.446 125.358 20.883C124.977 21.3201 124.785 21.9252 124.785 22.6978C124.785 24.2566 125.528 25.0363 127.013 25.0363C127.657 25.0363 128.223 24.8242 128.714 24.3983L129.352 25.7653C128.848 26.08 128.407 26.279 128.031 26.3622C127.653 26.4455 127.208 26.4871 126.694 26.4871C125.547 26.4871 124.641 26.1531 123.977 25.4841C123.313 24.8155 122.981 23.8871 122.981 22.6978C122.981 21.5272 123.344 20.581 124.071 19.8592C124.798 19.1374 125.787 18.7764 127.041 18.7764C127.907 18.7764 128.658 19.0196 129.297 19.5054Z" fill="#465161"/>
<path fill-rule="evenodd" clip-rule="evenodd" d="M132.243 16.0354C132.52 16.0354 132.757 16.1333 132.954 16.3303C133.15 16.5273 133.249 16.7643 133.249 17.0415C133.249 17.3191 133.15 17.5562 132.954 17.7531C132.757 17.9496 132.52 18.0481 132.243 18.0481C131.965 18.0481 131.727 17.9496 131.531 17.7531C131.334 17.5562 131.236 17.3191 131.236 17.0415C131.236 16.7643 131.334 16.5273 131.531 16.3303C131.727 16.1333 131.965 16.0354 132.243 16.0354ZM131.347 26.3481V20.3384H130.396V18.9156H133.103V26.3481H131.347Z" fill="#465161"/>
<path fill-rule="evenodd" clip-rule="evenodd" d="M136.667 21.8581H140.317C140.197 20.7708 139.596 20.2271 138.513 20.2271C137.523 20.2271 136.908 20.7708 136.667 21.8581ZM141.914 23.1626H136.605C136.637 23.755 136.841 24.2154 137.215 24.5439C137.59 24.8723 138.095 25.0368 138.728 25.0368C139.519 25.0368 140.121 24.8307 140.532 24.419L141.206 25.7444C140.595 26.2398 139.684 26.487 138.472 26.487C137.338 26.487 136.442 26.155 135.783 25.4911C135.123 24.8276 134.793 23.9007 134.793 22.7119C134.793 21.5413 135.155 20.5926 135.88 19.8662C136.603 19.1403 137.472 18.7769 138.485 18.7769C139.563 18.7769 140.428 19.0982 141.081 19.7413C141.733 20.3845 142.059 21.2033 142.059 22.1982C142.059 22.4109 142.011 22.7327 141.914 23.1626Z" fill="#465161"/>
<path fill-rule="evenodd" clip-rule="evenodd" d="M143.854 20.3105H142.993V18.9155H143.854V17.4023L145.589 16.7643V18.9155H147.629V20.3105H145.589V23.5653C145.589 24.0973 145.672 24.4734 145.839 24.6932C146.005 24.9125 146.296 25.0226 146.713 25.0226C147.129 25.0226 147.518 24.9094 147.879 24.6825V26.279C147.477 26.4176 146.903 26.4871 146.158 26.4871C145.417 26.4871 144.848 26.278 144.451 25.8592C144.052 25.4399 143.854 24.845 143.854 24.0719V20.3105Z" fill="#465161"/>
<mask id="mask2_194_336" style="mask-type:luminance" maskUnits="userSpaceOnUse" x="148" y="18" width="8" height="12">
<path d="M148.479 18.9156H155.925V29.2631H148.479V18.9156Z" fill="white"/>
</mask>
<g mask="url(#mask2_194_336)">
<path fill-rule="evenodd" clip-rule="evenodd" d="M152.671 27.542C152.486 28.0374 152.089 28.4476 151.481 28.774C150.872 29.0998 150.164 29.2633 149.353 29.2633V27.7293C150.691 27.7293 151.359 27.3938 151.359 26.7232C151.359 26.279 151.174 25.5988 150.804 24.6826L148.479 18.9156H150.276L152.303 24.0511L154.128 18.9156H155.925L152.671 27.542Z" fill="#465161"/>
</g>
<path fill-rule="evenodd" clip-rule="evenodd" d="M55.9999 30.9003V31.5739H57.3586V35.1709H58.1163V31.5739H59.5357V30.9003H55.9999Z" fill="#465161"/>
<path fill-rule="evenodd" clip-rule="evenodd" d="M60.5708 33.2847H62.1041C62.0533 32.828 61.8011 32.5997 61.3464 32.5997C60.9305 32.5997 60.6718 32.828 60.5708 33.2847ZM62.7747 33.833H60.5444C60.5583 34.0818 60.6434 34.2748 60.8011 34.4131C60.9583 34.5509 61.1703 34.6201 61.4364 34.6201C61.7688 34.6201 62.0215 34.5335 62.1946 34.3604L62.4772 34.9171C62.2205 35.125 61.8379 35.229 61.3285 35.229C60.8523 35.229 60.4757 35.0897 60.1986 34.8106C59.9215 34.532 59.7837 34.143 59.7837 33.6435C59.7837 33.1514 59.9354 32.7534 60.2394 32.4479C60.5434 32.143 60.9091 31.9902 61.3344 31.9902C61.7872 31.9902 62.1509 32.1255 62.425 32.3957C62.6986 32.6658 62.8359 33.0096 62.8359 33.4275C62.8359 33.5171 62.8155 33.6519 62.7747 33.833Z" fill="#465161"/>
<path fill-rule="evenodd" clip-rule="evenodd" d="M67.6836 35.1709L66.4941 33.3519L66.0189 34.0017V35.1709H65.2612V30.9002H66.0189V32.9435L67.4707 30.9002H68.3339L66.9956 32.7659L68.5901 35.1709H67.6836Z" fill="#465161"/>
<path fill-rule="evenodd" clip-rule="evenodd" d="M70.5705 33.7016C70.4461 33.6767 70.3531 33.6638 70.2909 33.6638C69.7153 33.6638 69.4277 33.8523 69.4277 34.2295C69.4277 34.5091 69.5899 34.6489 69.9148 34.6489C70.3521 34.6489 70.5705 34.4305 70.5705 33.9931V33.7016ZM68.8974 31.629H71.0486V31.1011H68.8974V31.629ZM70.6406 34.8588C70.5745 34.9678 70.4591 35.0568 70.2949 35.1255C70.1307 35.1946 69.9591 35.229 69.7804 35.229C69.4441 35.229 69.1799 35.1449 68.9874 34.9767C68.7954 34.8091 68.6989 34.5703 68.6989 34.2613C68.6989 33.8996 68.8347 33.617 69.1058 33.413C69.377 33.2091 69.762 33.1071 70.2615 33.1071C70.3471 33.1071 70.4481 33.1215 70.5645 33.1509C70.5645 32.7832 70.3322 32.5996 69.868 32.5996C69.5939 32.5996 69.3645 32.6454 69.1799 32.7369L69.0227 32.1713C69.2735 32.0509 69.5715 31.9907 69.9178 31.9907C70.3939 31.9907 70.7426 32.0986 70.964 32.3155C71.1854 32.5324 71.2964 32.9429 71.2964 33.5469V34.2145C71.2964 34.6305 71.3799 34.8921 71.5471 34.9986C71.4869 35.1036 71.4197 35.1683 71.3461 35.1926C71.272 35.217 71.1874 35.229 71.0924 35.229C70.9874 35.229 70.8929 35.1902 70.8093 35.1125C70.7257 35.0349 70.6695 34.9504 70.6406 34.8588Z" fill="#465161"/>
<path fill-rule="evenodd" clip-rule="evenodd" d="M74.1046 35.1709V33.247C74.1046 33.0544 74.0444 32.9002 73.924 32.7833C73.8036 32.6669 73.6459 32.6087 73.4519 32.6087C73.331 32.6087 73.2096 32.641 73.0872 32.7062C72.9648 32.7714 72.8773 32.8455 72.825 32.9291V35.1709H72.0842V30.8858L72.825 30.7107V32.247C73.0136 32.0758 73.2728 31.9903 73.6031 31.9903C73.9937 31.9903 74.2972 32.0987 74.5126 32.3156C74.7285 32.5321 74.8365 32.8425 74.8365 33.247V35.1709H74.1046Z" fill="#465161"/>
<path fill-rule="evenodd" clip-rule="evenodd" d="M77.6349 35.1737V34.9116C77.5319 34.9986 77.3901 35.0737 77.2095 35.1359C77.0284 35.1981 76.8622 35.229 76.711 35.229C75.9861 35.229 75.6234 34.8444 75.6234 34.0747V32.0489H76.3523V34.0195C76.3523 34.4195 76.5319 34.62 76.8916 34.62C77.0567 34.62 77.21 34.5772 77.3523 34.4917C77.4941 34.4061 77.5881 34.3071 77.6349 34.1941V32.0489H78.3637V35.1737H77.6349Z" fill="#465161"/>
<path fill-rule="evenodd" clip-rule="evenodd" d="M79.722 30.839C79.8385 30.839 79.938 30.8803 80.0205 30.9629C80.1031 31.0454 80.1449 31.1449 80.1449 31.2619C80.1449 31.3783 80.1031 31.4778 80.0205 31.5604C79.938 31.643 79.8385 31.6842 79.722 31.6842C79.6056 31.6842 79.5051 31.643 79.4225 31.5604C79.3399 31.4778 79.2991 31.3783 79.2991 31.2619C79.2991 31.1449 79.3399 31.0454 79.4225 30.9629C79.5051 30.8803 79.6056 30.839 79.722 30.839ZM79.3459 35.1708V32.6464H78.9464V32.0489H80.0837V35.1708H79.3459Z" fill="#465161"/>
<path fill-rule="evenodd" clip-rule="evenodd" d="M86.7562 35.1737H86.0214L85.5786 32.8708L84.7184 35.229H84.4473L83.5876 32.8708L83.1269 35.1737H82.395L83.2552 30.9001H83.6572L84.5816 33.7772L85.4851 30.9001H85.8846L86.7562 35.1737Z" fill="#465161"/>
<path fill-rule="evenodd" clip-rule="evenodd" d="M88.8464 33.7016C88.722 33.6762 88.629 33.6638 88.5668 33.6638C87.9911 33.6638 87.7036 33.8524 87.7036 34.2295C87.7036 34.5091 87.8658 34.6489 88.1907 34.6489C88.628 34.6489 88.8464 34.4305 88.8464 33.9931V33.7016ZM88.9165 34.8588C88.8504 34.9678 88.7344 35.0568 88.5703 35.1255C88.4061 35.1946 88.2349 35.229 88.0563 35.229C87.72 35.229 87.4558 35.1449 87.2633 34.9767C87.0712 34.8091 86.9747 34.5703 86.9747 34.2613C86.9747 33.8996 87.1101 33.617 87.3812 33.413C87.6523 33.2091 88.0379 33.1071 88.5374 33.1071C88.623 33.1071 88.724 33.1215 88.8404 33.1509C88.8404 32.7832 88.6081 32.5996 88.1439 32.5996C87.8698 32.5996 87.6404 32.6454 87.4558 32.7369L87.2986 32.1713C87.5494 32.0509 87.8474 31.9907 88.1936 31.9907C88.6698 31.9907 89.0185 32.0986 89.2399 32.3155C89.4613 32.532 89.5722 32.9429 89.5722 33.5469V34.2145C89.5722 34.6305 89.6558 34.8922 89.823 34.9986C89.7628 35.1036 89.6956 35.1683 89.622 35.1927C89.5479 35.217 89.4633 35.229 89.3683 35.229C89.2633 35.229 89.1688 35.1902 89.0852 35.1126C89.0016 35.0349 88.9454 34.9504 88.9165 34.8588Z" fill="#465161"/>
<path fill-rule="evenodd" clip-rule="evenodd" d="M90.4701 32.6347H90.1084V32.0486H90.4701V31.4133L91.1989 31.1451V32.0486H92.0562V32.6347H91.1989V34.0019C91.1989 34.2252 91.2338 34.3835 91.3039 34.4755C91.3736 34.568 91.4965 34.6143 91.6711 34.6143C91.8462 34.6143 92.0094 34.5665 92.1606 34.471V35.1417C91.992 35.1999 91.7507 35.2292 91.4378 35.2292C91.1268 35.2292 90.888 35.1412 90.7208 34.9655C90.5537 34.7894 90.4701 34.5392 90.4701 34.2148V32.6347Z" fill="#465161"/>
<path fill-rule="evenodd" clip-rule="evenodd" d="M93.3094 33.2847H94.8427C94.792 32.828 94.5398 32.5997 94.085 32.5997C93.6691 32.5997 93.4104 32.828 93.3094 33.2847ZM95.5134 33.833H93.283C93.297 34.0818 93.382 34.2748 93.5397 34.4131C93.697 34.5509 93.9089 34.6201 94.1751 34.6201C94.5074 34.6201 94.7602 34.5335 94.9333 34.3604L95.2159 34.9171C94.9592 35.125 94.5766 35.229 94.0671 35.229C93.591 35.229 93.2144 35.0897 92.9373 34.8106C92.6601 34.532 92.5223 34.143 92.5223 33.6435C92.5223 33.1514 92.6741 32.7534 92.9781 32.4479C93.282 32.143 93.6477 31.9902 94.0731 31.9902C94.5258 31.9902 94.8895 32.1255 95.1636 32.3957C95.4373 32.6658 95.5746 33.0096 95.5746 33.4275C95.5746 33.5171 95.5542 33.6519 95.5134 33.833Z" fill="#465161"/>
<path fill-rule="evenodd" clip-rule="evenodd" d="M96.828 32.8125V34.4538C96.9603 34.5608 97.1145 34.614 97.2917 34.614C97.6275 34.614 97.8688 34.5339 98.0155 34.3737C98.1623 34.213 98.2359 33.9603 98.2359 33.614C98.2359 33.2448 98.1633 32.9851 98.0175 32.8344C97.8718 32.6837 97.6305 32.6085 97.2941 32.6085C97.1195 32.6085 96.9638 32.6767 96.828 32.8125ZM96.828 35.0921V36.3951H96.0991V32.0488H96.828V32.2588C97.0106 32.0797 97.2349 31.9906 97.5016 31.9906C98.4966 31.9906 98.9941 32.5384 98.9941 33.6344C98.9941 34.1458 98.8558 34.5394 98.5807 34.815C98.3061 35.0911 97.931 35.2289 97.4548 35.2289C97.2255 35.2289 97.0165 35.1837 96.828 35.0921Z" fill="#465161"/>
<path fill-rule="evenodd" clip-rule="evenodd" d="M101.647 35.1737V34.9116C101.544 34.9986 101.402 35.0737 101.221 35.1359C101.04 35.1981 100.874 35.229 100.723 35.229C99.9978 35.229 99.6351 34.8444 99.6351 34.0747V32.0489H100.364V34.0195C100.364 34.4195 100.544 34.62 100.903 34.62C101.068 34.62 101.222 34.5772 101.364 34.4917C101.506 34.4061 101.6 34.3071 101.647 34.1941V32.0489H102.375V35.1737H101.647Z" fill="#465161"/>
<path fill-rule="evenodd" clip-rule="evenodd" d="M105.159 35.1709L104.241 33.7569L103.891 34.1271V35.1709H103.162V30.8858L103.891 30.7107V33.247L104.932 32.049H105.809L104.754 33.2326L106.025 35.1709H105.159Z" fill="#465161"/>
<path fill-rule="evenodd" clip-rule="evenodd" d="M108.445 35.1737V34.9116C108.342 34.9986 108.2 35.0737 108.019 35.1359C107.838 35.1981 107.672 35.229 107.521 35.229C106.796 35.229 106.433 34.8444 106.433 34.0747V32.0489H107.162V34.0195C107.162 34.4195 107.342 34.62 107.701 34.62C107.867 34.62 108.02 34.5772 108.162 34.4917C108.304 34.4061 108.398 34.3071 108.445 34.1941V32.0489H109.174V35.1737H108.445Z" fill="#465161"/>
<path fill-rule="evenodd" clip-rule="evenodd" d="M110.631 32.8125V34.4538C110.763 34.5608 110.918 34.614 111.095 34.614C111.43 34.614 111.672 34.5339 111.819 34.3737C111.965 34.213 112.039 33.9603 112.039 33.614C112.039 33.2448 111.966 32.9851 111.821 32.8344C111.675 32.6837 111.433 32.6085 111.097 32.6085C110.922 32.6085 110.767 32.6767 110.631 32.8125ZM110.631 35.0921V36.3951H109.902V32.0488H110.631V32.2588C110.814 32.0797 111.038 31.9906 111.305 31.9906C112.3 31.9906 112.797 32.5384 112.797 33.6344C112.797 34.1458 112.659 34.5394 112.384 34.815C112.109 35.0911 111.734 35.2289 111.258 35.2289C111.028 35.2289 110.82 35.1837 110.631 35.0921Z" fill="#465161"/>
<path fill-rule="evenodd" clip-rule="evenodd" d="M115.45 35.1737V34.9116C115.347 34.9986 115.205 35.0737 115.024 35.1359C114.843 35.1981 114.677 35.229 114.526 35.229C113.801 35.229 113.438 34.8444 113.438 34.0747V32.0489H114.167V34.0195C114.167 34.4195 114.347 34.62 114.706 34.62C114.872 34.62 115.025 34.5772 115.167 34.4917C115.309 34.4061 115.403 34.3071 115.45 34.1941V32.0489H116.179V35.1737H115.45Z" fill="#465161"/>
<path fill-rule="evenodd" clip-rule="evenodd" d="M118.962 35.1709L118.044 33.7569L117.694 34.1271V35.1709H116.965V30.8858L117.694 30.7107V33.247L118.735 32.049H119.613L118.557 33.2326L119.828 35.1709H118.962Z" fill="#465161"/>
<path fill-rule="evenodd" clip-rule="evenodd" d="M122.248 35.1737V34.9116C122.145 34.9986 122.003 35.0737 121.822 35.1359C121.641 35.1981 121.475 35.229 121.324 35.229C120.599 35.229 120.236 34.8444 120.236 34.0747V32.0489H120.965V34.0195C120.965 34.4195 121.145 34.62 121.504 34.62C121.67 34.62 121.823 34.5772 121.965 34.4917C122.107 34.4061 122.201 34.3071 122.248 34.1941V32.0489H122.977V35.1737H122.248Z" fill="#465161"/>
<path fill-rule="evenodd" clip-rule="evenodd" d="M126.116 33.6025C126.116 34.2906 126.364 34.6344 126.859 34.6344C127.087 34.6344 127.267 34.5453 127.4 34.3662C127.533 34.1876 127.6 33.9329 127.6 33.6025C127.6 32.9244 127.353 32.5851 126.859 32.5851C126.632 32.5851 126.451 32.6746 126.317 32.8533C126.183 33.0324 126.116 33.2816 126.116 33.6025ZM125.358 33.6025C125.358 33.1264 125.495 32.7388 125.77 32.4393C126.045 32.1403 126.409 31.9906 126.859 31.9906C127.334 31.9906 127.702 32.1344 127.964 32.4219C128.227 32.7095 128.358 33.103 128.358 33.6025C128.358 34.1 128.224 34.4955 127.956 34.7891C127.689 35.0826 127.324 35.2294 126.859 35.2294C126.385 35.2294 126.016 35.0811 125.753 34.7846C125.489 34.4881 125.358 34.0941 125.358 33.6025Z" fill="#465161"/>
<path fill-rule="evenodd" clip-rule="evenodd" d="M132.229 32.1479L131.716 33.725H132.742L132.229 32.1479ZM133.276 35.1708L132.964 34.3051H131.5L131.203 35.1708H130.36L132.063 30.8419H132.395L134.112 35.1708H133.276Z" fill="#465161"/>
<path fill-rule="evenodd" clip-rule="evenodd" d="M135.074 33.6025C135.074 34.2906 135.322 34.6344 135.818 34.6344C136.045 34.6344 136.225 34.5453 136.358 34.3662C136.491 34.1876 136.558 33.9329 136.558 33.6025C136.558 32.9244 136.311 32.5851 135.818 32.5851C135.59 32.5851 135.41 32.6746 135.275 32.8533C135.141 33.0324 135.074 33.2816 135.074 33.6025ZM134.317 33.6025C134.317 33.1264 134.453 32.7388 134.728 32.4393C135.003 32.1403 135.367 31.9906 135.818 31.9906C136.292 31.9906 136.66 32.1344 136.923 32.4219C137.185 32.7095 137.316 33.103 137.316 33.6025C137.316 34.1 137.182 34.4955 136.915 34.7891C136.647 35.0826 136.282 35.2294 135.818 35.2294C135.343 35.2294 134.974 35.0811 134.711 34.7846C134.447 34.4881 134.317 34.0941 134.317 33.6025Z" fill="#465161"/>
<path fill-rule="evenodd" clip-rule="evenodd" d="M138.01 32.6347H137.648V32.0486H138.01V31.4133L138.738 31.1451V32.0486H139.596V32.6347H138.738V34.0019C138.738 34.2252 138.773 34.3835 138.843 34.4755C138.913 34.568 139.036 34.6143 139.211 34.6143C139.386 34.6143 139.549 34.5665 139.7 34.471V35.1417C139.532 35.1999 139.29 35.2292 138.977 35.2292C138.666 35.2292 138.428 35.1412 138.26 34.9655C138.093 34.7894 138.01 34.5392 138.01 34.2148V32.6347Z" fill="#465161"/>
<path fill-rule="evenodd" clip-rule="evenodd" d="M140.849 33.2847H142.382C142.332 32.828 142.079 32.5997 141.625 32.5997C141.209 32.5997 140.95 32.828 140.849 33.2847ZM143.053 33.833H140.823C140.837 34.0818 140.922 34.2748 141.079 34.4131C141.237 34.5509 141.449 34.6201 141.715 34.6201C142.047 34.6201 142.3 34.5335 142.473 34.3604L142.756 34.9171C142.499 35.125 142.116 35.229 141.607 35.229C141.131 35.229 140.754 35.0897 140.477 34.8106C140.2 34.532 140.062 34.143 140.062 33.6435C140.062 33.1514 140.214 32.7534 140.518 32.4479C140.822 32.143 141.187 31.9902 141.613 31.9902C142.065 31.9902 142.429 32.1255 142.703 32.3957C142.977 32.6658 143.114 33.0096 143.114 33.4275C143.114 33.5171 143.094 33.6519 143.053 33.833Z" fill="#465161"/>
<path fill-rule="evenodd" clip-rule="evenodd" d="M145.365 33.7016C145.24 33.6762 145.147 33.6638 145.085 33.6638C144.509 33.6638 144.222 33.8524 144.222 34.2295C144.222 34.5091 144.384 34.6489 144.709 34.6489C145.146 34.6489 145.365 34.4305 145.365 33.9931V33.7016ZM145.435 34.8588C145.369 34.9678 145.253 35.0568 145.088 35.1255C144.924 35.1946 144.753 35.229 144.575 35.229C144.238 35.229 143.974 35.1449 143.781 34.9767C143.589 34.8091 143.493 34.5703 143.493 34.2613C143.493 33.8996 143.628 33.617 143.899 33.413C144.171 33.2091 144.556 33.1071 145.056 33.1071C145.141 33.1071 145.242 33.1215 145.359 33.1509C145.359 32.7832 145.126 32.5996 144.662 32.5996C144.388 32.5996 144.159 32.6454 143.974 32.7369L143.817 32.1713C144.068 32.0509 144.366 31.9907 144.712 31.9907C145.188 31.9907 145.537 32.0986 145.758 32.3155C145.979 32.532 146.09 32.9429 146.09 33.5469V34.2145C146.09 34.6305 146.174 34.8922 146.341 34.9986C146.281 35.1036 146.214 35.1683 146.14 35.1927C146.066 35.217 145.981 35.229 145.886 35.229C145.781 35.229 145.687 35.1902 145.603 35.1126C145.52 35.0349 145.464 34.9504 145.435 34.8588Z" fill="#465161"/>
<path fill-rule="evenodd" clip-rule="evenodd" d="M148.682 32.728C148.552 32.6424 148.409 32.5996 148.254 32.5996C148.084 32.5996 147.934 32.6762 147.802 32.83C147.671 32.9837 147.606 33.1713 147.606 33.3927V35.1708H146.877V32.0489H147.606V32.3344C147.81 32.1051 148.081 31.9907 148.42 31.9907C148.668 31.9907 148.859 32.0285 148.991 32.1041L148.682 32.728Z" fill="#465161"/>
<path fill-rule="evenodd" clip-rule="evenodd" d="M149.982 33.6025C149.982 34.2906 150.23 34.6344 150.725 34.6344C150.953 34.6344 151.133 34.5453 151.266 34.3662C151.399 34.1876 151.466 33.9329 151.466 33.6025C151.466 32.9244 151.219 32.5851 150.725 32.5851C150.498 32.5851 150.317 32.6746 150.183 32.8533C150.049 33.0324 149.982 33.2816 149.982 33.6025ZM149.224 33.6025C149.224 33.1264 149.361 32.7388 149.636 32.4393C149.911 32.1403 150.275 31.9906 150.725 31.9906C151.199 31.9906 151.568 32.1344 151.83 32.4219C152.093 32.7095 152.224 33.103 152.224 33.6025C152.224 34.1 152.09 34.4955 151.822 34.7891C151.555 35.0826 151.19 35.2294 150.725 35.2294C150.251 35.2294 149.882 35.0811 149.619 34.7846C149.355 34.4881 149.224 34.0941 149.224 33.6025Z" fill="#465161"/>
<mask id="mask3_194_336" style="mask-type:luminance" maskUnits="userSpaceOnUse" x="152" y="31" width="4" height="5">
<path d="M152.603 31.9907H155.451V35.229H152.603V31.9907Z" fill="white"/>
</mask>
<g mask="url(#mask3_194_336)">
<path fill-rule="evenodd" clip-rule="evenodd" d="M154.474 33.7016C154.35 33.6762 154.257 33.6638 154.195 33.6638C153.619 33.6638 153.332 33.8524 153.332 34.2295C153.332 34.5091 153.494 34.6489 153.819 34.6489C154.256 34.6489 154.474 34.4305 154.474 33.9931V33.7016ZM154.544 34.8588C154.478 34.9678 154.362 35.0568 154.198 35.1255C154.034 35.1946 153.863 35.229 153.684 35.229C153.348 35.229 153.084 35.1449 152.891 34.9767C152.699 34.8091 152.603 34.5703 152.603 34.2613C152.603 33.8996 152.738 33.617 153.009 33.413C153.28 33.2091 153.666 33.1071 154.165 33.1071C154.251 33.1071 154.352 33.1215 154.468 33.1509C154.468 32.7832 154.236 32.5996 153.772 32.5996C153.498 32.5996 153.268 32.6454 153.084 32.7369L152.927 32.1713C153.177 32.0509 153.475 31.9907 153.822 31.9907C154.298 31.9907 154.646 32.0986 154.868 32.3155C155.089 32.532 155.2 32.9429 155.2 33.5469V34.2145C155.2 34.6305 155.284 34.8922 155.451 34.9986C155.391 35.1036 155.324 35.1683 155.25 35.1927C155.176 35.217 155.091 35.229 154.996 35.229C154.891 35.229 154.797 35.1902 154.713 35.1126C154.63 35.0349 154.573 34.9504 154.544 34.8588Z" fill="#465161"/>
</g>
</g>
<defs>
<clipPath id="clip0_194_336">
<rect width="131" height="30" fill="white" transform="translate(24.9999 11)"/>
</clipPath>
</defs>
</svg>
