<svg width="182" height="48" viewBox="0 0 182 48" fill="none" xmlns="http://www.w3.org/2000/svg">
<g clip-path="url(#clip0_133_40414)">
<path d="M139.958 31.8556C139.958 30.2676 141.275 28.9507 142.863 28.9507C144.451 28.9507 145.768 30.2676 145.768 31.8556C145.768 33.4436 144.451 34.7605 142.863 34.7605C141.275 34.7605 139.958 33.4436 139.958 31.8556Z" fill="#465161"/>
<path fill-rule="evenodd" clip-rule="evenodd" d="M75.3521 14.2324H70.2781V34.4507H75.3521V14.2324ZM52.6549 23.9536C52.6549 27.3233 51.7641 29.8797 49.9437 31.7001C48.1232 33.5205 45.6056 34.4114 42.3134 34.4114H36V14.2705H42.8169C45.9542 14.2705 48.3944 15.0839 50.1373 16.7494C51.8028 18.4536 52.6549 20.8163 52.6549 23.9536ZM47.1549 24.1473C47.1549 22.2881 46.8063 20.9325 46.0704 20.0416C45.3732 19.1508 44.2887 18.7247 42.8169 18.7247H41.2676V29.9959H42.4683C44.0951 29.9959 45.257 29.5311 46.0317 28.5628C46.7676 27.5557 47.1549 26.1226 47.1549 24.1473ZM89.993 32.6303C91.2711 31.2747 91.9296 29.3381 91.9296 26.8979C91.9296 25.3099 91.6197 23.9543 91.0387 22.831C90.419 21.6303 89.6056 20.7395 88.4824 20.1198C87.3592 19.5 86.081 19.1902 84.6479 19.1902C82.324 19.1902 80.5035 19.8486 79.2254 21.2043C77.9472 22.5599 77.2887 24.4578 77.2887 26.8979C77.2887 29.2993 77.9472 31.1972 79.2641 32.5916C80.581 33.9859 82.3627 34.6831 84.5704 34.6831C86.8944 34.6831 88.7148 33.9859 89.993 32.6303ZM82.9437 29.8416C82.5951 29.1831 82.4402 28.1761 82.4402 26.8979C82.4402 25.6198 82.5951 24.6514 82.9824 23.993C83.331 23.3345 83.8732 23.0247 84.6479 23.0247C85.4225 23.0247 86.0035 23.3345 86.3134 23.993C86.662 24.6514 86.8169 25.6198 86.8169 26.8979C86.8169 28.1761 86.6232 29.1831 86.3134 29.8416C86.0035 30.5 85.4225 30.8486 84.6479 30.8486C83.8345 30.8486 83.2923 30.5 82.9437 29.8416ZM99.0176 19.4226H93.9436V34.4507H99.0176V19.4226ZM93.9436 14.2324H99.0176V17.6021H93.9436V14.2324ZM109.243 30.6162C109.94 30.6162 110.753 30.4613 111.683 30.1127V33.9085C110.986 34.2183 110.366 34.412 109.746 34.5669C109.127 34.6831 108.391 34.7606 107.577 34.7606C105.873 34.7606 104.673 34.3345 103.898 33.4824C103.162 32.6303 102.775 31.3134 102.775 29.5704V23.3732H100.993V19.5H102.775V15.6655L107.887 14.7746V19.4225H111.102V23.2958H107.887V29.1444C107.887 30.1127 108.313 30.6162 109.243 30.6162ZM123.38 30.1127C122.451 30.4613 121.637 30.6162 120.94 30.6162C120.049 30.6162 119.585 30.1127 119.585 29.1444V23.2958H122.799V19.4225H119.585V14.8134L114.472 15.6268V19.5H112.69V23.3733H114.472V29.5704C114.472 31.3134 114.859 32.6303 115.595 33.4824C116.37 34.3345 117.57 34.7606 119.275 34.7606C120.088 34.7606 120.824 34.6831 121.444 34.5669C122.063 34.412 122.683 34.2183 123.38 33.9085V30.1127ZM136.898 20.9331C135.697 19.7711 133.993 19.1514 131.785 19.1514C129.461 19.1514 127.68 19.8099 126.44 21.2042C125.201 22.5599 124.581 24.4965 124.581 27.0528C124.581 29.493 125.239 31.3909 126.595 32.7465C127.951 34.0634 129.849 34.7219 132.289 34.7219C133.451 34.7219 134.458 34.6444 135.31 34.4895C136.162 34.3345 136.975 34.0634 137.75 33.6373L136.975 30.2676C136.394 30.5 135.852 30.6937 135.349 30.8099C134.613 30.9648 133.799 31.081 132.908 31.081C131.94 31.081 131.165 30.8486 130.584 30.3838C130.003 29.919 129.732 29.2606 129.694 28.4085H138.718V26.0071C138.718 23.7993 138.099 22.0951 136.898 20.9331ZM129.771 25.0775C129.849 24.2641 130.081 23.6444 130.468 23.2571C130.856 22.8697 131.359 22.6761 131.979 22.6761C132.637 22.6761 133.141 22.9085 133.528 23.3345C133.915 23.7606 134.109 24.3416 134.148 25.0775H129.771ZM61.4084 19.1514C63.6162 19.1514 65.3204 19.7711 66.5211 20.9331C67.7218 22.0951 68.3028 23.7993 68.3415 26.0071V28.4085H59.3169C59.3556 29.2606 59.6267 29.919 60.2077 30.3838C60.7887 30.8486 61.5634 31.081 62.5317 31.081C63.4225 31.081 64.2359 30.9648 64.9718 30.8099C65.4753 30.6937 66.0176 30.5 66.5986 30.2676L67.3732 33.6373C66.5986 34.0634 65.7852 34.3345 64.9331 34.4895C64.081 34.6444 63.0739 34.7219 61.912 34.7219C59.4718 34.7219 57.5739 34.0634 56.2183 32.7465C54.8627 31.3909 54.2042 29.493 54.2042 27.0528C54.2042 24.4965 54.8239 22.5599 56.0634 21.2042C57.3028 19.8099 59.0845 19.1514 61.4084 19.1514ZM60.0528 23.2571C59.6655 23.6444 59.4331 24.2641 59.3556 25.0775H63.7324C63.6936 24.3416 63.5 23.7606 63.1127 23.3345C62.7253 22.9085 62.2218 22.6761 61.5634 22.6761C60.9436 22.6761 60.4401 22.8697 60.0528 23.2571Z" fill="#465161"/>
</g>
<defs>
<clipPath id="clip0_133_40414">
<rect width="110" height="20.9155" fill="white" transform="translate(36 14)"/>
</clipPath>
</defs>
</svg>
