<svg width="182" height="48" viewBox="0 0 182 48" fill="none" xmlns="http://www.w3.org/2000/svg">
<path fill-rule="evenodd" clip-rule="evenodd" d="M53 24.7375C53.6046 17.2236 61.809 13.4235 66.4719 11.092C84.4344 3.40653 108.701 4.01118 108.701 4.01118C108.701 4.01118 88.8242 4.91554 75.1788 12.17C68.962 15.8824 64.6709 19.7332 64.1781 25.2511C63.8017 29.4589 67.1838 33.7428 73.6476 37.6509C83.1679 43.4073 96.9778 45.1166 96.9778 45.1166C96.9778 45.1166 80.6141 43.9626 69.4086 39.7639C67.9861 39.2307 53.0865 34.5828 53 24.7375Z" fill="#465161"/>
<path fill-rule="evenodd" clip-rule="evenodd" d="M82.4246 16.8341H79.1621V18.7514H82.4246V20.3286H79.1621V23.8616H77.0179V15.2568H82.4246V16.8341Z" fill="#465161"/>
<path fill-rule="evenodd" clip-rule="evenodd" d="M83.0027 23.8648H84.8322V18.0485H83.0027V23.8648ZM84.9206 16.1559C84.9206 16.7105 84.4649 17.165 83.9116 17.165C83.3551 17.165 82.9012 16.7105 82.9012 16.1559C82.9012 15.6007 83.3551 15.1462 83.9116 15.1462C84.4649 15.1462 84.9206 15.6007 84.9206 16.1559Z" fill="#465161"/>
<path fill-rule="evenodd" clip-rule="evenodd" d="M87.3153 19.7104H87.34C87.8828 18.4992 88.4888 17.9316 89.1949 17.9316C89.5602 17.9316 89.8756 18.0701 90.4054 18.4615L89.9016 20.0758C89.4211 19.7735 89.1064 19.6473 88.8165 19.6473C88.1468 19.6473 87.7177 20.278 87.3153 21.3507V23.861H85.4857V18.0454H87.3153V19.7104Z" fill="#465161"/>
<path fill-rule="evenodd" clip-rule="evenodd" d="M94.8073 19.6597C94.0128 19.1675 93.2306 19.0167 92.8652 19.0167C92.6247 19.0167 92.2086 19.0674 92.2086 19.4705C92.2086 20.1142 95.0979 20.1389 95.0979 22.0822C95.0979 23.2934 94.2397 23.9741 92.7261 23.9741C91.7918 23.9741 90.8966 23.6848 90.645 23.5463V22.259C91.2379 22.5106 91.8296 22.7505 92.5246 22.7505C93.0668 22.7505 93.4068 22.5867 93.4068 22.3221C93.4068 21.4762 90.5182 21.6277 90.5182 19.7228C90.5182 18.6507 91.4889 17.9316 92.927 17.9316C93.6604 17.9316 94.202 18.0571 94.8073 18.3607V19.6597Z" fill="#465161"/>
<path fill-rule="evenodd" clip-rule="evenodd" d="M100.119 19.2931H97.9987V21.6903C97.9987 22.2579 98.3271 22.6239 98.8946 22.6239C99.2737 22.6239 99.6261 22.5355 100.119 22.2832V23.6082C99.4759 23.8728 98.9954 23.9749 98.4278 23.9749C97.2166 23.9749 96.1698 23.419 96.1698 21.791V19.2931H95.3376V18.9395L97.7725 16.2147H97.9987V18.0442H100.119V19.2931Z" fill="#465161"/>
<path fill-rule="evenodd" clip-rule="evenodd" d="M110.077 23.1197C108.982 23.738 108.151 23.9773 106.989 23.9773C103.934 23.9773 102.413 21.8071 102.413 19.5868C102.413 17.2905 104.131 15.1462 107.138 15.1462C108.233 15.1462 109.213 15.3985 109.984 15.903V17.821C109.12 17.2905 108.244 16.9368 107.276 16.9368C105.605 16.9368 104.43 18.0232 104.43 19.5491C104.43 21.088 105.594 22.1855 107.23 22.1855C108.255 22.1855 108.947 21.8324 110.077 21.2395V23.1197Z" fill="#465161"/>
<path fill-rule="evenodd" clip-rule="evenodd" d="M110.667 23.8625H112.496V15.2583H110.667V23.8625Z" fill="#465161"/>
<path fill-rule="evenodd" clip-rule="evenodd" d="M116.398 21.0471C115.313 21.4392 114.794 21.6908 114.794 22.272C114.794 22.6114 115.059 22.8897 115.387 22.8897C115.729 22.8897 116.094 22.7252 116.398 22.4482V21.0471ZM119.223 23.4442C118.718 23.7479 118 23.9748 117.507 23.9748C116.902 23.9748 116.612 23.7856 116.485 23.3188C115.779 23.7986 115.198 23.9748 114.568 23.9748C113.635 23.9748 112.94 23.2811 112.94 22.549C112.94 21.1616 113.962 20.8839 116.398 20.1265C116.434 19.5843 116.183 19.1558 115.387 19.1558C114.655 19.1558 113.824 19.5336 113.243 20.1265V18.6376C114 18.1708 114.844 17.9316 115.766 17.9316C117.229 17.9316 118.226 18.4237 118.226 19.6981V22.3468C118.226 22.6368 118.339 22.7512 118.528 22.7512C118.656 22.7512 118.794 22.7252 119.223 22.4235V23.4442Z" fill="#465161"/>
<path fill-rule="evenodd" clip-rule="evenodd" d="M123.823 19.6597C123.029 19.1675 122.246 19.0167 121.88 19.0167C121.641 19.0167 121.224 19.0674 121.224 19.4705C121.224 20.1142 124.113 20.1389 124.113 22.0822C124.113 23.2934 123.255 23.9741 121.741 23.9741C120.808 23.9741 119.912 23.6848 119.659 23.5463V22.259C120.253 22.5106 120.846 22.7505 121.54 22.7505C122.083 22.7505 122.423 22.5867 122.423 22.3221C122.423 21.4762 119.534 21.6277 119.534 19.7228C119.534 18.6507 120.505 17.9316 121.943 17.9316C122.676 17.9316 123.218 18.0571 123.823 18.3607V19.6597Z" fill="#465161"/>
<path fill-rule="evenodd" clip-rule="evenodd" d="M128.688 19.6597C127.892 19.1675 127.11 19.0167 126.745 19.0167C126.506 19.0167 126.088 19.0674 126.088 19.4705C126.088 20.1142 128.978 20.1389 128.978 22.0822C128.978 23.2934 128.119 23.9741 126.606 23.9741C125.672 23.9741 124.776 23.6848 124.525 23.5463V22.259C125.118 22.5106 125.709 22.7505 126.404 22.7505C126.946 22.7505 127.287 22.5867 127.287 22.3221C127.287 21.4762 124.398 21.6277 124.398 19.7228C124.398 18.6507 125.37 17.9316 126.807 17.9316C127.539 17.9316 128.082 18.0571 128.688 18.3607V19.6597Z" fill="#465161"/>
<path fill-rule="evenodd" clip-rule="evenodd" d="M83.6213 27.9616L82.3594 31.306H85.0081L83.6213 27.9616ZM88.6548 34.5093H86.3461L85.6394 32.8059H81.7918L81.1468 34.5093H78.8771L82.3464 25.9045H84.8319L88.6548 34.5093Z" fill="#465161"/>
<path fill-rule="evenodd" clip-rule="evenodd" d="M93.4181 34.2319C92.6867 34.4965 92.0684 34.6233 91.4501 34.6233C89.406 34.6233 88.0817 33.4374 88.0817 31.6202C88.0817 29.8414 89.4561 28.5795 91.3734 28.5795C91.967 28.5795 92.7244 28.731 93.3291 28.9585V30.3206C92.8506 30.0677 92.2947 29.9298 91.8409 29.9298C90.7441 29.9298 90.0373 30.5852 90.0373 31.6072C90.0373 32.6423 90.731 33.3243 91.7784 33.3243C92.2193 33.3243 92.6106 33.2222 93.4181 32.9193V34.2319Z" fill="#465161"/>
<path fill-rule="evenodd" clip-rule="evenodd" d="M98.952 34.2319C98.2206 34.4965 97.6023 34.6233 96.9827 34.6233C94.9399 34.6233 93.6149 33.4374 93.6149 31.6202C93.6149 29.8414 94.9899 28.5795 96.9079 28.5795C97.5008 28.5795 98.2583 28.731 98.8623 28.9585V30.3206C98.3838 30.0677 97.8285 29.9298 97.3734 29.9298C96.2779 29.9298 95.5705 30.5852 95.5705 31.6072C95.5705 32.6423 96.2636 33.3243 97.3117 33.3243C97.7525 33.3243 98.1439 33.2222 98.952 32.9193V34.2319Z" fill="#465161"/>
<path fill-rule="evenodd" clip-rule="evenodd" d="M102.41 29.6646C101.616 29.6646 101.072 30.2829 101.072 31.5955C101.072 33.0961 101.716 33.5382 102.41 33.5382C103.268 33.5382 103.723 32.8315 103.723 31.5578C103.723 30.4207 103.331 29.6646 102.41 29.6646ZM102.41 34.6233C100.505 34.6233 99.118 33.4244 99.118 31.5955C99.118 29.6145 100.694 28.5795 102.41 28.5795C103.836 28.5795 105.677 29.3753 105.677 31.6072C105.677 33.9159 103.697 34.6233 102.41 34.6233Z" fill="#465161"/>
<path fill-rule="evenodd" clip-rule="evenodd" d="M110.313 33.6756C109.733 34.3434 109.166 34.6223 108.433 34.6223C107.285 34.6223 106.3 33.9142 106.3 32.4143V28.6922H108.131V32.2869C108.131 33.1081 108.571 33.398 109.052 33.398C109.606 33.398 110.111 32.9683 110.301 32.4013V28.6922H112.142V34.5078H110.313V33.6756Z" fill="#465161"/>
<path fill-rule="evenodd" clip-rule="evenodd" d="M114.711 29.5254C115.292 28.8577 115.86 28.5795 116.604 28.5795C117.514 28.5795 118.723 29.0963 118.723 30.8128V34.5089H116.894V30.9636C116.894 30.1437 116.503 29.8037 115.986 29.8037C115.532 29.8037 115.192 30.0423 114.711 30.7614V34.5089H112.882V28.6939H114.711V29.5254Z" fill="#465161"/>
<path fill-rule="evenodd" clip-rule="evenodd" d="M123.987 29.9425H121.867V32.339C121.867 32.9072 122.195 33.2732 122.763 33.2732C123.142 33.2732 123.495 33.1848 123.987 32.9319V34.2576C123.344 34.5215 122.864 34.6236 122.297 34.6236C121.085 34.6236 120.038 34.069 120.038 32.4404V29.9425H119.206V29.5882L121.641 26.864H121.867V28.6929H123.987V29.9425Z" fill="#465161"/>
<path fill-rule="evenodd" clip-rule="evenodd" d="M128.68 30.3076C127.885 29.8154 127.102 29.6652 126.738 29.6652C126.498 29.6652 126.081 29.7146 126.081 30.1184C126.081 30.762 128.97 30.7874 128.97 32.7307C128.97 33.9413 128.113 34.6233 126.6 34.6233C125.665 34.6233 124.769 34.3333 124.518 34.1949V32.9063C125.11 33.1598 125.702 33.3991 126.397 33.3991C126.94 33.3991 127.28 33.2359 127.28 32.9706C127.28 32.1248 124.39 32.2763 124.39 30.3719C124.39 29.2979 125.362 28.5795 126.801 28.5795C127.533 28.5795 128.075 28.7049 128.68 29.0092V30.3076Z" fill="#465161"/>
</svg>
