<svg width="182" height="48" viewBox="0 0 182 48" fill="none" xmlns="http://www.w3.org/2000/svg">
<g clip-path="url(#clip0_316_13395)">
<path d="M66.909 33.4043C66.909 30.7293 65.847 29.0678 63.51 29.0678C61.5835 29.0678 60.111 30.2713 59.4105 32.4173H59.243C59.049 30.4913 57.9645 29.0678 55.8925 29.0678C53.8205 29.0678 52.397 30.3458 51.7485 32.5363H51.577C51.1445 31.0798 50.347 29.8388 48.998 29.3808C48.633 29.2578 48.2305 29.1873 47.783 29.1873H45.298V31.9293H48.447V41.4518H51.7975V35.3083C51.805 34.9173 51.8495 34.5633 51.924 34.2428C52.278 32.6708 53.3215 31.8883 54.4025 31.8883C55.4835 31.8883 56.0425 32.3688 56.0425 34.3213V41.4523H59.393V35.1633C59.635 32.7303 60.8875 31.8848 62.069 31.8848C63.2505 31.8848 63.541 32.7043 63.541 34.3178V38.3043C63.541 40.2193 64.7785 41.5458 66.9135 41.6538V33.4018L66.91 33.4053L66.909 33.4043ZM85.6845 38.7988L92.0125 31.9698V29.3543H82.308V31.8618H88.7215L82.058 38.9928V41.4293H92.1575V38.7988H85.684H85.6845ZM101.363 36.9773V35.1143C101.035 35.4163 100.637 35.5353 99.768 35.7998C98.1245 36.2578 97.2785 36.6863 97.2785 37.7743C97.2785 38.7393 97.957 39.2718 98.7545 39.2718C99.962 39.2718 101.121 38.3783 101.363 36.9773ZM101.303 39.0373C100.741 40.6393 99.2495 41.4553 97.509 41.4553C95.191 41.4553 93.8605 40.3673 93.8605 38.3633C93.8605 36.0683 95.6715 35.1258 98.187 34.6193C100.267 34.1833 101.184 33.9673 101.28 33.7028V33.4383C101.28 32.2798 100.699 31.5793 99.2265 31.5793C97.7545 31.5793 96.86 32.4473 96.4725 33.3413L93.9605 31.9888C94.829 30.2003 96.957 29.0903 99.5655 29.0903C102.972 29.0903 104.567 30.6848 104.567 33.6318V37.5438C104.567 40.0548 104.858 41.0908 105.268 41.4258H101.91C101.619 41.1613 101.377 40.4163 101.306 39.0413M115.204 29.3473C113.128 29.3473 111.448 30.6623 111.127 33.1473H111.027L111.15 31.0533V29.3208H106.875L105.951 31.8393H108.336V41.4548H111.426V36.9843C111.426 34.2533 111.754 33.0463 114.478 33.0463H115.365V29.3468H115.205L115.204 29.3473ZM76.2855 36.9698V35.1033C75.9575 35.4053 75.559 35.5243 74.6865 35.7888C73.0395 36.2468 72.1935 36.6753 72.1935 37.7673C72.1935 38.7358 72.872 39.2688 73.6695 39.2688C74.8805 39.2688 76.0395 38.3748 76.282 36.9703M76.226 39.0338C75.6635 40.6358 74.169 41.4553 72.4245 41.4553C70.1025 41.4553 68.7685 40.3638 68.7685 38.3558C68.7685 36.0573 70.5835 35.1143 73.099 34.6043C75.1785 34.1683 76.099 33.9523 76.196 33.6843V33.4198C76.196 32.2573 75.6145 31.5568 74.139 31.5568C72.6635 31.5568 71.769 32.4288 71.381 33.3228L68.8655 31.9668C69.7375 30.1748 71.8655 29.0648 74.4815 29.0648C77.895 29.0648 79.49 30.6633 79.49 33.6138V37.5333C79.49 40.0483 79.7805 41.0838 80.1905 41.4228H76.8255C76.535 41.1583 76.2925 40.4133 76.222 39.0348M116.05 39.1903L117.966 37.5548C118.644 38.6053 119.624 39.2388 120.865 39.2388C121.73 39.2388 122.408 38.8663 122.408 38.1623C122.408 37.2273 121.193 36.8283 119.438 36.2213C117.94 35.6848 116.49 34.7943 116.49 32.8308C116.49 30.8673 118.219 29.3248 121.145 29.3248C123.437 29.3248 124.722 30.1668 125.587 31.3368L123.646 33.0208C123.34 32.4358 122.569 31.5718 121.283 31.5718C120.347 31.5718 119.762 32.0373 119.762 32.6483C119.762 33.5833 121.003 33.9558 122.453 34.4703C124.111 35.0553 125.702 35.8263 125.702 38.0243C125.702 40.2223 123.854 41.5303 120.91 41.5303C118.897 41.5303 116.982 40.7368 116.046 39.1943" fill="#465161"/>
<path d="M70.0585 12.2988C70.0585 10.9278 70.517 10.4248 71.7915 10.4248C72.369 10.4248 72.8725 10.5218 73.282 10.6408V8.18977C72.8235 8.07077 72.2495 7.90277 71.02 7.90277C68.303 7.90277 66.9055 9.51227 66.9055 12.1353V14.0093H64.774L63.8275 16.6058H66.906V26.0538H70.055V16.6058H72.9545V14.0093H70.055V12.3028L70.0585 12.2993V12.2988ZM82.401 19.8023C82.401 17.4178 81.559 16.1028 79.8745 16.1028C78.19 16.1028 77.303 17.4178 77.303 19.7798C77.303 22.1418 78.123 23.5948 79.7815 23.5948C81.44 23.5948 82.401 22.2348 82.401 19.8023ZM73.9155 19.8733C73.9155 16.3453 76.1145 13.7038 79.923 13.7038C83.7315 13.7038 85.744 16.0883 85.744 19.7578C85.744 23.4273 83.545 26.0203 79.759 26.0203C75.973 26.0203 73.9115 23.6138 73.9115 19.8733M97.3155 14.0018H100.465L103.155 22.7568H103.301L105.943 13.9868H109.145L104.807 26.0318L101.695 26.0208L97.3155 14.0023V14.0018ZM95.6795 14.0278C93.6225 14.0278 91.96 15.3278 91.6395 17.7908H91.539L91.662 15.7193V14.0018H87.4285L86.5155 16.4943H88.8785V26.0168H91.938V21.5873C91.938 18.8823 92.262 17.6868 94.9605 17.6868H95.84V14.0248H95.6835L95.68 14.0283L95.6795 14.0278ZM107.848 26.0313H111.03L115.417 13.9863H112.234L107.848 26.0313ZM116.05 23.8443L117.966 22.2088C118.644 23.2593 119.624 23.8928 120.865 23.8928C121.73 23.8928 122.408 23.5203 122.408 22.8163C122.408 21.8813 121.193 21.4823 119.438 20.8753C117.94 20.3388 116.49 19.4483 116.49 17.4848C116.49 15.5213 118.219 13.9788 121.145 13.9788C123.437 13.9788 124.722 14.8208 125.587 15.9908L123.646 17.6748C123.34 17.0898 122.569 16.2258 121.283 16.2258C120.347 16.2258 119.762 16.6913 119.762 17.3023C119.762 18.2373 121.003 18.6098 122.453 19.1243C124.111 19.7093 125.702 20.4803 125.702 22.6783C125.702 24.8763 123.854 26.1843 120.91 26.1843C118.897 26.1843 116.982 25.3908 116.046 23.8483" fill="#465161"/>
</g>
<defs>
<clipPath id="clip0_316_13395">
<rect width="81" height="34" fill="white" transform="translate(45 7.77779)"/>
</clipPath>
</defs>
</svg>
