<svg width="182" height="48" viewBox="0 0 182 48" fill="none" xmlns="http://www.w3.org/2000/svg">
<path d="M76.8906 33.9716C75.7336 33.9716 75.3066 33.4502 75.3066 32.6187C75.3066 31.6604 75.83 31.1672 77.1936 31.1672H78.9979V31.7168C78.9979 33.1824 78.1164 33.9716 76.8906 33.9716ZM73.7502 32.7738C73.7502 33.9153 74.3976 35.1413 76.4223 35.1413C77.593 35.1413 78.4057 34.6763 78.9704 33.9435L79.1632 34.9581H80.4304V29.4901C80.4304 27.1507 79.0668 26.742 77.4415 26.742C76.2157 26.742 74.6042 27.1085 74.2185 28.9969H75.7749C75.9677 28.2923 76.436 27.8836 77.4277 27.8836C78.2404 27.8836 79.0117 28.1795 79.0117 29.5042V30.082H77.3038C75.224 30.082 73.7502 30.7867 73.7502 32.7738ZM69.6182 34.9581H71.0781V29.9411C71.0781 28.7714 71.7806 28.25 72.6759 28.25C72.9789 28.25 73.2957 28.2641 73.6125 28.3204V26.8689C73.337 26.7702 73.0891 26.7561 72.8412 26.7561C72.0285 26.7561 71.3949 27.2494 71.0781 27.9399L70.8991 26.9675H69.6182V34.9581ZM121.407 34.9581H122.867V29.9411C122.867 28.7714 123.569 28.25 124.464 28.25C124.767 28.25 125.084 28.2641 125.401 28.3204V26.8689C125.125 26.7702 124.877 26.7561 124.63 26.7561C123.817 26.7561 123.183 27.2494 122.867 27.9399L122.687 26.9675H121.407V34.9581ZM93.9559 28.25V26.9393H92.3582V24.6563L90.8569 24.8959V26.9393H89.7275V28.25H90.8569V33.3375C90.8569 34.479 91.2701 35.1695 92.9091 35.1695C93.2673 35.1695 93.8044 35.0991 94.135 35.0004V33.8589C93.7907 33.9575 93.4739 33.9716 93.2397 33.9716C92.551 33.9716 92.3582 33.6334 92.3582 32.9006V28.25H93.9559ZM138.017 28.25V26.9393H136.406V24.6563L134.905 24.8959V26.9393H133.775V28.25H134.905V33.3375C134.905 34.479 135.318 35.1695 136.957 35.1695C137.315 35.1695 137.852 35.0991 138.183 35.0004V33.8589C137.838 33.9575 137.522 33.9716 137.287 33.9716C136.599 33.9716 136.406 33.6334 136.406 32.9006V28.25H138.017ZM116.255 33.9153C114.85 33.9153 113.941 32.9147 113.941 30.9276C113.941 29.0251 114.878 27.954 116.269 27.954C117.674 27.954 118.5 29.011 118.5 31.0122C118.5 32.957 117.646 33.9153 116.255 33.9153ZM142.37 33.9153C140.965 33.9153 140.056 32.9147 140.056 30.9276C140.056 29.0251 140.992 27.954 142.384 27.954C143.788 27.954 144.615 29.011 144.615 31.0122C144.629 32.957 143.761 33.9153 142.37 33.9153ZM126.42 34.9581H127.853V30.3357C127.853 29.011 128.417 28.0809 129.767 28.0809C131.034 28.0809 131.42 28.6305 131.42 29.9834V34.944H132.88V29.5606C132.88 27.7144 132.122 26.7561 130.414 26.7561C129.244 26.7561 128.376 27.193 127.853 27.954L127.673 26.9393H126.434V34.9581H126.42ZM82.3173 34.9581H83.736V30.3357C83.736 29.011 84.3007 28.0809 85.6505 28.0809C86.9177 28.0809 87.3033 28.6305 87.3033 29.9834V34.944H88.7633V29.5606C88.7633 27.7144 88.0058 26.7561 86.2979 26.7561C85.1271 26.7561 84.2594 27.193 83.736 27.954L83.5569 26.9393H82.3173V34.9581ZM147.549 34.9581H148.967V30.3357C148.967 29.011 149.532 28.0809 150.882 28.0809C152.149 28.0809 152.535 28.6305 152.535 29.9834V34.944H153.995V29.5606C153.995 27.7144 153.237 26.7561 151.529 26.7561C150.358 26.7561 149.491 27.193 148.967 27.954L148.788 26.9393H147.549V34.9581ZM103.942 24.1913V22.8947H95.6088V24.1913H99.0108V34.944H100.581V24.1913H103.942ZM104.699 34.9581H106.118V30.3357C106.118 29.011 106.669 28.0809 108.032 28.0809C109.3 28.0809 109.685 28.6305 109.685 29.9834V34.944H111.145V29.5606C111.145 27.7144 110.388 26.7561 108.68 26.7561C107.509 26.7561 106.641 27.193 106.118 27.954V22.8947H104.699V34.9581ZM63.7644 30.1807H66.5467V32.8583C65.6927 33.6193 64.398 33.9153 63.3512 33.9153C60.7343 33.9153 59.2467 32.1819 59.2467 29.1378C59.2467 25.9106 60.8444 24.1208 63.3237 24.1208C64.7974 24.1208 65.8993 24.6563 66.9461 25.671L67.8689 24.5999C66.9323 23.543 65.3208 22.7679 63.489 22.7679C59.7977 22.7679 57.6077 25.4032 57.6077 29.0955C57.6077 32.7174 59.4258 35.2259 63.3788 35.2259C65.555 35.2259 67.2491 34.2535 68.0893 33.3234V28.9546H63.7782V30.1807H63.7644ZM116.365 26.742C113.776 26.742 112.412 28.5741 112.412 30.984C112.412 33.4784 113.762 35.1272 116.186 35.1272C118.597 35.1272 120.098 33.5066 120.098 30.9417C120.098 28.3063 118.707 26.742 116.365 26.742ZM142.48 26.742C139.877 26.742 138.527 28.5741 138.527 30.984C138.527 33.4784 139.877 35.1272 142.301 35.1272C144.711 35.1272 146.213 33.5066 146.213 30.9417C146.213 28.3063 144.821 26.742 142.48 26.742Z" fill="#465161"/>
<path d="M39.716 24.3744C41.5616 24.9804 43.0216 26.3756 44.0133 28.3768C44.151 28.6446 44.2199 29.0392 44.1373 29.2787C44.1648 29.1801 44.2061 29.0955 44.2337 28.9969C46.6027 21.3868 38.2147 16.2711 33.9586 18.5682C33.876 18.6105 33.7934 18.6528 33.7107 18.7091C28.2426 22.035 26.397 29.2365 29.5098 34.8877C27.2785 30.533 32.2645 21.9505 39.716 24.3744Z" fill="url(#paint0_linear_134_596)"/>
<path d="M35.224 29.0459C35.8162 27.1575 37.1798 25.6636 39.1356 24.649C39.3973 24.508 39.783 24.4376 40.0171 24.5221C39.9207 24.4939 39.8381 24.4517 39.7417 24.4235C32.304 21.9995 27.3042 30.582 29.5355 34.9367C29.5768 35.0212 29.6181 35.1058 29.6732 35.1904C32.9376 40.7993 39.962 42.6877 45.4852 39.4886C41.243 41.7717 32.8549 36.656 35.224 29.0459Z" fill="url(#paint1_linear_134_596)"/>
<path d="M39.7159 33.6193C37.8702 33.0133 36.4102 31.6181 35.4186 29.6169C35.2808 29.3492 35.212 28.9546 35.2946 28.715C35.267 28.8137 35.2257 28.8982 35.1982 28.9969C32.8291 36.607 41.2172 41.7226 45.4732 39.4396C45.5559 39.3973 45.6385 39.3551 45.7211 39.2987C51.203 35.9587 53.0486 28.7714 49.9221 23.1202C52.1396 27.4608 47.1536 36.0433 39.7159 33.6193Z" fill="url(#paint2_linear_134_596)"/>
<path d="M44.2337 28.9969C43.6414 30.8853 42.2778 32.3791 40.322 33.3938C40.0603 33.5347 39.6746 33.6052 39.4405 33.5207C39.5369 33.5488 39.6195 33.5911 39.7159 33.6193C47.1536 36.0433 52.1534 27.4608 49.9083 23.1061C49.867 23.0215 49.8257 22.937 49.7706 22.8524C46.5063 17.2435 39.4818 15.3551 33.9586 18.5541C38.2146 16.2711 46.6027 21.3868 44.2337 28.9969Z" fill="url(#paint3_linear_134_596)"/>
<defs>
<linearGradient id="paint0_linear_134_596" x1="44.6086" y1="25.6102" x2="27.8119" y2="26.7581" gradientUnits="userSpaceOnUse">
<stop stop-color="#343D49"/>
<stop offset="0.25" stop-color="#465161"/>
<stop offset="0.5" stop-color="#5D6A7C"/>
<stop offset="0.75" stop-color="#5D6A7C"/>
<stop offset="1" stop-color="#9198A4"/>
</linearGradient>
<linearGradient id="paint1_linear_134_596" x1="37" y1="25.5" x2="32.4199" y2="38.9728" gradientUnits="userSpaceOnUse">
<stop stop-color="#343D49"/>
<stop offset="0.25" stop-color="#465161"/>
<stop offset="0.5" stop-color="#5D6A7C"/>
<stop offset="0.75" stop-color="#5D6A7C"/>
<stop offset="1" stop-color="#9198A4"/>
</linearGradient>
<linearGradient id="paint2_linear_134_596" x1="35" y1="29.5" x2="50.9784" y2="36.549" gradientUnits="userSpaceOnUse">
<stop stop-color="#343D49"/>
<stop offset="0.25" stop-color="#465161"/>
<stop offset="0.5" stop-color="#5D6A7C"/>
<stop offset="0.75" stop-color="#5D6A7C"/>
<stop offset="1" stop-color="#9198A4"/>
</linearGradient>
<linearGradient id="paint3_linear_134_596" x1="41" y1="34" x2="45.0913" y2="18.5241" gradientUnits="userSpaceOnUse">
<stop stop-color="#343D49"/>
<stop offset="0.25" stop-color="#465161"/>
<stop offset="0.5" stop-color="#5D6A7C"/>
<stop offset="0.75" stop-color="#5D6A7C"/>
<stop offset="1" stop-color="#9198A4"/>
</linearGradient>
</defs>
</svg>
