<svg width="182" height="48" viewBox="0 0 182 48" fill="none" xmlns="http://www.w3.org/2000/svg">
<path d="M60.5597 29.2026V29.2101H60.5517L60.5597 29.2026Z" fill="#465161"/>
<path d="M69.7956 20.1623V20.1703H69.7893L69.7956 20.1623Z" fill="#465161"/>
<path d="M76.9409 29.121C76.6089 29.1953 76.2622 29.2364 75.922 29.2383C73.9938 29.2491 72.0652 29.2433 70.1369 29.2433H69.7731V29.5745C69.7731 31.4308 69.7747 33.2868 69.7727 35.1431C69.7716 36.2038 69.4834 37.1756 68.8179 38.0171C68.0295 39.0143 67.0017 39.6054 65.7258 39.7604C65.6847 39.7654 65.6463 39.7908 65.6068 39.8065H64.7376C64.28 39.6846 63.8049 39.6066 63.3686 39.4327C61.6704 38.7559 60.5542 37.0853 60.5546 35.2766C60.5546 33.2541 60.5569 31.2316 60.5581 29.2095H62.9447V29.5349C62.9447 31.4539 62.9471 33.3729 62.9432 35.292C62.942 35.8696 63.1553 36.3576 63.5474 36.7703C64.1641 37.4198 65.1402 37.6314 65.9643 37.3075C66.8303 36.9672 67.3934 36.1677 67.3958 35.2474C67.4008 33.3376 67.3973 31.4274 67.3973 29.5172V29.2049H69.7817V26.892H70.1086C72.0551 26.892 74.0015 26.8997 75.948 26.8886C76.7853 26.884 77.4225 26.4905 77.8309 25.7745C78.2521 25.0368 78.2339 24.2781 77.7879 23.5578C77.3283 22.8147 76.6174 22.4936 75.7537 22.4917C73.8705 22.4879 71.9876 22.4905 70.1043 22.4905H69.7941V20.1696C71.9286 20.1685 74.0655 20.1069 76.1974 20.1823C78.4336 20.2619 80.1532 22.0071 80.4495 24.0492C80.7892 26.3902 79.2608 28.6015 76.9409 29.121Z" fill="#465161"/>
<path d="M69.7748 19.8212C69.7748 19.935 69.7837 20.0485 69.7888 20.1623H67.3982V19.8401C67.3982 17.9841 67.3998 16.1281 67.3959 14.2725C67.3955 14.0768 67.3777 13.8787 67.3435 13.6857C67.1481 12.5723 66.0796 11.8228 64.8607 11.9358C63.8182 12.0324 62.9464 13.0019 62.946 14.0668C62.9452 15.9943 62.946 17.9218 62.946 19.8493V20.1785H60.5477V22.4798H60.2204C58.2747 22.4798 56.3286 22.4779 54.3825 22.4798C52.8855 22.4817 51.8179 24.0023 52.3302 25.3984C52.6668 26.3163 53.4952 26.8782 54.5318 26.8801C56.4326 26.8832 58.3333 26.8809 60.234 26.8809H60.552V29.2022C58.4089 29.2034 56.2638 29.2614 54.1231 29.1895C52.0296 29.1195 50.2836 27.5743 49.914 25.531C49.4448 22.934 51.0666 20.6684 53.7011 20.1823C53.9303 20.14 54.1684 20.1308 54.4027 20.1304C56.3309 20.1262 58.2596 20.1281 60.1878 20.1281H60.5559V14.1833C60.5559 12.0128 61.9551 10.2329 64.0823 9.69836C66.6233 9.05997 69.264 10.7625 69.6856 13.3188C69.7391 13.6437 69.7694 13.9764 69.7705 14.306C69.7787 16.1443 69.7744 17.9825 69.7752 19.8212H69.7748Z" fill="#465161"/>
<path d="M60.5522 29.2101V29.2026H60.5602L60.5522 29.2101Z" fill="#465161"/>
<path d="M69.7957 20.1623L69.7893 20.1703C69.7893 20.1678 69.7889 20.1648 69.7889 20.1623H69.7957Z" fill="#465161"/>
<path d="M130.354 15.9781C130.354 15.8831 130.354 15.7881 130.354 15.6935C130.354 13.9271 130.354 12.1611 130.354 10.3948C130.354 9.83984 130.523 9.67178 131.076 9.67139C131.284 9.67139 131.492 9.67062 131.7 9.67139C132.133 9.6737 132.327 9.86176 132.327 10.2956C132.329 12.1065 132.328 13.9175 132.328 15.7285C132.328 16.4996 132.33 17.2706 132.327 18.0417C132.326 18.4771 132.137 18.6647 131.704 18.6674C131.216 18.6705 130.725 18.644 130.238 18.6747C129.71 18.7082 129.387 18.4544 129.149 18.0325C128.734 17.2995 128.319 16.5661 127.903 15.8339C127.329 14.8228 126.753 13.8121 126.126 12.8057V13.0814C126.126 14.6951 126.126 16.3092 126.126 17.9229C126.126 18.4794 125.939 18.667 125.386 18.6678C125.142 18.6678 124.897 18.6724 124.653 18.6659C124.343 18.6574 124.138 18.4571 124.113 18.1459C124.106 18.0567 124.108 17.9667 124.107 17.8771C124.107 15.4027 124.107 12.928 124.107 10.4536C124.107 9.81638 124.257 9.67101 124.907 9.67101C125.251 9.67101 125.597 9.69562 125.938 9.66524C126.455 9.61947 126.775 9.86868 127.011 10.2821C127.625 11.3558 128.24 12.4288 128.855 13.5018C129.331 14.3325 129.809 15.1624 130.286 15.9923C130.309 15.9873 130.332 15.9823 130.355 15.9777L130.354 15.9781Z" fill="#465161"/>
<path d="M104.603 28.9522C104.58 28.8584 104.536 28.7668 104.488 28.6814C104.119 28.0157 103.75 27.3497 103.374 26.6874C103.107 26.2175 102.816 25.7656 102.294 25.4702C102.352 25.4483 102.369 25.441 102.386 25.436C102.446 25.4183 102.507 25.4029 102.568 25.3837C103.391 25.1176 104.065 24.6784 104.256 23.7796C104.329 23.4377 104.324 23.0682 104.29 22.717C104.159 21.3664 103.143 20.3888 101.7 20.3392C100.1 20.2846 98.4959 20.3265 96.8934 20.325C96.6525 20.3246 96.4955 20.4496 96.4233 20.6599C96.3749 20.8003 96.3586 20.958 96.3586 21.108C96.3547 23.4216 96.3559 25.7348 96.3559 28.0484C96.3559 28.2546 96.3477 28.4611 96.3578 28.6668C96.3768 29.0599 96.58 29.3598 97.0349 29.3195C97.2773 29.2975 97.5236 29.3156 97.7679 29.3152C98.2593 29.3152 98.4485 29.1291 98.4524 28.6338C98.4559 28.2123 98.4532 27.7908 98.4532 27.3693V26.0313C98.9147 26.0313 99.3467 26.0363 99.7792 26.0298C100.154 26.024 100.479 26.1517 100.725 26.4197C100.919 26.629 101.088 26.8666 101.233 27.1112C101.55 27.6427 101.838 28.1896 102.149 28.7245C102.332 29.0391 102.586 29.2902 102.973 29.3095C103.424 29.3325 103.878 29.3198 104.33 29.3129C104.551 29.3095 104.656 29.166 104.603 28.9522ZM101.729 24.0365C101.53 24.1342 101.306 24.2319 101.091 24.2377C100.225 24.26 99.3576 24.2469 98.4629 24.2469V22.1029H98.8112C99.5174 22.1032 100.224 22.0844 100.929 22.1125C101.199 22.1232 101.48 22.2082 101.73 22.3175C102.083 22.4713 102.24 22.7778 102.245 23.162C102.25 23.5589 102.084 23.8619 101.729 24.0365Z" fill="#465161"/>
<path d="M104.929 18.2867C104.904 18.1929 104.857 18.1036 104.81 18.0179C104.45 17.3676 104.093 16.7153 103.724 16.07C103.451 15.5939 103.159 15.1293 102.614 14.8155C102.747 14.777 102.833 14.7551 102.918 14.7274C103.469 14.5475 103.956 14.2825 104.303 13.7968C104.998 12.8257 104.766 10.6425 103.101 9.95368C102.711 9.79254 102.267 9.69409 101.846 9.68486C100.389 9.65217 98.9318 9.6714 97.4748 9.67101C96.857 9.67101 96.7034 9.821 96.703 10.4271C96.703 12.9284 96.703 15.4293 96.703 17.9306C96.703 18.0021 96.6995 18.0744 96.7069 18.1456C96.741 18.4748 96.9415 18.6601 97.2774 18.6667C97.5399 18.672 97.8025 18.6686 98.065 18.6682C98.6018 18.6667 98.7775 18.494 98.7786 17.9598C98.7802 17.198 98.7786 16.4361 98.7798 15.6739C98.7798 15.58 98.7907 15.4862 98.7972 15.3812C99.3072 15.3812 99.7881 15.3512 100.264 15.3889C100.829 15.4335 101.184 15.8112 101.451 16.2696C101.799 16.8653 102.129 17.4714 102.473 18.069C102.655 18.3844 102.905 18.6378 103.291 18.6582C103.743 18.682 104.196 18.6709 104.648 18.6632C104.886 18.659 104.989 18.5151 104.929 18.2867H104.929ZM102.541 12.8107C102.387 13.346 101.936 13.5576 101.445 13.5822C100.571 13.6264 99.6935 13.5945 98.7941 13.5945V11.4485C99.403 11.4485 99.9979 11.442 100.592 11.4512C100.952 11.4566 101.32 11.4474 101.67 11.5151C102.361 11.6489 102.717 12.1935 102.541 12.8107Z" fill="#465161"/>
<path d="M119.363 29.3852C118.815 29.3745 118.138 29.3376 117.484 29.1941C116.808 29.0457 116.25 28.6515 115.865 28.0588C115.649 27.7258 115.553 27.3593 115.58 26.9616C115.605 26.5944 115.832 26.3694 116.205 26.3555C116.359 26.3498 116.513 26.359 116.667 26.3536C117.064 26.3398 117.348 26.5121 117.499 26.8736C117.719 27.402 118.138 27.5931 118.682 27.5923C119.37 27.5912 120.058 27.5954 120.745 27.5893C120.888 27.5881 121.035 27.5681 121.17 27.5254C121.408 27.4497 121.575 27.292 121.615 27.0343C121.657 26.7624 121.586 26.5155 121.33 26.3932C120.991 26.2321 120.64 26.086 120.28 25.9821C119.417 25.7329 118.539 25.5325 117.68 25.2722C117.116 25.1014 116.59 24.8238 116.194 24.3734C114.981 22.9963 115.711 20.8792 117.541 20.4377C118.378 20.2358 119.229 20.2554 120.077 20.28C120.587 20.2946 121.114 20.3146 121.6 20.4496C122.459 20.6884 123.156 21.178 123.427 22.0798C123.498 22.3171 123.486 22.589 123.463 22.8405C123.441 23.0759 123.263 23.2412 123.031 23.2593C122.719 23.2839 122.4 23.2755 122.09 23.2385C121.811 23.2055 121.668 22.974 121.566 22.7401C121.357 22.2594 120.973 22.059 120.472 22.0517C119.839 22.0429 119.205 22.0429 118.572 22.054C118.414 22.0567 118.246 22.091 118.103 22.1548C117.636 22.3632 117.552 22.9532 117.989 23.207C118.385 23.437 118.841 23.5754 119.285 23.7112C120.221 23.9981 121.182 24.2115 122.1 24.5423C122.833 24.8061 123.446 25.3003 123.62 26.1021C123.958 27.6689 123.381 28.9534 121.547 29.251C120.873 29.3606 120.184 29.401 119.363 29.3849V29.3852Z" fill="#465161"/>
<path d="M126.737 29.1841C125.868 28.9534 125.177 28.4365 124.916 27.5139C124.873 27.3616 124.858 27.1966 124.86 27.0378C124.866 26.5767 125.102 26.3563 125.573 26.354C125.7 26.3532 125.827 26.3575 125.953 26.3532C126.339 26.3409 126.626 26.5009 126.771 26.8543C126.993 27.3954 127.413 27.5935 127.969 27.592C128.684 27.59 129.399 27.5977 130.115 27.5881C130.619 27.5816 130.921 27.2924 130.907 26.8643C130.898 26.5828 130.721 26.4017 130.491 26.3171C129.978 26.1286 129.451 25.9748 128.927 25.8187C128.177 25.5956 127.407 25.4272 126.679 25.1499C126.254 24.988 125.831 24.7184 125.515 24.395C124.298 23.1543 124.926 20.9765 126.63 20.5007C127.11 20.3665 127.622 20.2992 128.123 20.2838C128.889 20.26 129.664 20.2546 130.424 20.3388C131.238 20.4288 131.934 20.8142 132.429 21.4883C132.711 21.8714 132.838 22.3006 132.764 22.7786C132.72 23.0643 132.541 23.2393 132.269 23.2724C132.002 23.3047 131.725 23.2959 131.457 23.267C131.161 23.2355 130.968 23.0347 130.862 22.7728C130.645 22.2394 130.225 22.0498 129.682 22.049C129.084 22.0487 128.487 22.0417 127.89 22.0537C127.722 22.0567 127.545 22.0887 127.392 22.1537C126.912 22.3579 126.832 22.9663 127.282 23.2209C127.674 23.4428 128.121 23.5824 128.558 23.7093C129.318 23.9304 130.094 24.0935 130.852 24.32C131.39 24.4807 131.871 24.7592 132.311 25.1214C133.356 25.9814 133.327 28.5646 131.425 29.093C130.81 29.3026 129.135 29.3672 128.773 29.3672C128.77 29.3914 127.388 29.3572 126.735 29.1837L126.737 29.1841Z" fill="#465161"/>
<path d="M114.16 22.7686C113.786 21.4568 112.906 20.6291 111.555 20.3061C110.637 20.0865 109.71 20.0757 108.785 20.2246C107.317 20.4607 106.286 21.2456 105.822 22.6778C105.597 23.3727 105.515 24.0915 105.485 24.8276C105.557 25.3937 105.587 25.969 105.708 26.5247C106.046 28.07 106.983 29.0495 108.575 29.3748C109.444 29.5525 110.319 29.5613 111.188 29.4156C112.641 29.1722 113.679 28.408 114.124 26.9728C114.556 25.5779 114.557 24.1653 114.16 22.7686ZM112.16 26.2782C111.941 27.1031 111.415 27.6354 110.541 27.7646C109.792 27.8754 109.059 27.8488 108.439 27.3339C107.978 26.9512 107.788 26.424 107.695 25.8571C107.543 24.9368 107.544 24.0219 107.873 23.1351C108.181 22.3074 108.871 21.8367 109.766 21.8383C110.098 21.839 110.44 21.8456 110.758 21.9236C111.711 22.1575 112.107 22.877 112.262 23.7569C112.335 24.1773 112.339 24.6095 112.378 25.0802C112.311 25.4568 112.267 25.8756 112.16 26.2782Z" fill="#465161"/>
<path d="M93.0354 15.4631C92.6646 15.4631 92.3128 15.467 91.9611 15.4624C91.4969 15.4562 91.3196 15.2597 91.2987 14.8059C91.2521 13.7968 91.5248 13.7645 92.3253 13.7806C93.0218 13.7949 93.7187 13.7822 94.4156 13.7841C94.905 13.7856 95.1044 13.9868 95.1087 14.4682C95.1149 15.1216 95.1222 15.7747 94.9442 16.4134C94.6122 17.6037 93.8316 18.349 92.6219 18.5951C91.5256 18.8182 90.4024 18.7932 89.3026 18.6386C88.0801 18.4667 87.2172 17.7533 86.8042 16.5942C86.2527 15.0459 86.2492 13.4668 86.753 11.9077C87.1044 10.8205 87.8641 10.0879 88.9973 9.81832C90.2772 9.51412 91.5775 9.50028 92.8616 9.78948C93.562 9.94715 94.1647 10.3152 94.5928 10.9121C94.8473 11.267 94.9702 11.6635 94.9074 12.1016C94.8581 12.4434 94.6471 12.6223 94.3024 12.6319C94.2209 12.6342 94.1383 12.623 94.0584 12.6338C93.5073 12.7088 93.1564 12.4842 92.9194 11.9839C92.7294 11.5824 92.314 11.4366 91.9017 11.417C91.2711 11.3874 90.6355 11.3955 90.0061 11.4393C89.2176 11.4943 88.7573 11.962 88.6192 12.7169C88.4226 13.7914 88.3943 14.8709 88.6987 15.9316C88.8965 16.6203 89.3623 16.9345 90.0867 16.9365C90.6115 16.9376 91.1366 16.9415 91.6613 16.9353C92.5405 16.9245 93.0625 16.3769 93.0357 15.4628L93.0354 15.4631Z" fill="#465161"/>
<path d="M108.41 15.054V16.9045C108.53 16.9045 108.635 16.9045 108.741 16.9045C110.18 16.9045 111.619 16.9042 113.059 16.9045C113.519 16.9045 113.692 17.078 113.695 17.5391C113.696 17.7095 113.696 17.8798 113.695 18.0502C113.69 18.4794 113.502 18.6671 113.064 18.6674C111.253 18.669 109.442 18.6682 107.632 18.6682C107.405 18.6682 107.179 18.6697 106.953 18.6678C106.527 18.664 106.326 18.4736 106.299 18.0513C106.295 17.9979 106.298 17.9437 106.298 17.8898C106.298 15.4058 106.298 12.9219 106.298 10.4379C106.298 9.856 106.486 9.67102 107.075 9.67102C109.067 9.67102 111.058 9.67102 113.05 9.67102C113.514 9.67102 113.732 9.88062 113.74 10.3348C113.743 10.5052 113.747 10.6759 113.739 10.8459C113.719 11.2397 113.495 11.4478 113.097 11.4482C111.639 11.4489 110.182 11.4482 108.724 11.4482C108.626 11.4482 108.528 11.4482 108.413 11.4482V13.276H108.7C109.94 13.276 111.18 13.276 112.421 13.276C112.827 13.276 113.018 13.4372 113.056 13.8429C113.076 14.056 113.074 14.274 113.053 14.4867C113.013 14.8886 112.818 15.0524 112.41 15.0528C111.179 15.054 109.948 15.0532 108.716 15.0532C108.619 15.0532 108.522 15.0532 108.41 15.0532L108.41 15.054Z" fill="#465161"/>
<path d="M117.29 11.4485V13.2622C117.39 13.2672 117.485 13.2757 117.579 13.2757C118.829 13.2764 120.078 13.2757 121.327 13.2764C121.738 13.2764 121.941 13.4729 121.951 13.8806C121.955 14.0687 121.956 14.2571 121.951 14.4455C121.94 14.8455 121.726 15.0528 121.322 15.0532C120.082 15.0547 118.842 15.0539 117.602 15.0539C117.505 15.0539 117.407 15.0539 117.296 15.0539V16.9045C117.416 16.9045 117.522 16.9045 117.627 16.9045C119.066 16.9045 120.506 16.9041 121.945 16.9045C122.417 16.9045 122.596 17.0841 122.597 17.5545C122.597 17.7517 122.604 17.9494 122.594 18.1459C122.579 18.4555 122.37 18.6644 122.056 18.6651C119.956 18.6686 117.856 18.669 115.756 18.6651C115.431 18.6647 115.23 18.4574 115.208 18.1221C115.198 17.979 115.205 17.8352 115.205 17.6918C115.205 15.262 115.205 12.8322 115.205 10.4025C115.205 9.84676 115.385 9.67062 115.951 9.67062C117.951 9.67062 119.951 9.67062 121.952 9.67062C122.412 9.67062 122.611 9.85945 122.626 10.3144C122.632 10.4936 122.635 10.6736 122.625 10.852C122.6 11.2609 122.397 11.4474 121.985 11.4478C120.527 11.4485 119.07 11.4478 117.613 11.4478H117.29L117.29 11.4485Z" fill="#465161"/>
<path d="M90.9089 29.3633C90.2485 29.3195 89.569 29.336 88.9202 29.2029C87.6439 28.9418 86.8407 28.1211 86.4839 26.9032C86.0775 25.5164 86.0771 24.1077 86.4893 22.7213C86.9117 21.301 87.9254 20.4969 89.3867 20.3454C90.3067 20.2504 91.2491 20.2658 92.1729 20.3396C93.3864 20.4365 94.3737 21.2864 94.6332 22.3682C94.7057 22.6713 94.7038 23.0051 94.6666 23.317C94.6351 23.5804 94.4176 23.7185 94.1364 23.7189C93.9735 23.7189 93.8091 23.7043 93.6477 23.7216C93.1959 23.77 92.9376 23.5374 92.7654 23.1601C92.6949 23.0055 92.6266 22.8482 92.5359 22.7051C92.2609 22.2732 91.8742 22.0356 91.3429 22.0467C90.8996 22.0563 90.4556 22.0406 90.0123 22.0525C89.1366 22.076 88.6033 22.4928 88.4246 23.3416C88.2178 24.323 88.2175 25.316 88.4246 26.2975C88.6018 27.1385 89.1226 27.557 89.9848 27.585C90.5273 27.6027 91.0714 27.602 91.614 27.5858C92.0414 27.5731 92.3675 27.3501 92.6018 27.0059C92.7115 26.8439 92.7949 26.6628 92.8771 26.4844C93.0563 26.0963 93.3115 25.924 93.7862 25.9187C93.9111 25.9333 94.0394 25.9206 94.1663 25.921C94.5983 25.9225 94.8279 26.1486 94.8376 26.5824C94.8624 27.7046 94.1791 28.6642 93.0718 29.103C92.371 29.3806 91.6446 29.3875 90.9101 29.3625C90.9082 29.3852 90.912 29.3399 90.9101 29.3625L90.9089 29.3633Z" fill="#465161"/>
<path d="M96.4223 33.0353H101.287V33.7191H97.1874V36.0208H100.855V36.6841H97.1901V39.0397H101.341V39.7369H96.4219V33.0353H96.4223Z" fill="#465161"/>
<path d="M88.4921 36.7603V39.7365H87.7579V33.0406H88.4917V36.0142H92.4234V33.0491H93.187V39.7381H92.4513V36.7607H88.4924L88.4921 36.7603Z" fill="#465161"/>
<path d="M132.463 39.7419H131.727V36.7599H127.778V39.7365H127.012V33.0403H127.768V36.0138H131.709V33.0395H132.462V39.7419H132.463Z" fill="#465161"/>
<path d="M110.476 39.6527C109.476 37.4667 108.475 35.2808 107.467 33.0979C107.44 33.0387 107.34 32.991 107.266 32.978C107.152 32.958 107.031 32.9822 106.915 32.9703C106.759 32.9545 106.681 33.0122 106.614 33.1576C105.646 35.28 104.671 37.3994 103.698 39.5204C103.667 39.5881 103.648 39.6615 103.617 39.7546C103.8 39.7546 103.956 39.7373 104.106 39.7588C104.326 39.79 104.424 39.6938 104.504 39.5031C104.693 39.05 104.909 38.6074 105.103 38.1559C105.161 38.019 105.238 37.9748 105.387 37.9755C106.49 37.9817 107.593 37.9832 108.697 37.9744C108.865 37.9728 108.934 38.039 108.993 38.1782C109.194 38.6459 109.402 39.1108 109.618 39.5719C109.653 39.6458 109.738 39.7388 109.809 39.7457C110.03 39.7681 110.255 39.7542 110.484 39.7542C110.481 39.7046 110.487 39.675 110.476 39.6527ZM105.501 37.2656C106.015 36.1384 106.518 35.0347 107.048 33.8698C107.572 35.0258 108.074 36.1334 108.587 37.2656H105.501Z" fill="#465161"/>
<path d="M124.289 33.7294H122.015V39.74H121.243V33.7371H118.97V33.0399H124.289V33.7294Z" fill="#465161"/>
<path d="M113.892 39.0562H117.722V39.7399H113.147V33.0468H113.893V39.0562H113.892Z" fill="#465161"/>
<path d="M60.5597 29.2026H60.5517V29.2101H60.5597V29.2026Z" fill="#465161"/>
<path d="M69.7957 20.1623V20.1703H69.7893C69.7893 20.1678 69.7889 20.1648 69.7889 20.1623H69.7957Z" fill="#465161"/>
</svg>
