<svg width="182" height="48" viewBox="0 0 182 48" fill="none" xmlns="http://www.w3.org/2000/svg">
<path fill-rule="evenodd" clip-rule="evenodd" d="M138.409 18.4012C138.409 17.7515 138.939 17.2214 139.589 17.2214C140.239 17.2214 140.769 17.7515 140.769 18.4012C140.769 19.051 140.239 19.5811 139.589 19.5811C138.939 19.5811 138.409 19.051 138.409 18.4012ZM137.178 18.4012C137.178 19.7349 138.255 20.8122 139.589 20.8122C140.906 20.7951 141.983 19.7178 142 18.4012C142 17.0675 140.923 15.9903 139.589 15.9903C138.255 15.9903 137.178 17.0675 137.178 18.4012ZM132.818 23.5135C131.655 23.4964 130.612 24.2659 130.304 25.3944H135.434C135.075 24.112 134.032 23.5135 132.818 23.5135ZM132.938 20.2818C136.238 20.2989 139.504 22.4876 139.504 26.8478C139.504 27.3266 139.452 27.8225 139.35 28.3183H130.168C130.629 29.4982 131.775 30.0966 132.921 30.1137C133.724 30.1479 134.511 29.823 135.075 29.2417H139.127C138.136 32.0801 135.434 33.4822 132.732 33.4309C129.484 33.3796 126.252 31.191 126.252 26.8478C126.252 22.4363 129.586 20.2647 132.938 20.2818ZM119.823 28.5406C117.412 28.3183 114.898 27.395 114.898 24.5737C114.898 21.4788 117.309 20.145 120.165 20.145C122.918 20.145 125.312 21.5472 125.329 24.5395H121.755C121.738 23.5477 120.746 23.4793 119.96 23.4793C119.412 23.4793 118.66 23.6845 118.66 24.3514C118.66 25.0182 119.652 25.0524 120.199 25.0695C122.866 25.1379 125.602 26.2836 125.602 29.3101C125.602 32.5247 122.969 33.619 120.131 33.619C117.07 33.619 114.744 32.234 114.693 28.9681H118.438C118.455 29.823 119.361 30.1821 120.216 30.1821C121.191 30.1992 121.858 29.8401 121.858 29.3956C121.858 28.6142 120.841 28.5798 120.156 28.5566C120.031 28.5524 119.917 28.5485 119.823 28.5406ZM109.358 20.4528H113.325V33.277H109.546V31.9775C108.657 33.1402 107.289 33.4651 105.921 33.448C102.279 33.4138 101.288 30.6951 101.305 27.5147V20.4528H105.066V27.4976C105.066 31.191 109.358 30.6951 109.358 27.4292V20.4528ZM90.2245 26.882C90.2245 22.5389 96.4144 22.5218 96.4144 26.882C96.4144 31.191 90.2245 31.1739 90.2245 26.882ZM86.4799 26.882C86.4799 35.9616 100.159 36.0129 100.159 26.882C100.159 17.7512 86.4799 17.7341 86.4799 26.882ZM73.1769 33.2941V16.5885H76.9558V21.7523C77.8791 20.6067 79.3496 20.2818 80.7175 20.2818C84.3596 20.3331 85.3855 23.0348 85.3343 26.2323V33.2941H81.5725V26.2494C81.5725 24.5566 80.6492 23.8213 79.6574 23.8042C78.2724 23.8213 77.161 24.9327 77.1439 26.3178V33.2941H73.1769ZM65.1233 23.5135C63.9606 23.4964 62.9176 24.2659 62.6098 25.3944H67.7395C67.3804 24.112 66.3373 23.5135 65.1233 23.5135ZM65.243 20.2818C68.5431 20.2989 71.809 22.4876 71.809 26.8478C71.7919 27.3266 71.7577 27.8054 71.6551 28.3012H62.473C62.9347 29.4811 64.0803 30.0795 65.2259 30.0966C66.0296 30.1308 66.8161 29.8059 67.3804 29.2246H71.4328C70.4411 32.063 67.7395 33.4651 65.0378 33.4138C61.789 33.3625 58.5573 31.1739 58.5573 26.8307C58.5573 22.4363 61.8916 20.2476 65.243 20.2818ZM48.5032 26.8649C48.5032 30.507 53.0857 31.02 54.0603 27.8396H57.7708C56.6935 35.7051 44.844 35.1579 44.844 26.8649C44.844 18.5719 56.7106 18.0248 57.7537 25.9245H54.0603C53.1199 22.7441 48.5032 23.24 48.5032 26.8649ZM43.63 20.4528H39.834V33.277H43.63V20.4528ZM41.8859 18.8113V18.1616H42.3133V19.9228H41.8859V19.2388H41.3729V19.9228H40.9454V18.1445H41.3729V18.8113H41.8859ZM42.5014 19.9057V18.1274H43.6642V18.5548H42.946V18.7942H43.6642V19.2046H42.946V19.4953H43.6642V19.9057H42.5014ZM39.4065 18.5377V18.1274H40.7915V18.5377H40.3128V19.9228H39.8853V18.5377H39.4065Z" fill="#465161"/>
</svg>
