<svg width="18" height="18" viewBox="0 0 18 18" fill="none" xmlns="http://www.w3.org/2000/svg">
<path d="M9 14.9995C12.3137 14.9995 15 12.3132 15 8.99951C15 5.6858 12.3137 2.99951 9 2.99951C5.68629 2.99951 3 5.6858 3 8.99951C3 12.3132 5.68629 14.9995 9 14.9995Z" stroke="#5767EB" stroke-width="1.2" stroke-miterlimit="10" stroke-linecap="square"/>
<path d="M8.99992 12.8079C9.38928 12.8079 9.70492 12.4923 9.70492 12.1029C9.70492 11.7136 9.38928 11.3979 8.99992 11.3979C8.61056 11.3979 8.29492 11.7136 8.29492 12.1029C8.29492 12.4923 8.61056 12.8079 8.99992 12.8079Z" fill="#5767EB"/>
<path d="M7.55176 5.80311C8.68576 5.30138 10.1535 5.36118 10.6552 6.17283C11.1569 6.98449 10.81 7.92793 9.95176 8.65559C9.09355 9.38325 9.00003 9.87504 9.00003 10.4477" stroke="#5767EB" stroke-width="1.2" stroke-miterlimit="10" stroke-linecap="square"/>
</svg>
