<svg width="182" height="48" viewBox="0 0 182 48" fill="none" xmlns="http://www.w3.org/2000/svg">
<path fill-rule="evenodd" clip-rule="evenodd" d="M48.9599 25.0998C48.9599 17.6376 54.9772 11.588 62.3994 11.588C69.8217 11.588 75.8372 17.6376 75.8355 25.0998C75.8355 30.7448 72.391 35.5807 67.4984 37.6001L64.0761 31.6421C66.9756 30.8917 69.1166 28.2482 69.1166 25.0998C69.1166 21.3687 66.1089 18.3448 62.3977 18.3448C58.6866 18.3448 55.6788 21.3687 55.6788 25.0998C55.6788 28.2465 57.8215 30.8917 60.7193 31.6421L57.2971 37.6001C52.4062 35.5807 48.9599 30.7465 48.9599 25.0998ZM99.5876 28.4105C100.277 28.4105 100.736 27.9377 100.736 27.053V22.2839H103.882V27.3312C103.882 30.0825 102.036 31.3686 99.5876 31.3686C97.1398 31.3686 95.2935 30.0807 95.2935 27.3208V22.2822H98.4394V27.053C98.4394 27.9377 98.8983 28.4105 99.5876 28.4105ZM94.1143 31.1357H90.9685V18.2673H94.1143V31.1357ZM89.7429 31.1357H86.5971V18.2673H89.7429V31.1357ZM113.032 23.4067C113.561 22.496 114.437 22.0406 115.638 22.0406V22.0371C117.661 22.0371 118.907 23.332 118.907 25.3689V31.1322H115.762V26.37C115.762 25.4854 115.346 25.0126 114.657 25.0126C114.048 25.0126 113.561 25.4159 113.561 26.3891V31.134H110.416V26.3717C110.416 25.4871 109.999 25.0144 109.31 25.0144C108.702 25.0144 108.215 25.4176 108.215 26.3909V31.1357H105.07V22.2822H107.547L108.066 23.1929C108.561 22.4247 109.312 22.0406 110.435 22.0406C111.557 22.0406 112.484 22.5394 113.032 23.4067ZM127.504 23.1929C127.999 22.4247 128.778 22.0406 129.873 22.0406L129.872 22.0388C131.683 22.0388 133 23.3337 133 25.3707V31.134H129.854V26.3717C129.854 25.4871 129.438 25.0144 128.749 25.0144C128.122 25.0144 127.654 25.435 127.654 26.3909V31.1357H124.508V22.2822H126.985L127.504 23.1929ZM81.9764 19.6856C81.9764 18.6566 82.7637 17.8623 83.7796 17.8623C84.7973 17.8623 85.5829 18.6566 85.5829 19.6856C85.5829 20.7145 84.7973 21.5087 83.7796 21.5087C82.762 21.5087 81.9764 20.7145 81.9764 19.6856ZM85.3526 31.1357H82.2068V22.2822H85.3526V31.1357ZM119.905 19.6856C119.905 18.6566 120.692 17.8623 121.708 17.8623C122.725 17.8623 123.511 18.6566 123.511 19.6856C123.511 20.7145 122.725 21.5087 121.708 21.5087C120.69 21.5087 119.905 20.7145 119.905 19.6856ZM123.281 31.1357H120.135V22.2822H123.281V31.1357Z" fill="#465161"/>
</svg>
