<svg width="182" height="48" viewBox="0 0 182 48" fill="none" xmlns="http://www.w3.org/2000/svg">
<path d="M63.9992 26.4606C62.6935 24.207 60.2877 22.8179 57.6831 22.8136H49.442L51.0655 25.6124H57.6831C59.2885 25.6156 60.771 26.4725 61.5752 27.8616C62.8164 30.011 62.0798 32.7604 59.9304 34.0015C57.7809 35.2427 55.0316 34.5061 53.7904 32.3567L53.0614 31.093L51.4491 33.8862C53.5384 37.3288 58.0235 38.4252 61.4655 36.3359C64.853 34.2799 65.9782 29.8944 63.9992 26.4612V26.4606Z" fill="#465161"/>
<path d="M44.088 37.3721C46.6925 37.3683 49.0984 35.9792 50.4041 33.7257L53.4631 28.4257L53.6123 28.1674L54.525 26.5872L51.2892 26.5941L47.9807 32.3247C47.1758 33.7132 45.6933 34.5688 44.0886 34.5719C41.6063 34.5719 39.5941 32.5604 39.5935 30.0781C39.5935 27.5958 41.605 25.5836 44.0874 25.5829H45.5473L43.9325 22.7891C39.9069 22.8806 36.7169 26.2186 36.8084 30.2442C36.898 34.2021 40.1294 37.3652 44.088 37.3702V37.3721Z" fill="#465161"/>
<path d="M57.1847 14.6457C55.1719 11.1592 50.7137 9.96503 47.2272 11.9778C44.9718 13.2798 43.5827 15.6856 43.5827 18.2896C43.5827 18.6042 43.604 18.9183 43.6454 19.2298V19.2336C43.7062 19.7056 43.8134 20.1701 43.9645 20.6214C44.0102 20.7587 44.0616 20.8941 44.1162 21.0289C44.1218 21.0427 44.1262 21.0571 44.1318 21.0709C44.1876 21.2075 44.2497 21.3423 44.3142 21.4758C44.3199 21.4871 44.3243 21.4984 44.3293 21.5097C44.4007 21.6545 44.4766 21.7974 44.5581 21.9378L45.0596 22.8154L46.6737 25.6143L48.6796 29.0914L50.295 26.2907L49.8995 25.6124L46.9771 20.54C46.7213 20.0798 46.5439 19.5809 46.4518 19.0625C46.4361 18.9728 46.4198 18.8838 46.4098 18.7942C46.3339 18.1072 46.4173 17.412 46.6536 16.7626C46.7401 16.5143 46.8486 16.2743 46.9777 16.0455C48.2076 13.8897 50.9526 13.1388 53.1089 14.3686C55.2646 15.5985 56.0156 18.3435 54.7857 20.4998C54.7782 20.5136 54.7701 20.5268 54.7625 20.5406L54.0279 21.8143H57.253C58.4835 19.5771 58.4584 16.8597 57.1859 14.6457H57.1847Z" fill="#465161"/>
<path d="M75.5996 16.1916C75.6084 16.4981 75.4805 16.7927 75.2511 16.9964C74.8224 17.4177 74.136 17.4177 73.7072 16.9964C73.4759 16.7927 73.3474 16.4968 73.3562 16.1891C73.3474 15.8813 73.4759 15.5854 73.7072 15.3817C74.136 14.9604 74.8224 14.9604 75.2511 15.3817C75.4818 15.586 75.6097 15.8832 75.5996 16.1916Z" fill="#465161"/>
<path d="M75.2744 20.4035H73.6835V31.3545H75.2744V20.4035Z" fill="#465161"/>
<path d="M79.4859 21.6671C79.4702 21.1995 79.4471 20.7783 79.4157 20.4034H80.9364C80.9678 20.6999 80.9916 21.0271 81.0073 21.3863C81.0223 21.7455 81.0305 22.0414 81.0305 22.2758H81.0769C81.3897 21.6352 81.8761 21.0961 82.481 20.7193C83.1104 20.32 83.8419 20.1125 84.5872 20.1226C84.7897 20.1226 84.9733 20.1307 85.137 20.1464C85.3062 20.1633 85.4742 20.1947 85.6384 20.2398L85.4297 21.7605C85.2767 21.7166 85.12 21.6853 84.9621 21.6665C84.7452 21.6358 84.5264 21.6201 84.307 21.6195C83.8902 21.6189 83.4771 21.6985 83.0903 21.8533C82.696 22.0119 82.3469 22.2639 82.0723 22.5886C81.7833 22.9227 81.5495 23.3508 81.3702 23.8724C81.1909 24.3939 81.1013 25.0208 81.1013 25.7529V31.3557H79.5097V22.8136C79.5097 22.5178 79.5016 22.1354 79.4859 21.6671Z" fill="#465161"/>
<path d="M89.8765 16.1916C89.8841 16.4987 89.7556 16.7933 89.5255 16.9964C89.0967 17.4177 88.4097 17.4177 87.981 16.9964C87.7503 16.7927 87.6211 16.4968 87.6299 16.1891C87.6211 15.8813 87.7496 15.5854 87.981 15.3817C88.4097 14.9604 89.0967 14.9604 89.5255 15.3817C89.7574 15.586 89.8859 15.8825 89.8765 16.1916Z" fill="#465161"/>
<path d="M89.548 20.4034H87.957V31.3544H89.548V20.4034Z" fill="#465161"/>
<path d="M102.794 29.5059C102.344 30.1948 101.712 30.7464 100.969 31.1006C100.247 31.4535 99.4532 31.6372 98.6496 31.6384C97.7915 31.6384 97.0148 31.4905 96.3209 31.194C95.6514 30.9125 95.0471 30.4969 94.5456 29.9723C94.0467 29.4457 93.6568 28.8258 93.3991 28.1475C92.8531 26.6832 92.8531 25.0716 93.3991 23.6072C93.6568 22.929 94.0467 22.309 94.5456 21.7825C95.0496 21.261 95.6545 20.8479 96.324 20.5695C97.0179 20.2737 97.794 20.1257 98.6527 20.1251C99.4582 20.127 100.252 20.315 100.972 20.6755C101.718 21.0397 102.35 21.6026 102.797 22.3015H102.844V13.6642H104.435V31.3551H102.844V29.5059H102.794ZM94.6741 25.8789C94.6704 26.4638 94.7657 27.0455 94.955 27.599C95.1299 28.1155 95.4038 28.5926 95.7623 29.0032C96.1215 29.4068 96.5647 29.7259 97.0612 29.939C97.6159 30.1735 98.2139 30.2894 98.8163 30.2788C100.545 30.302 102.103 29.2395 102.713 27.6222C103.134 26.4983 103.134 25.2602 102.713 24.1363C102.514 23.616 102.216 23.139 101.835 22.7322C101.459 22.3329 101.005 22.0144 100.501 21.7957C99.9697 21.5662 99.3956 21.4509 98.8163 21.4565C98.2127 21.4459 97.6141 21.5656 97.0612 21.8076C96.566 22.0276 96.1228 22.3504 95.7623 22.7554C95.4038 23.1659 95.1292 23.643 94.955 24.1595C94.7657 24.713 94.6704 25.2941 94.6741 25.8789Z" fill="#465161"/>
<path d="M110.633 16.1916C110.641 16.4994 110.512 16.7953 110.282 16.999C109.853 17.4202 109.166 17.4202 108.737 16.999C108.506 16.7953 108.377 16.4994 108.386 16.1916C108.377 15.8838 108.506 15.5879 108.737 15.3842C109.166 14.963 109.853 14.963 110.282 15.3842C110.512 15.5879 110.641 15.8838 110.633 16.1916Z" fill="#465161"/>
<path d="M110.304 20.4034H108.713V31.3544H110.304V20.4034Z" fill="#465161"/>
<path d="M122.497 31.3551C122.466 31.0586 122.442 30.7307 122.427 30.3722C122.411 30.0136 122.404 29.7171 122.404 29.4827H122.357C122.044 30.1227 121.537 30.6411 120.836 31.0385C120.16 31.4296 119.393 31.6353 118.613 31.6353C117.224 31.6353 116.183 31.2222 115.489 30.3953C114.795 29.5685 114.448 28.4766 114.448 27.1194V20.4034H116.039V26.4619C116.034 26.9878 116.081 27.5125 116.179 28.029C116.257 28.4584 116.42 28.8684 116.659 29.2338C116.887 29.5717 117.203 29.8425 117.571 30.018C117.954 30.2048 118.434 30.2982 119.013 30.2988C119.436 30.2988 119.854 30.2104 120.242 30.0412C120.65 29.8619 121.015 29.5942 121.307 29.257C121.643 28.8665 121.899 28.4133 122.059 27.9237C122.246 27.3852 122.34 26.7496 122.34 26.0168V20.4003H123.931V28.9448C123.931 29.2413 123.939 29.6231 123.955 30.0907C123.971 30.5583 123.995 30.9796 124.025 31.3551H122.497Z" fill="#465161"/>
<path d="M131.144 20.7193C131.794 20.3207 132.545 20.1138 133.308 20.1226C133.618 20.1238 133.928 20.1552 134.232 20.216C134.563 20.2831 134.879 20.4059 135.168 20.5789C135.485 20.7701 135.77 21.0108 136.011 21.2929C136.295 21.6352 136.52 22.0232 136.678 22.4394C137.054 21.6903 137.565 21.1168 138.21 20.7193C138.856 20.3219 139.624 20.1232 140.515 20.1226C141.903 20.1226 142.944 20.5363 143.639 21.3631C144.333 22.1899 144.68 23.2819 144.68 24.639V31.3551H143.089V25.2941C143.089 24.1401 142.875 23.2117 142.446 22.5096C142.017 21.8076 141.287 21.4565 140.257 21.4565C139.68 21.4565 139.192 21.5737 138.795 21.8076C138.405 22.0338 138.076 22.351 137.836 22.7322C137.586 23.1315 137.408 23.5709 137.309 24.031C137.199 24.5224 137.144 25.0245 137.146 25.5285V31.3551H135.554V24.9669C135.557 24.4804 135.518 23.9953 135.437 23.5157C135.375 23.1221 135.236 22.7441 135.028 22.4043C134.831 22.0984 134.551 21.8552 134.22 21.7022C133.877 21.5386 133.44 21.4571 132.91 21.4565C132.518 21.4609 132.131 21.5487 131.775 21.7142C131.378 21.8966 131.027 22.1642 130.746 22.4977C130.442 22.8487 130.195 23.2932 130.008 23.8316C129.82 24.3701 129.727 25.0057 129.728 25.7385V31.3551H128.136V22.8136C128.136 22.5178 128.129 22.1354 128.113 21.6671C128.097 21.1989 128.074 20.7776 128.043 20.4034H129.563C129.595 20.6999 129.618 21.0271 129.634 21.3863C129.649 21.7455 129.657 22.0414 129.657 22.2758H129.704C130.023 21.6283 130.523 21.0879 131.144 20.7193Z" fill="#465161"/>
</svg>
