<svg width="182" height="48" viewBox="0 0 182 48" fill="none" xmlns="http://www.w3.org/2000/svg">
<path fill-rule="evenodd" clip-rule="evenodd" d="M53.9026 21.0705L46.2598 13.3894H53.9026V21.0705ZM110.295 22.2476L108.349 23.2185V21.6274L110.295 20.6926L112.216 21.6274V23.2185L110.295 22.2476ZM119.299 32.367V20.8049H116.252V32.367H119.299ZM59.2423 23.9382C59.6779 23.1045 60.3442 22.4153 61.1609 21.9539C62.0354 21.4685 63.0219 21.2235 64.0208 21.2437C65.3892 21.2437 66.54 21.6107 67.4732 22.3449C68.4121 23.0918 69.0519 24.1536 69.2754 25.336H65.9952C65.8248 24.9453 65.5422 24.6147 65.1837 24.3865C64.8252 24.1582 64.407 24.0428 63.9827 24.055C63.6624 24.0427 63.3436 24.1047 63.0508 24.236C62.7581 24.3673 62.4993 24.5645 62.2945 24.8123C61.8756 25.3187 61.6662 25.9929 61.6662 26.8348C61.6662 27.6768 61.8756 28.3563 62.2945 28.8731C62.499 29.1214 62.7577 29.3188 63.0505 29.4502C63.3433 29.5816 63.6623 29.6432 63.9827 29.6304C64.4066 29.6378 64.8238 29.5241 65.1857 29.3023C65.5438 29.0707 65.8273 28.7397 66.0019 28.3495H69.2822C69.0575 29.5324 68.4151 30.5939 67.4732 31.3383C66.5415 32.0724 65.3907 32.4395 64.0208 32.4395C63.0219 32.4597 62.0354 32.2147 61.1609 31.7293C60.3438 31.2684 59.6772 30.5791 59.2423 29.745C58.7966 28.8419 58.5647 27.8474 58.5647 26.8393C58.5647 25.8313 58.7966 24.8368 59.2423 23.9337V23.9382ZM97.0302 32.3733V29.7643L96.1447 29.762C95.9474 29.7816 95.7501 29.7253 95.5924 29.6047C95.5323 29.5343 95.4868 29.4525 95.4588 29.3641C95.4307 29.2757 95.4207 29.1825 95.4292 29.0901V26.1484H97.0145V23.6023H95.4292V21.4764H92.368V23.6023H91.2947V26.1484H92.368V29.0451C92.368 31.2639 93.4816 32.3733 95.7087 32.3733H97.0302ZM72.6496 31.9287C71.9713 31.5743 71.4081 31.0324 71.0262 30.3668C70.6173 29.635 70.4126 28.8058 70.4337 27.9668C70.4156 27.1351 70.6227 26.314 71.0329 25.5914C71.4206 24.9274 71.9863 24.3862 72.6653 24.0296C73.3935 23.6704 74.194 23.4836 75.0052 23.4836C75.8165 23.4836 76.617 23.6704 77.3453 24.0296C78.0243 24.3862 78.5898 24.9274 78.9776 25.5914C79.3694 26.3225 79.5745 27.1398 79.5745 27.9702C79.5745 28.8005 79.3694 29.6178 78.9776 30.3488C78.5909 31.0198 78.0215 31.5656 77.3363 31.9219C76.6057 32.2827 75.8025 32.4703 74.9885 32.4703C74.1744 32.4703 73.3712 32.2827 72.6406 31.9219L72.6496 31.9287ZM76.0528 29.3421C76.3618 28.9571 76.5151 28.4692 76.4822 27.9757C76.5132 27.488 76.3599 27.0064 76.0528 26.6274C75.9224 26.4775 75.761 26.3581 75.5799 26.2773C75.3987 26.1966 75.2023 26.1565 75.0041 26.16C74.8073 26.1564 74.6121 26.1965 74.4324 26.2773C74.2527 26.3581 74.0929 26.4776 73.9644 26.6274C73.6623 27.0086 73.5124 27.4894 73.544 27.9757C73.544 28.575 73.6789 29.0335 73.9487 29.3511C74.0758 29.5027 74.2353 29.6236 74.4153 29.7045C74.5953 29.7854 74.7913 29.8244 74.9885 29.8185C75.1898 29.8227 75.3897 29.7822 75.5737 29.6998C75.7576 29.6174 75.9212 29.4953 76.0528 29.3421ZM106.18 30.3669C106.563 31.0322 107.127 31.574 107.805 31.9288C108.529 32.2986 109.332 32.4838 110.144 32.4681C110.959 32.4809 111.765 32.2934 112.492 31.922C113.177 31.5663 113.746 31.0202 114.132 30.3489C114.525 29.6184 114.73 28.8009 114.73 27.9703C114.73 27.1396 114.525 26.3221 114.132 25.5916C113.744 24.927 113.178 24.3857 112.499 24.0297C111.771 23.6705 110.971 23.4837 110.16 23.4837C109.349 23.4837 108.549 23.6705 107.821 24.0297C107.142 24.3857 106.576 24.927 106.189 25.5916C105.777 26.3137 105.57 27.135 105.59 27.9669C105.568 28.8057 105.772 29.6349 106.18 30.3669ZM111.64 27.9759C111.673 28.4691 111.521 28.9569 111.213 29.3422C111.081 29.4954 110.918 29.6176 110.734 29.6999C110.55 29.7823 110.35 29.8228 110.149 29.8186C109.951 29.8243 109.755 29.7851 109.574 29.7042C109.395 29.6233 109.235 29.5027 109.107 29.3512C108.839 29.0336 108.704 28.5751 108.704 27.9759C108.673 27.49 108.822 27.0096 109.122 26.6276C109.251 26.4775 109.412 26.3577 109.591 26.277C109.771 26.1961 109.967 26.1562 110.164 26.1601C110.363 26.157 110.559 26.1971 110.74 26.2778C110.921 26.3585 111.083 26.4779 111.213 26.6276C111.52 27.0069 111.672 27.4884 111.64 27.9759ZM129.65 28.6004H123.883C123.881 28.9936 124.022 29.3739 124.279 29.6701C124.396 29.7871 124.536 29.8787 124.69 29.9394C124.844 30.0001 125.008 30.0285 125.174 30.023C125.403 30.0344 125.63 29.9746 125.825 29.8515C126.019 29.7285 126.171 29.5482 126.26 29.3353H129.509C129.38 29.9293 129.111 30.4835 128.724 30.951C128.327 31.4346 127.825 31.8191 127.255 32.0746C126.639 32.3516 125.971 32.4905 125.296 32.4814C124.499 32.4963 123.71 32.3085 123.004 31.9354C122.344 31.5768 121.801 31.0346 121.439 30.3735C121.069 29.6331 120.876 28.8157 120.876 27.9869C120.876 27.1582 121.069 26.3408 121.439 25.6004C121.801 24.9412 122.344 24.4011 123.004 24.0453C123.717 23.6884 124.502 23.5015 125.299 23.4991C126.096 23.4967 126.882 23.679 127.597 24.0318C128.251 24.3765 128.791 24.9051 129.151 25.5532C129.538 26.2688 129.731 27.0739 129.712 27.8881C129.707 28.1266 129.686 28.3646 129.65 28.6004ZM126.587 27.1172C126.595 26.9512 126.566 26.7854 126.501 26.6324C126.436 26.4793 126.338 26.3431 126.213 26.2341C125.949 26.03 125.624 25.9181 125.291 25.9152C124.958 25.9124 124.632 26.0188 124.364 26.2183C124.109 26.4538 123.944 26.772 123.899 27.1172H126.587ZM146.434 23.9623C146.905 23.6709 147.447 23.5154 148 23.5128V26.7781H147.146C146.481 26.7781 145.988 26.9084 145.668 27.1691C145.348 27.4275 145.187 27.8814 145.187 28.5174V32.3378H142.144V23.5735H145.203V25.1196C145.525 24.6487 145.945 24.2538 146.434 23.9623ZM90.0971 27.2561C90.0971 26.11 89.7989 25.2014 89.2026 24.5302C88.6123 23.859 87.8148 23.5235 86.8101 23.5235C86.2662 23.5131 85.7282 23.639 85.2448 23.8898C84.8098 24.1163 84.4367 24.4466 84.1581 24.8516V23.6021H81.1037V32.3663H84.1514V27.6629C84.1266 27.2345 84.265 26.8127 84.5383 26.4831C84.6757 26.3379 84.8429 26.2244 85.0281 26.1503C85.2134 26.0762 85.4124 26.0434 85.6116 26.0539C85.8058 26.0452 85.9996 26.0791 86.1796 26.1533C86.3594 26.2274 86.5212 26.3399 86.6535 26.4831C86.9258 26.8133 87.064 27.2346 87.0404 27.6629V32.3663H90.0971V27.2561ZM140.113 32.3675V23.6032H137.054V28.3045C137.078 28.7327 136.94 29.1544 136.667 29.4843C136.385 29.7597 136.007 29.9137 135.614 29.9137C135.221 29.9137 134.843 29.7597 134.561 29.4843C134.282 29.1574 134.139 28.7347 134.163 28.3045V23.6032H131.133V28.6932C131.136 29.8498 131.429 30.7637 132.012 31.4349C132.595 32.106 133.395 32.4417 134.414 32.4417C134.958 32.452 135.495 32.3261 135.979 32.0753C136.411 31.851 136.779 31.52 137.05 31.1135V32.3675H140.113ZM104.686 23.5128C104.133 23.5154 103.592 23.6709 103.121 23.9623C102.628 24.2525 102.203 24.6474 101.878 25.1196V23.5735H98.83V32.3378H101.878V28.5174C101.878 27.8814 102.039 27.4275 102.358 27.1691C102.679 26.9084 103.172 26.7781 103.836 26.7781H104.686V23.5128ZM45.4082 18.1839L49.1246 21.9188V18.1839H45.4082ZM65.0182 16.8517H67.773C67.7871 16.7377 67.7946 16.6228 67.7954 16.5079C67.8063 16.1161 67.7137 15.7284 67.527 15.3843C67.3535 15.0786 67.0968 14.8291 66.7869 14.6652C66.4497 14.4911 66.0748 14.4039 65.6958 14.4112C65.3121 14.4035 64.9327 14.494 64.5934 14.6742C64.2786 14.8433 64.0199 15.101 63.8487 15.4157C63.6716 15.7692 63.5794 16.1594 63.5794 16.5551C63.5794 16.9508 63.6716 17.341 63.8487 17.6944C64.0222 18.0109 64.2832 18.27 64.6 18.4405C64.937 18.6184 65.313 18.7081 65.6935 18.7012C66.0153 18.7051 66.3341 18.6392 66.6281 18.5079C66.9001 18.3865 67.1404 18.2035 67.3303 17.9731C67.5147 17.7499 67.6435 17.4856 67.7059 17.2023H66.1541C66.1116 17.3039 66.039 17.3898 65.9462 17.4485C65.8534 17.5072 65.7449 17.5358 65.6354 17.5304C65.5565 17.5332 65.4779 17.5196 65.4044 17.4906C65.3309 17.4616 65.2642 17.4178 65.2083 17.3619C65.0851 17.2208 65.0175 17.0394 65.0182 16.8517ZM66.2692 15.9108C66.3002 15.9836 66.3144 16.0625 66.3107 16.1416H65.0137C65.0351 15.977 65.1144 15.8255 65.2373 15.7146C65.3628 15.611 65.5225 15.5589 65.6846 15.5686C65.8473 15.5616 66.0069 15.6161 66.1318 15.7214C66.1912 15.7733 66.2382 15.838 66.2692 15.9108ZM61.3491 17.5288H62.9747V18.6524H59.8913V13.3894H61.3491V17.5288ZM48.1961 26.8446C48.8044 25.9289 49.1289 24.8525 49.1284 23.7514L53.9001 23.7492C53.9049 25.4919 53.4712 27.2074 52.6394 28.7364C51.8077 30.2655 50.6047 31.5585 49.1425 32.495C47.6803 33.4316 46.0061 33.9815 44.2757 34.0935C42.5454 34.2056 40.8148 33.8761 39.2451 33.1359H34.1984V28.0279C33.4837 26.4498 33.1749 24.7166 33.3004 22.9874C33.4259 21.2582 33.9815 19.5884 34.9164 18.1312C35.8513 16.674 37.1354 15.4762 38.6508 14.6477C40.1663 13.8191 41.8646 13.3865 43.5897 13.3894V18.1873C42.4942 18.1873 41.4232 18.5138 40.5124 19.1255C39.6015 19.7373 38.8916 20.6068 38.4725 21.624C38.0533 22.6413 37.9438 23.7606 38.1576 24.8405C38.3715 25.9203 38.8993 26.9121 39.6741 27.6905C40.4489 28.4689 41.436 28.9989 42.5106 29.2134C43.5851 29.428 44.6988 29.3174 45.7109 28.8957C46.7229 28.4741 47.5877 27.7603 48.1961 26.8446Z" fill="#465161"/>
</svg>
