<svg width="182" height="48" viewBox="0 0 182 48" fill="none" xmlns="http://www.w3.org/2000/svg">
<path d="M112.218 28.8407C111.086 28.8407 110.084 27.6951 110.084 24.6708C110.084 21.3258 112 16.6976 114.961 16.6976C116.311 16.6976 116.834 18.1182 116.834 19.9511C116.877 23.5252 114.787 28.8407 112.218 28.8407ZM100.814 26.0118C100.81 26.0342 100.81 26.0563 100.802 26.0777C100.779 26.1465 100.744 26.2156 100.705 26.2758C99.9218 27.4635 98.782 28.2908 97.8906 28.2908C97.0196 28.2908 95.9745 27.3286 95.9745 25.5873C95.9745 22.3797 97.5857 16.6518 101.07 16.6518C101.418 16.6518 101.766 16.6976 102.115 16.8351C102.445 16.9219 102.345 17.4227 102.283 17.7709L100.814 26.0118ZM96.0616 39.9299C95.4083 39.9299 94.5374 39.38 94.5374 38.326C94.5374 36.539 96.2793 35.2559 98.8051 33.8354C99.0664 33.6979 99.3712 33.9271 99.2841 34.2478C98.3696 38.0053 97.6293 39.9299 96.0616 39.9299ZM80.5586 16.7434C81.1683 16.7434 81.4296 17.4308 81.4296 18.0723C81.3425 20.226 79.6441 22.3797 76.9006 24.35C76.6393 24.5334 76.3345 24.3042 76.378 23.9835C76.6828 21.3715 77.8151 16.7434 80.5586 16.7434ZM72.9378 8.12872C73.2861 8.12872 73.591 8.54112 73.591 9.091C73.591 10.0991 71.7184 14.6355 69.3233 19.5386C69.1491 19.9052 68.583 19.7219 68.6701 19.3095C69.8894 13.1234 71.9797 8.12872 72.9378 8.12872ZM114.265 14.0399C109.344 14.0399 105.903 20.5467 105.903 25.7247C105.903 26.3663 105.947 27.0078 106.078 27.6035C106.16 27.8633 105.837 28.047 105.62 28.2011C105.192 28.5042 104.742 28.8244 104.292 29.1156C104.031 29.2531 103.726 29.0698 103.77 28.7491C103.77 28.6116 103.813 28.4283 103.857 28.245L106.252 14.9105C106.341 14.628 105.957 14.4561 105.687 14.3571C105.463 14.2749 105.212 14.2231 104.945 14.2231C104.336 14.2231 103.682 14.4523 103.203 14.9563C103.073 15.0938 102.855 15.0938 102.724 15.0022C102.028 14.4065 101.2 14.1315 100.068 14.1315C96.1051 14.1315 92.4907 20.226 92.4471 25.8622C92.4471 26.2746 92.4907 26.7328 92.5342 27.2369C92.5342 27.5036 92.3017 27.686 92.0854 27.8296C91.3598 28.3113 90.5041 28.6574 89.7472 28.6574C88.9198 28.6574 88.3972 28.0617 88.7891 26.1371L90.531 16.9267C90.5746 16.7434 90.7052 16.6518 90.8794 16.6518H93.3616C94.2761 16.6518 94.7552 15.9644 94.7552 15.0022C94.7552 14.8189 94.5809 14.6355 94.4068 14.6355H91.4455C91.2278 14.6355 91.0536 14.4065 91.0971 14.1774L91.9245 10.0533C91.9681 9.86999 91.881 9.73252 91.7504 9.64088C91.402 9.45759 90.9229 9.32011 90.4439 9.32011C89.2681 9.32011 88.0488 9.91581 87.7004 11.4738L87.1343 14.269C87.0908 14.4523 86.9601 14.5439 86.7859 14.5439H86.4375C85.523 14.5439 85.044 15.2313 85.044 16.1935C85.044 16.3768 85.2182 16.5602 85.3924 16.5602H86.2634C86.4811 16.5602 86.6553 16.7893 86.6117 17.0183L84.9546 25.2006C84.9271 25.3358 84.9197 25.4889 84.8263 25.5873C83.3892 27.3743 81.0376 28.7949 78.9473 28.7949C77.7332 28.7949 76.8009 28.276 76.4355 26.9716C76.3496 26.6652 76.2542 26.2698 76.5087 26.0913C82.4747 22.563 83.7811 20.3176 83.8682 17.3391C83.9118 15.7811 83.2586 14.0399 80.4715 14.0399C75.3764 14.0399 72.5893 21.1883 72.4152 25.6331C72.4152 26.183 72.4152 26.687 72.4587 27.1452C72.4587 27.2827 72.4152 27.4202 72.2845 27.5119C71.37 28.0617 70.3249 28.4283 69.4539 28.4283C68.3217 28.4283 67.4072 27.741 67.6685 25.9539C67.712 25.5873 67.7556 25.1291 67.7991 24.7624C67.7991 24.6671 67.8693 24.5821 67.919 24.502C72.064 17.8116 75.3764 11.5032 75.3764 8.81606C75.42 7.12062 74.2006 5.88339 72.6765 5.88339C68.4088 5.88339 65.0992 14.3148 63.575 26.7328C63.1395 30.3528 64.925 31.8192 67.1895 31.8192C68.9749 31.8192 71.1088 30.9944 72.7636 29.6197C72.9378 29.4822 73.1555 29.528 73.2426 29.7113C74.1571 31.1319 75.6377 31.8192 77.3796 31.8192C79.557 31.8192 81.8651 30.7652 83.8247 28.8407C84.0424 28.6116 84.3908 28.7491 84.3908 29.0698C84.5215 31.0402 85.6537 31.8192 87.1343 31.8192C88.9633 31.8192 91.01 30.7195 92.5342 29.2531C92.7084 29.0698 92.9697 29.1615 93.1003 29.3906C93.71 30.7652 94.7116 31.8192 96.3228 31.8192C97.4551 31.8192 98.5873 31.086 99.5454 29.9404C99.8066 29.6655 100.242 29.8946 100.155 30.2612C100.127 30.439 100.08 30.6169 100.039 30.7948C99.9952 30.9866 99.976 31.226 99.8067 31.3151C97.3245 32.6898 92.6213 35.0727 92.6213 39.0134C92.6213 41.1212 94.2761 43 96.41 43C101.081 43 101.915 38.0736 103.185 31.8896C103.226 31.6911 103.247 31.4527 103.421 31.361C104.466 30.7652 105.511 30.0321 106.295 29.4364C106.47 29.2989 106.687 29.3447 106.774 29.528C107.515 30.9027 108.821 31.7734 110.694 31.7734C115.789 31.7734 119.316 25.2665 119.316 20.1802C119.316 16.8351 117.835 14.0399 114.265 14.0399Z" fill="#465161"/>
</svg>
