<svg width="182" height="48" viewBox="0 0 182 48" fill="none" xmlns="http://www.w3.org/2000/svg">
<path d="M42.8486 21.8049C46.6534 21.8049 49.7166 24.7948 49.7166 28.4937C49.7166 32.1917 46.6333 35.2195 42.8683 35.2195C39.0445 35.2195 35.9998 32.2102 35.9998 28.4352C35.9998 24.7561 39.0445 21.8049 42.8486 21.8049ZM42.8683 31.0428C44.2737 31.0428 45.424 29.8918 45.424 28.5126C45.424 27.1517 44.2737 26.039 42.8683 26.039C41.4649 26.039 40.3125 27.1328 40.3125 28.4937C40.3125 29.8918 41.4649 31.0428 42.8683 31.0428Z" fill="#465161"/>
<path d="M52.9543 26.0213C51.6872 26.0213 50.8281 25.2352 50.8281 24.0852C50.8281 23.4915 51.0624 22.9742 51.4911 22.6097C51.9219 22.2652 52.3878 22.1113 53.1496 22.1113H58.8863C59.8421 22.1113 60.2519 22.2074 60.7016 22.5138C61.2279 22.8589 61.5401 23.4528 61.5401 24.0661C61.5401 24.5645 61.4227 24.852 60.9161 25.542L57.0723 30.9271H59.2173C60.1157 30.9271 60.5461 31.0226 60.994 31.3482C61.5002 31.7131 61.7931 32.2687 61.7931 32.9206C61.7931 33.5326 61.5002 34.1276 61.0514 34.4721C60.622 34.7981 60.2322 34.8941 59.2953 34.8941H52.9753C51.7249 34.8941 50.8281 34.0699 50.8281 32.9003C50.8281 32.4796 50.9836 32.0586 51.238 31.6754L55.2762 26.0213L52.9543 26.0213Z" fill="#465161"/>
<path d="M67.5091 32.2687C67.4894 33.3227 67.4316 33.5913 67.1395 34.051C66.7485 34.6449 66.0852 34.9901 65.3632 34.9901C64.6215 34.9901 63.9585 34.6449 63.5693 34.051C63.2768 33.5913 63.198 33.227 63.198 32.2687V24.5645C63.198 23.6642 63.2956 23.281 63.6472 22.8398C64.0562 22.3229 64.6793 22.0154 65.3431 22.0154C66.0073 22.0154 66.6903 22.3416 67.0817 22.8398C67.4316 23.2995 67.5091 23.5683 67.5091 24.6604V26.4625H70.1239V24.7174C70.1239 23.7025 70.2035 23.3191 70.5727 22.8398C70.9632 22.3229 71.5683 22.0154 72.2325 22.0154C72.8954 22.0154 73.5583 22.3229 73.9493 22.8206C74.2803 23.2417 74.4174 23.7407 74.4174 24.5645V32.3074C74.4174 33.1877 74.3386 33.5326 74.0654 33.9736C73.6753 34.6067 72.993 34.9901 72.2513 34.9901C71.5683 34.9901 70.9247 34.683 70.5345 34.1469C70.2035 33.6868 70.1239 33.3227 70.1239 32.3074V30.4664H67.5091V32.2687Z" fill="#465161"/>
<path d="M77.9076 34.9901C76.7184 34.9901 75.7822 34.07 75.7822 32.8819C75.7822 32.5179 75.8799 32.1345 76.0554 31.7703L80.1315 23.281C80.5044 22.4951 81.244 22.0154 82.103 22.0154C82.9805 22.0154 83.7222 22.4951 84.1128 23.2996L88.211 31.8849C88.3853 32.2103 88.464 32.5745 88.464 32.9003C88.464 34.051 87.489 34.9901 86.2981 34.9901C85.3041 34.9901 84.7178 34.5297 84.1128 33.227H80.1315C79.5863 34.4721 78.9427 34.9901 77.9076 34.9901ZM83.1163 30.1365L82.1022 27.7965L81.0911 30.1365H83.1163Z" fill="#465161"/>
<path d="M99.4095 31.5591C99.6827 31.9816 99.8181 32.4796 99.8181 32.9206C99.8181 34.0893 98.8832 34.9901 97.673 34.9901C96.9116 34.9901 96.2864 34.6449 95.8967 34.0123L94.1212 31.1191V32.8624C94.1212 34.0699 93.2043 34.9901 92.0151 34.9901C91.3698 34.9901 90.727 34.703 90.3369 34.2229C89.984 33.7827 89.8281 33.227 89.8281 32.4212V24.5456C89.8281 23.6251 90.0243 23.1087 90.5317 22.6669C91.0199 22.2459 91.4486 22.1113 92.4823 22.1113H94.2758C95.3314 22.1113 95.8003 22.1687 96.3639 22.3033C98.3744 22.8589 99.7795 24.6405 99.7795 26.7103C99.7795 27.9372 99.3894 28.8771 98.395 29.9692L99.4095 31.5591ZM93.99 27.6106C93.99 27.6106 94.4924 27.6106 94.5918 27.6106C95.4198 27.6343 95.8456 27.3404 95.8456 26.7486C95.8456 26.1575 95.3934 25.8369 94.5675 25.8618C94.4401 25.8618 93.99 25.8618 93.99 25.8618V27.6106Z" fill="#465161"/>
<path d="M109.203 23.3191C109.535 22.5328 110.335 22.0154 111.193 22.0154C112.382 22.0154 113.34 22.9359 113.34 24.0852C113.34 24.4304 113.262 24.7755 113.106 25.0819L109.066 33.5712C108.618 34.5104 107.916 34.9901 106.979 34.9901C106.081 34.9901 105.342 34.5104 104.95 33.6868L100.95 25.2165C100.735 24.7755 100.637 24.3923 100.637 24.0661C100.637 22.9548 101.633 22.0154 102.822 22.0154C103.76 22.0154 104.501 22.5521 104.909 23.5296L106.979 28.321L109.203 23.3191Z" fill="#465161"/>
<path d="M120.909 30.9459C121.846 30.9459 122.256 31.0613 122.703 31.4255C123.153 31.8083 123.407 32.345 123.407 32.9206C123.407 33.5145 123.133 34.0893 122.703 34.4529C122.276 34.7981 121.904 34.8941 120.93 34.8941H117.593C116.597 34.8941 116.324 34.8555 115.953 34.7217C115.29 34.4529 114.861 33.936 114.724 33.1877C114.666 32.9206 114.646 32.8046 114.646 31.9229V24.986C114.646 23.913 114.666 23.7788 114.84 23.3763C115.018 22.8972 115.428 22.5138 115.875 22.3229C116.363 22.131 116.461 22.1113 117.728 22.1113H120.305C121.533 22.1113 121.652 22.131 121.943 22.2074C122.841 22.4375 123.426 23.1653 123.426 24.048C123.426 24.6604 123.172 25.2352 122.724 25.6001C122.334 25.9254 121.885 26.059 121.085 26.059H118.939V27.0346H120.636C121.69 27.0346 122.374 27.5549 122.374 28.455C122.374 28.9328 122.159 29.2701 121.807 29.559C121.475 29.8072 121.162 29.8842 120.48 29.8842H118.939V30.9459H120.909Z" fill="#465161"/>
<path d="M124.557 31.9816C124.557 30.9086 125.417 30.0646 126.509 30.0646C127.034 30.0646 127.484 30.2375 128.031 30.6775C128.967 31.3868 129.083 31.4632 129.397 31.4632C129.728 31.4632 129.943 31.2336 129.943 30.9086C129.943 30.6775 129.845 30.5248 129.611 30.3711C129.493 30.2947 129.435 30.256 128.75 30.0062C128.4 29.8918 128.051 29.7772 127.699 29.6436C125.805 28.9919 124.868 27.7843 124.868 26.0024C124.868 23.5108 126.821 21.8049 129.65 21.8049C131.991 21.8049 133.825 23.0318 133.825 24.6028C133.825 25.6186 133.123 26.3468 132.148 26.3468C131.562 26.3468 131.093 26.1551 130.371 25.6186C129.923 25.2541 129.708 25.1588 129.474 25.1588C129.201 25.1588 128.967 25.3891 128.967 25.6572C128.967 26.039 129.24 26.2123 130.254 26.5384C131.366 26.8648 132.42 27.3808 133.025 27.8796C133.825 28.5319 134.333 29.6813 134.333 30.8889C134.333 32.0384 133.884 33.1509 133.104 33.936C132.224 34.798 131.054 35.2195 129.454 35.2195C126.684 35.2195 124.557 33.8014 124.557 31.9816Z" fill="#465161"/>
<path d="M137.238 26.039C136.498 26.039 136.009 25.8678 135.62 25.485C135.23 25.0819 135.015 24.6028 135.015 24.0852C135.015 23.3569 135.503 22.5904 136.127 22.3229C136.576 22.131 136.752 22.1113 138.448 22.1113H142.78C143.99 22.1113 143.99 22.1113 144.244 22.15C145.278 22.2835 146 23.0695 146 24.0661C146 24.6211 145.728 25.1975 145.298 25.5799C144.965 25.8867 144.419 26.039 143.639 26.039H142.683V32.4027C142.683 33.1694 142.585 33.5913 142.312 34.0313C141.922 34.6449 141.278 34.9901 140.536 34.9901C139.814 34.9901 139.172 34.6639 138.762 34.1086C138.468 33.6672 138.391 33.303 138.391 32.4409V26.039H137.238Z" fill="#465161"/>
</svg>
