<svg width="182" height="48" viewBox="0 0 182 48" fill="none" xmlns="http://www.w3.org/2000/svg">
<path d="M115.162 27.3556C115.23 27.3098 115.288 27.2525 115.345 27.1952C115.402 27.1379 115.437 27.0806 115.459 27.0119C115.482 26.9431 115.482 26.8629 115.448 26.7712C115.437 26.7483 115.437 26.7369 115.448 26.7369C115.459 26.7369 115.459 26.7139 115.459 26.7025C115.448 26.6796 115.437 26.6566 115.437 26.6223C115.437 26.5879 115.425 26.565 115.414 26.5421C115.379 26.4962 115.333 26.4389 115.288 26.3817C115.242 26.3244 115.196 26.2671 115.139 26.2212C115.127 26.1983 115.116 26.1869 115.104 26.1869C115.093 26.1869 115.07 26.1639 115.047 26.1525C114.967 26.1067 114.898 26.0494 114.806 26.015C114.715 25.9806 114.657 25.9119 114.6 25.8431C114.531 25.7514 114.451 25.6712 114.371 25.6025C114.291 25.5337 114.176 25.4879 114.039 25.4764C114.004 25.4764 113.97 25.465 113.947 25.4421C113.752 25.2817 113.569 25.2702 113.385 25.3962C113.248 25.4764 113.133 25.5681 113.042 25.6712C112.984 25.7285 112.95 25.7973 112.904 25.8546C112.423 26.2441 111.965 26.6337 111.529 27.0691C111.071 27.5275 110.544 27.9285 110.154 28.4327C110.143 28.4441 110.131 28.4327 110.131 28.4441C110.063 28.5244 110.005 28.6046 109.948 28.6962C109.822 28.8452 109.696 28.9827 109.558 29.1316C109.398 29.315 109.249 29.4869 109.1 29.6587C109.066 29.7046 109.043 29.7504 109.031 29.8077C109.008 29.865 108.997 29.9108 108.963 29.9681C108.94 30.0139 108.905 30.0598 108.859 30.0941C108.814 30.1285 108.745 30.1514 108.653 30.1514C108.665 30.3004 108.619 30.4035 108.527 30.4608C108.424 30.5181 108.344 30.5983 108.264 30.6785C108.172 30.7816 108.08 30.8848 108 30.9994C107.92 31.1025 107.851 31.24 107.805 31.3775C107.759 31.4921 107.679 31.5952 107.576 31.6983C107.473 31.8014 107.37 31.9046 107.267 32.0077C107.083 32.1681 106.934 32.3514 106.82 32.5462C106.705 32.741 106.614 32.9587 106.533 33.1764C106.533 33.1993 106.522 33.2108 106.499 33.2223C106.476 33.2337 106.442 33.2452 106.419 33.2681C106.304 33.3941 106.19 33.5202 106.087 33.6462C105.983 33.7723 105.88 33.9098 105.789 34.0358C105.731 34.0931 105.697 34.1618 105.651 34.2306C105.617 34.2993 105.582 34.3566 105.537 34.4254V34.4139C105.559 34.3681 105.559 34.3108 105.559 34.2535C105.559 34.1962 105.559 34.1389 105.582 34.0931C105.594 34.0473 105.605 33.99 105.617 33.9556C105.628 33.9098 105.64 33.8639 105.651 33.8181C105.663 33.715 105.674 33.6118 105.685 33.5202C105.697 33.4171 105.708 33.3254 105.72 33.2223C105.72 33.165 105.731 33.0962 105.743 33.0389C105.754 32.9816 105.766 32.9129 105.789 32.8556C105.834 32.8441 105.88 32.7754 105.926 32.6493C105.972 32.5233 106.018 32.3973 106.052 32.2483C106.087 32.0993 106.121 31.9733 106.144 31.8358C106.167 31.7098 106.167 31.6296 106.155 31.6181C106.213 31.5035 106.27 31.4118 106.316 31.3202C106.362 31.24 106.407 31.1598 106.465 31.0681L106.407 31.0566C106.384 31.0681 106.339 31.091 106.27 31.1369C106.258 31.1254 106.247 31.1139 106.235 31.1025C106.224 31.091 106.213 31.0796 106.213 31.0681C106.235 31.0452 106.247 31.0223 106.27 30.9994C106.281 30.9764 106.304 30.965 106.327 30.965C106.407 30.9764 106.465 30.965 106.488 30.9306C106.51 30.8962 106.522 30.8619 106.545 30.816C106.568 30.7702 106.591 30.7244 106.614 30.69C106.637 30.6556 106.659 30.6098 106.659 30.5639C106.671 30.5181 106.659 30.4608 106.659 30.4035C106.648 30.3577 106.637 30.3004 106.637 30.2431C106.637 30.2316 106.637 30.2316 106.648 30.2316C106.659 30.2316 106.659 30.2316 106.659 30.2202C106.682 30.2202 106.705 30.2202 106.74 30.2087C106.763 30.2087 106.797 30.1973 106.82 30.1973C106.717 30.0827 106.682 30.0025 106.728 29.9566C106.774 29.9108 106.843 29.865 106.946 29.8077C106.946 29.7619 106.923 29.716 106.9 29.6473C106.912 29.6473 106.923 29.6473 106.934 29.6587C106.946 29.6702 106.957 29.6702 106.969 29.6702C106.992 29.6358 107.015 29.6129 107.038 29.59C107.06 29.5671 107.083 29.5327 107.106 29.5098C107.129 29.4869 107.141 29.4639 107.129 29.4296C107.129 29.3952 107.129 29.3723 107.141 29.3494C107.232 29.1775 107.313 29.0056 107.404 28.8452C107.484 28.6848 107.588 28.5129 107.702 28.3525C107.782 28.2264 107.851 28.1004 107.897 27.9514C107.943 27.8025 108.046 27.6994 108.195 27.6077C108.218 27.5848 108.252 27.5619 108.309 27.5275C108.367 27.4931 108.355 27.4358 108.298 27.3441C108.287 27.3441 108.287 27.3327 108.298 27.3098C108.309 27.2869 108.321 27.2754 108.332 27.2639C108.39 27.1608 108.47 27.0577 108.55 26.966C108.63 26.8744 108.688 26.7712 108.699 26.6566C108.733 26.6223 108.745 26.6108 108.733 26.6108C108.825 26.5764 108.882 26.5306 108.905 26.4504C108.928 26.3816 108.951 26.3014 108.985 26.2327C109.031 26.141 109.123 26.0494 109.238 25.9577C109.432 25.7973 109.535 25.6254 109.558 25.4192C109.558 25.3962 109.558 25.3848 109.57 25.3733C109.581 25.3619 109.593 25.3504 109.604 25.3275C109.639 25.2817 109.673 25.2473 109.707 25.2129C109.742 25.1785 109.776 25.1442 109.799 25.0983C109.833 25.0525 109.845 24.9952 109.856 24.9379C109.868 24.8921 109.902 24.8462 109.982 24.8348C110.005 24.8233 110.017 24.8004 110.028 24.766C110.04 24.7317 110.051 24.6973 110.074 24.6858C110.143 24.6285 110.189 24.5827 110.234 24.5598C110.246 24.5369 110.257 24.5369 110.28 24.5369C110.303 24.5369 110.315 24.5369 110.326 24.5139C110.383 24.4337 110.452 24.3535 110.509 24.2619C110.567 24.1817 110.635 24.1014 110.693 24.0098C110.807 23.8608 110.922 23.7233 111.025 23.5744C111.128 23.4254 111.231 23.2879 111.334 23.1389C111.38 23.0817 111.403 23.0129 111.426 22.9442C111.449 22.8754 111.472 22.8067 111.506 22.7379C111.518 22.715 111.529 22.6921 111.541 22.6806C111.552 22.6577 111.575 22.6348 111.598 22.6233C111.621 22.6119 111.644 22.5775 111.678 22.566C111.713 22.5546 111.735 22.5202 111.758 22.5087C111.827 22.3598 111.827 22.2337 111.77 22.0962C111.713 21.9702 111.655 21.8442 111.598 21.7181C111.541 21.5806 109.937 20.9504 109.891 21.0306C109.799 21.2025 109.696 21.3744 109.593 21.5462C109.49 21.7181 109.375 21.89 109.249 22.0619C109.043 22.3827 108.837 22.715 108.642 23.0358C108.435 23.3567 108.229 23.6775 108.034 24.0098C107.84 24.3077 107.645 24.5942 107.45 24.8921C107.255 25.19 107.072 25.4879 106.889 25.7858C106.682 26.1067 106.488 26.4389 106.293 26.7712C106.247 26.8629 106.19 26.9431 106.144 27.0233C105.926 27.3671 105.72 27.7223 105.514 28.1004C105.479 28.1577 105.445 28.2264 105.41 28.2837C105.319 28.4671 105.227 28.6389 105.147 28.8223C105.09 28.9483 105.032 29.0744 104.975 29.2004V29.2119C104.689 29.8421 104.459 30.4837 104.299 31.1369C104.276 31.2056 104.253 31.2858 104.242 31.3546C104.23 31.4004 104.219 31.4577 104.207 31.515C104.173 31.6525 104.15 31.8014 104.127 31.9389C104.116 32.0191 104.093 32.0993 104.081 32.1796C104.047 32.466 104.001 32.741 103.967 33.0046C103.875 33.5316 103.909 34.0473 104.07 34.5514C104.127 34.7233 104.207 34.8952 104.288 35.0556C104.368 35.216 104.505 35.3535 104.689 35.4681C104.803 35.5139 104.883 35.5941 104.941 35.6858C105.021 35.8462 105.147 35.9264 105.319 35.9493V35.9952C105.342 35.9952 105.353 35.9952 105.365 35.9837C105.365 35.9723 105.388 35.9723 105.41 35.9723C105.433 35.9608 105.456 35.9493 105.491 35.9379C105.514 35.9264 105.548 35.915 105.571 35.9035H105.594C105.685 35.8577 105.766 35.8004 105.846 35.7316C105.926 35.6743 106.006 35.6171 106.098 35.5598V35.5025C106.052 35.2618 106.087 35.0556 106.19 34.8723C106.293 34.6889 106.407 34.5171 106.533 34.3337C106.625 34.2077 106.74 34.0931 106.843 33.9785C106.957 33.8639 107.038 33.7379 107.083 33.6118C107.118 33.4973 107.152 33.3941 107.198 33.291C107.232 33.1879 107.29 33.0848 107.358 32.9931C107.473 32.8556 107.576 32.7296 107.668 32.5921C107.759 32.4546 107.863 32.3171 107.954 32.1796C108.069 32.0306 108.183 31.8931 108.298 31.7327C108.413 31.5837 108.527 31.4348 108.642 31.2973C108.791 31.1369 108.94 30.9535 109.077 30.7702C109.089 30.7473 109.112 30.7244 109.123 30.7014C109.249 30.5639 109.364 30.415 109.444 30.2431C109.581 29.9681 109.765 29.7619 109.948 29.5098C110.131 29.2577 110.257 28.9598 110.464 28.7306C110.487 28.7191 110.498 28.7077 110.509 28.6848C110.91 28.1348 111.506 27.6994 111.999 27.2066C112.137 27.0691 112.285 26.9431 112.423 26.8171C112.331 27.0004 112.228 27.1837 112.137 27.3671C112.022 27.5962 111.907 27.8254 111.793 28.0431C111.69 28.2837 111.575 28.5129 111.449 28.7421C111.334 28.9712 111.22 29.2004 111.117 29.441C110.979 29.7962 110.842 30.1514 110.704 30.5066C110.567 30.8619 110.441 31.2171 110.303 31.5723C110.189 31.8702 110.085 32.1681 109.982 32.4775C109.879 32.7754 109.788 33.0848 109.684 33.3827C109.639 33.5431 109.593 33.715 109.535 33.8754C109.478 34.0358 109.432 34.2077 109.387 34.3796C109.341 34.5514 109.306 34.7348 109.283 34.9066C109.249 35.0785 109.226 35.2618 109.192 35.4337C109.18 35.5483 109.169 35.6514 109.146 35.7546C109.123 35.8577 109.112 35.9608 109.112 36.0754C109.1 36.2587 109.1 36.4535 109.112 36.6368C109.123 36.8202 109.134 37.015 109.169 37.1983C109.203 37.5306 109.272 37.84 109.398 38.1264C109.524 38.4129 109.753 38.665 110.085 38.8712C110.12 38.8941 110.154 38.917 110.177 38.9514C110.2 38.9858 110.234 39.0087 110.269 39.0202C110.36 39.0546 110.464 39.0775 110.555 39.0775C110.647 39.0775 110.739 39.1348 110.807 39.2035C110.819 39.2264 110.853 39.2379 110.91 39.2379C111.197 39.1806 111.323 38.9858 111.3 38.6764C111.243 38.6879 111.185 38.6993 111.128 38.6993C111.128 38.6993 111.128 38.6993 111.117 38.6993C110.968 38.5618 110.83 38.3327 110.75 38.115C110.75 38.0921 110.762 38.0806 110.75 38.0577C110.739 37.966 110.727 37.8743 110.727 37.7712C110.716 37.6681 110.716 37.5764 110.716 37.4733C110.716 37.416 110.716 37.3702 110.727 37.3129C110.739 37.2556 110.739 37.2098 110.75 37.1525C110.762 37.0379 110.773 36.9233 110.796 36.7973C110.819 36.6712 110.83 36.5566 110.842 36.4421H110.819C110.842 36.3389 110.876 36.2358 110.899 36.1327C110.922 36.0983 110.945 36.0754 110.956 36.041C111.002 35.9264 111.048 35.8118 111.071 35.6858C111.094 35.5827 111.128 35.4796 111.151 35.3764C111.254 35.1014 111.323 34.815 111.346 34.5171C111.403 34.3681 111.46 34.2191 111.518 34.0702C111.529 34.0587 111.541 34.0587 111.541 34.0587C111.564 34.0358 111.564 33.99 111.564 33.9212C111.587 33.8639 111.609 33.8066 111.621 33.7493C111.621 33.7379 111.621 33.7379 111.621 33.7264C111.644 33.6806 111.655 33.6462 111.667 33.6004C111.667 33.5889 111.667 33.5889 111.678 33.5775C111.724 33.4285 111.77 33.2796 111.816 33.1421C111.884 32.9702 111.942 32.8098 111.999 32.6379C112.022 32.6379 112.033 32.6264 112.033 32.615C112.056 32.5806 112.056 32.5577 112.022 32.5348C112.056 32.4316 112.079 32.3285 112.102 32.2139C112.171 32.1337 112.24 32.0535 112.32 31.9733C112.32 31.9275 112.32 31.8931 112.32 31.8473C112.32 31.8014 112.331 31.7556 112.331 31.7098C112.331 31.6869 112.331 31.6639 112.354 31.6525C112.377 31.641 112.377 31.6066 112.377 31.5952C112.366 31.4577 112.4 31.3546 112.469 31.2744C112.538 31.1941 112.618 31.1139 112.709 31.0223C112.904 30.8389 113.03 30.6441 113.088 30.4379C113.099 30.3921 113.11 30.3577 113.145 30.3348C113.168 30.3004 113.191 30.266 113.214 30.2316C113.237 30.1973 113.248 30.1514 113.248 30.1056C113.248 30.0598 113.271 30.0254 113.305 30.0025C113.397 29.9566 113.443 29.8879 113.454 29.8191C113.466 29.7504 113.5 29.6816 113.546 29.6129C113.592 29.5671 113.626 29.5098 113.66 29.4754C113.695 29.4296 113.718 29.3837 113.752 29.3379C113.775 29.315 113.787 29.3035 113.787 29.2921C113.752 29.2119 113.764 29.1431 113.832 29.0858C113.89 29.0285 113.935 28.9712 113.97 28.9025C114.176 28.5931 114.405 28.2723 114.657 27.94C114.703 27.8598 114.772 27.7796 114.829 27.7223C114.898 27.6535 114.955 27.5848 115.024 27.516C115.035 27.4473 115.093 27.4014 115.162 27.3556Z" fill="#465161"/>
<path d="M140.977 28.9827C140.966 28.8566 140.966 28.7306 140.966 28.616C140.977 28.49 140.954 28.3639 140.92 28.2494C140.885 28.1348 140.84 28.0087 140.771 27.8827C140.714 27.7681 140.656 27.6421 140.61 27.516C140.588 27.4587 140.576 27.4014 140.565 27.3556C140.553 27.3098 140.507 27.3098 140.45 27.3212C140.439 27.2754 140.427 27.241 140.427 27.2181C140.427 27.1837 140.404 27.1608 140.381 27.1379C140.301 27.0577 140.232 26.9775 140.152 26.8973C140.072 26.8171 139.98 26.7369 139.854 26.6796C139.682 26.5994 139.522 26.5077 139.362 26.416C139.213 26.3244 139.052 26.2327 138.892 26.1525C138.823 26.1067 138.789 26.0723 138.812 26.0264C138.823 25.9462 138.857 25.866 138.892 25.7973C138.926 25.7285 138.96 25.6483 139.006 25.5796C139.029 25.5223 139.041 25.465 139.041 25.4077C139.052 25.3619 139.006 25.3046 138.903 25.2473C138.88 25.2244 138.869 25.2014 138.869 25.19C138.834 25.0869 138.777 25.0181 138.697 24.9723C138.617 24.9264 138.537 24.8806 138.468 24.8348C138.388 24.7775 138.33 24.7317 138.284 24.6973C138.307 24.6744 138.319 24.6629 138.319 24.6514C138.262 24.64 138.193 24.6285 138.124 24.6285C138.055 24.6285 137.987 24.6171 137.929 24.6056C137.849 24.5827 137.792 24.5598 137.78 24.5483C137.746 24.5025 137.689 24.4567 137.608 24.4452C137.54 24.4223 137.471 24.4337 137.414 24.4796C137.322 24.5598 137.242 24.64 137.173 24.7317C137.093 24.8119 137.024 24.8921 136.932 24.9837C136.818 25.0983 136.703 25.2244 136.612 25.3733C136.52 25.5223 136.394 25.6254 136.222 25.7171C136.279 25.8087 136.279 25.8775 136.21 25.9119C136.153 25.9462 136.096 25.9806 136.039 26.015C135.913 26.0608 135.798 26.0952 135.683 26.1181C135.569 26.141 135.454 26.1869 135.328 26.2212C135.11 26.29 134.904 26.3702 134.687 26.4389C134.469 26.5077 134.263 26.5879 134.033 26.6681C134.01 26.691 133.999 26.7025 133.976 26.7139C133.965 26.7254 133.942 26.7369 133.919 26.7598C133.873 26.84 133.816 26.9087 133.747 26.9431C133.724 26.9546 133.678 26.9546 133.644 26.966C133.747 26.8285 133.839 26.6796 133.942 26.5421C133.965 26.4962 133.988 26.4619 134.01 26.416C134.033 26.3702 134.056 26.3358 134.056 26.29C134.068 26.2098 134.079 26.1181 134.079 26.0379C134.079 25.9462 134.079 25.866 134.102 25.7858C134.125 25.7171 134.114 25.6483 134.091 25.591C134.068 25.5337 134.045 25.4764 134.01 25.4306C133.965 25.3733 133.93 25.3046 133.907 25.2358C133.873 25.1671 133.827 25.1212 133.77 25.1098C133.598 25.0296 133.506 24.9379 133.506 24.8462C133.449 24.8004 133.392 24.766 133.346 24.7431C133.3 24.7202 133.254 24.6858 133.208 24.6629C133.117 24.6171 133.048 24.5827 132.968 24.5483C132.899 24.5139 132.819 24.4796 132.727 24.4452C132.67 24.4223 132.601 24.4337 132.521 24.4567C132.441 24.4796 132.372 24.4452 132.315 24.3535C132.315 24.3421 132.303 24.3421 132.269 24.3421C132.234 24.3421 132.212 24.3535 132.189 24.3535C132.131 24.3994 132.085 24.4337 132.04 24.4681C131.994 24.5025 131.948 24.5483 131.914 24.5942C131.879 24.64 131.856 24.6858 131.845 24.7317C131.833 24.7775 131.799 24.8233 131.765 24.8577C131.616 24.9952 131.455 25.1212 131.295 25.2358C131.134 25.3504 130.974 25.4764 130.814 25.6025C130.802 25.6139 130.791 25.6254 130.791 25.6369L130.779 25.6483C130.699 25.6942 130.63 25.7629 130.55 25.8431C130.55 25.8317 130.527 25.8317 130.527 25.8202C129.633 26.6108 128.866 27.4817 128.235 28.4671C128.144 28.5129 128.087 28.5702 128.064 28.6504C128.064 28.6504 128.064 28.6619 128.052 28.6619C128.018 28.6962 127.995 28.7306 127.972 28.765C127.915 28.8452 127.846 28.9369 127.8 29.0285C127.754 29.1202 127.685 29.2119 127.64 29.2921C127.537 29.4525 127.433 29.6129 127.33 29.7733C127.227 29.9337 127.135 30.0827 127.044 30.2431C126.906 30.4608 126.78 30.6785 126.666 30.8962C126.551 31.1139 126.425 31.3316 126.299 31.5494L125.222 33.5889C125.199 33.6119 125.176 33.6233 125.142 33.6348C125.119 33.6462 125.084 33.6577 125.05 33.6806C125.073 33.5889 125.096 33.5087 125.119 33.4285C125.142 33.3483 125.153 33.291 125.188 33.2223C125.21 33.1764 125.233 33.1191 125.279 33.0619C125.325 33.016 125.325 32.9702 125.302 32.9358C125.233 32.8098 125.222 32.6952 125.279 32.5921C125.337 32.4889 125.371 32.3744 125.382 32.2598C125.405 32.1452 125.451 32.0306 125.52 31.916C125.589 31.8014 125.657 31.6869 125.715 31.5723C125.738 31.5264 125.772 31.4691 125.818 31.4233C125.864 31.3775 125.887 31.3316 125.864 31.2973C125.829 31.2056 125.841 31.1254 125.875 31.0796C125.921 31.0223 125.955 30.965 126.001 30.9191C126.081 30.8389 126.127 30.7473 126.173 30.6441C126.207 30.541 126.184 30.4379 126.104 30.3233C126.23 30.3004 126.322 30.2546 126.356 30.1744C126.402 30.0941 126.437 30.0139 126.459 29.9223C126.505 29.7733 126.563 29.6358 126.62 29.5098C126.677 29.3837 126.792 29.2577 126.952 29.166C127.009 29.1202 127.055 29.0744 127.101 29.0171C127.147 28.9598 127.181 28.9025 127.204 28.8337C127.262 28.7191 127.319 28.6046 127.376 28.4671C127.433 28.341 127.491 28.215 127.548 28.1004C127.571 28.0546 127.605 28.0087 127.651 27.9744C127.697 27.94 127.731 27.9056 127.743 27.8483C127.789 27.6994 127.857 27.5733 127.949 27.4702C128.041 27.3671 128.132 27.2525 128.224 27.1379C128.35 27.0004 128.419 26.8514 128.43 26.691C128.442 26.5306 128.453 26.3702 128.488 26.2098C128.488 26.1869 128.476 26.1639 128.465 26.1296C128.453 26.0952 128.442 26.0723 128.419 26.0494C128.35 25.9233 128.258 25.8202 128.155 25.74C128.052 25.6598 127.949 25.5796 127.846 25.4879C127.754 25.4192 127.674 25.3619 127.594 25.3046C127.514 25.2587 127.41 25.2587 127.284 25.2931L127.273 25.1556C127.239 25.1442 127.193 25.1442 127.135 25.1442C127.078 25.1556 127.032 25.1556 126.998 25.1556C126.964 25.1671 126.918 25.1556 126.872 25.1327C126.826 25.1098 126.792 25.0754 126.769 25.0067C126.494 25.0639 126.322 25.2129 126.253 25.4421C126.173 25.6139 126.093 25.7858 126.001 25.9577C125.909 26.1296 125.829 26.3014 125.772 26.4962C125.703 26.6681 125.623 26.84 125.508 27.0004C125.405 27.1608 125.325 27.3327 125.279 27.516C125.256 27.6192 125.222 27.7223 125.176 27.8139C125.13 27.9056 125.084 28.0087 125.039 28.1119C124.947 28.3525 124.844 28.5816 124.752 28.8108C124.66 29.04 124.557 29.2691 124.466 29.5098C124.374 29.7275 124.294 29.9452 124.214 30.1629C124.179 30.2546 124.145 30.3462 124.11 30.4494C124.03 30.5525 123.939 30.6671 123.858 30.7702C123.801 30.816 123.744 30.8848 123.698 30.9421C123.675 30.965 123.664 30.9764 123.652 30.9879C123.618 31.0337 123.595 31.0681 123.56 31.1139C123.526 31.1598 123.492 31.1941 123.446 31.2171C123.297 31.366 123.137 31.5035 122.988 31.6296C122.827 31.7671 122.667 31.8931 122.506 32.0306C122.323 32.2025 122.14 32.3744 121.956 32.5348C121.773 32.6952 121.578 32.8671 121.383 33.0275C121.154 33.2108 120.925 33.3941 120.696 33.5889C120.467 33.7723 120.238 33.9556 119.997 34.1275C119.894 34.1848 119.779 34.265 119.642 34.3681C119.504 34.4712 119.355 34.5629 119.206 34.666C119.057 34.7691 118.897 34.8608 118.759 34.941C118.61 35.0327 118.496 35.1014 118.393 35.1702C118.209 35.2848 117.969 35.3764 117.682 35.4452C117.396 35.5139 117.132 35.5254 116.903 35.5025C116.777 35.4796 116.674 35.4223 116.594 35.3306C116.559 35.2848 116.525 35.2275 116.514 35.1702C116.502 35.1129 116.491 35.0556 116.468 35.0098L116.41 34.9181C116.376 34.8493 116.353 34.8035 116.307 34.7921C116.227 34.7462 116.216 34.6775 116.25 34.6087C116.296 34.5514 116.296 34.4941 116.25 34.4369C116.158 34.3108 116.158 34.2077 116.25 34.116C116.273 34.1046 116.296 34.0816 116.307 34.0358C116.319 33.99 116.319 33.9327 116.33 33.8754C116.342 33.8296 116.353 33.7723 116.365 33.715C116.342 33.6921 116.307 33.6806 116.262 33.6577C116.216 33.6462 116.227 33.6118 116.284 33.5546C116.307 33.5316 116.319 33.5202 116.319 33.4973C116.319 33.4858 116.342 33.4629 116.353 33.44C116.365 33.4171 116.365 33.3941 116.376 33.3827C116.376 33.3598 116.399 33.3483 116.41 33.3369C116.537 33.2796 116.582 33.1879 116.548 33.0848L116.651 33.0389L116.674 33.0504C116.823 33.0848 117.029 33.0962 117.293 33.0848C117.545 33.0733 117.751 33.0504 117.9 33.0275H117.923C117.957 33.0275 118.015 33.016 118.072 32.9931C118.255 32.9473 118.439 32.89 118.622 32.8441C118.805 32.7983 118.977 32.7181 119.126 32.6035C119.138 32.5921 119.149 32.5921 119.183 32.5921C119.264 32.5462 119.332 32.4889 119.413 32.4546C119.481 32.4087 119.55 32.3629 119.619 32.3171C119.676 32.2712 119.722 32.2369 119.768 32.191C119.814 32.1452 119.871 32.1108 119.917 32.065C119.985 32.0191 120.054 31.9619 120.134 31.9046C120.215 31.8587 120.272 31.8014 120.329 31.7441C120.409 31.6639 120.467 31.5723 120.524 31.4921C120.581 31.4004 120.662 31.3316 120.776 31.2858C120.81 31.2744 120.833 31.24 120.856 31.1941C120.879 31.1139 120.914 31.0452 120.959 30.9879C121.017 30.9077 121.063 30.8275 121.12 30.7702C121.177 30.7129 121.234 30.6327 121.28 30.5525C121.338 30.4723 121.406 30.3806 121.464 30.2889C121.521 30.1973 121.59 30.1056 121.647 30.0139C121.75 29.8879 121.853 29.7504 121.945 29.5785C122.002 29.4869 122.059 29.3837 122.117 29.2806C122.128 29.2577 122.128 29.2348 122.128 29.2119C122.128 29.1889 122.14 29.166 122.151 29.1431C122.208 29.0973 122.231 29.0629 122.231 29.0171C122.231 28.9712 122.243 28.9254 122.266 28.8681C122.289 28.8108 122.3 28.7421 122.3 28.6848C122.3 28.6275 122.312 28.5702 122.323 28.5014C122.346 28.4441 122.369 28.3754 122.415 28.3181C122.46 28.2608 122.426 28.2035 122.312 28.1348C122.323 28.1119 122.334 28.1004 122.346 28.0775C122.357 28.066 122.357 28.0546 122.357 28.0431C122.3 27.9285 122.289 27.8139 122.323 27.6994C122.357 27.5848 122.346 27.4702 122.277 27.3556C122.208 27.2525 122.151 27.1494 122.117 27.0462C122.082 26.9431 122.025 26.84 121.956 26.7254C121.91 26.6567 121.888 26.5764 121.876 26.5077C121.865 26.4389 121.842 26.3702 121.819 26.3014C121.807 26.29 121.796 26.2785 121.796 26.2671C121.727 26.1525 121.658 26.0494 121.59 25.9577C121.521 25.866 121.418 25.7858 121.292 25.7056C121.246 25.6827 121.2 25.6598 121.143 25.6254C121.097 25.591 121.051 25.5567 121.005 25.5223C120.971 25.4764 120.925 25.4306 120.868 25.4192C120.822 25.3962 120.765 25.3733 120.707 25.3619C120.696 25.3619 120.684 25.3619 120.673 25.3504C120.662 25.3504 120.65 25.3389 120.639 25.3389L120.146 25.1556C120.123 25.1442 120.089 25.1442 120.043 25.1671C120.008 25.19 119.974 25.2014 119.94 25.2244C119.905 25.2358 119.882 25.2587 119.859 25.2817C119.71 25.3962 119.562 25.5108 119.435 25.6254C119.309 25.74 119.195 25.8775 119.092 26.0379C119.012 26.1754 118.908 26.29 118.782 26.4046C118.656 26.5192 118.542 26.6337 118.439 26.7483C118.335 26.8629 118.221 26.966 118.118 27.0692C118.015 27.1723 117.912 27.2869 117.831 27.4129C117.797 27.4587 117.751 27.516 117.694 27.5504C117.648 27.5733 117.648 27.6192 117.648 27.6764C117.637 27.6879 117.614 27.6994 117.614 27.7223C117.614 27.7337 117.602 27.7452 117.602 27.7567C117.51 27.7796 117.419 27.8254 117.339 27.9171C117.258 28.0087 117.224 28.0775 117.235 28.1348C117.235 28.1462 117.235 28.1577 117.235 28.1691C117.213 28.2264 117.178 28.2723 117.144 28.3181C117.087 28.3525 117.029 28.3869 116.972 28.4212C116.915 28.4556 116.892 28.5014 116.892 28.5473C116.8 28.6619 116.708 28.7764 116.628 28.8796C116.605 28.891 116.582 28.891 116.571 28.9254C116.548 28.9483 116.548 28.9827 116.537 29.0056C116.525 29.0171 116.502 29.04 116.491 29.0629L116.502 29.0744C116.479 29.1431 116.456 29.2119 116.433 29.2806C116.41 29.3837 116.376 29.4525 116.33 29.5327C116.319 29.5441 116.307 29.5441 116.284 29.5556C116.273 29.5556 116.262 29.5556 116.262 29.5671C116.262 29.5785 116.25 29.5785 116.239 29.5785C116.216 29.6244 116.193 29.6816 116.17 29.716C116.147 29.7619 116.124 29.7962 116.101 29.8421C116.055 29.8879 116.021 29.9452 115.987 29.991C115.952 30.0369 115.906 30.0827 115.849 30.14C115.86 30.1514 115.849 30.1629 115.849 30.1744C115.815 30.1744 115.78 30.1858 115.746 30.2087C115.597 30.3119 115.563 30.4608 115.574 30.6212C115.574 30.6212 115.574 30.6327 115.563 30.6327C115.551 30.6441 115.528 30.6556 115.517 30.6785C115.482 30.7244 115.471 30.7473 115.482 30.7587C115.494 30.7702 115.482 30.7702 115.494 30.7816C115.471 30.8389 115.437 30.8848 115.414 30.9421C115.368 31.0223 115.322 31.091 115.299 31.1598C115.288 31.1712 115.288 31.1827 115.288 31.2056C115.265 31.2629 115.265 31.3316 115.265 31.3889C115.265 31.4004 115.265 31.4004 115.253 31.4119C115.081 31.4577 115.058 31.5494 115.173 31.6754C115.116 31.6983 115.081 31.7212 115.07 31.7556C115.024 31.9046 114.978 32.0421 114.921 32.191C114.864 32.34 114.852 32.5004 114.875 32.6723C114.875 32.6952 114.875 32.7066 114.864 32.7181C114.864 32.8212 114.852 32.9244 114.841 33.016C114.829 33.1077 114.829 33.2108 114.818 33.3139C114.806 33.4629 114.818 33.6004 114.864 33.7379C114.909 33.8754 114.955 34.0129 115.013 34.1618C115.035 34.2191 115.07 34.2764 115.093 34.3337C115.116 34.391 115.15 34.4369 115.184 34.4941C115.219 34.54 115.265 34.5973 115.31 34.6546C115.356 34.7004 115.402 34.7577 115.437 34.815C115.459 34.8608 115.494 34.9181 115.517 34.9639C115.54 35.0098 115.574 35.0441 115.62 35.0785C115.746 35.1816 115.849 35.3306 115.918 35.5139L115.975 35.6056V35.6171C115.987 35.6285 115.998 35.64 115.998 35.6514C116.009 35.6629 116.021 35.6743 116.021 35.6858C116.078 35.7316 116.113 35.7889 116.158 35.8348C116.193 35.8806 116.25 35.9264 116.307 35.9837C116.307 35.9379 116.307 35.915 116.307 35.8806C116.307 35.8577 116.307 35.8348 116.307 35.8118C116.319 35.8118 116.33 35.8118 116.33 35.8004C116.33 35.8004 116.342 35.7889 116.353 35.7889C116.376 35.8691 116.41 35.9264 116.468 35.9493C116.525 35.9723 116.582 35.9837 116.651 35.9837C116.72 35.9952 116.789 35.9952 116.857 35.9952C116.926 35.9952 116.972 35.9608 116.995 35.8921C117.052 35.8118 117.121 35.8004 117.224 35.8577C117.362 35.9493 117.51 35.9952 117.659 35.9952C117.808 35.9952 117.957 35.9837 118.118 35.9608C118.267 35.9379 118.416 35.915 118.553 35.8691C118.691 35.8233 118.817 35.766 118.943 35.6858C119 35.6514 119.08 35.6056 119.195 35.5368C119.309 35.4681 119.424 35.3993 119.539 35.3306C119.653 35.2618 119.768 35.1931 119.882 35.1243C119.997 35.0671 120.089 35.0212 120.146 34.9868C120.169 34.9754 120.192 34.9639 120.203 34.9525C120.215 34.941 120.238 34.9296 120.26 34.9181C120.398 34.8035 120.547 34.6889 120.684 34.5743C120.822 34.4598 120.959 34.3337 121.085 34.2306C121.212 34.1046 121.349 34.0014 121.498 33.8983C121.647 33.7952 121.762 33.6691 121.842 33.5087C121.876 33.4744 121.888 33.4629 121.888 33.4744L122.037 33.3369C122.059 33.3139 122.071 33.291 122.094 33.2796C122.117 33.2681 122.128 33.2337 122.151 33.2223C122.174 33.2108 122.197 33.1879 122.231 33.1879C122.254 33.1879 122.289 33.1764 122.312 33.1535C122.415 33.0504 122.518 32.9473 122.621 32.8441C122.724 32.741 122.827 32.6379 122.953 32.5233L123.091 32.3858C123.182 32.3171 123.274 32.2254 123.377 32.1566C123.48 32.0764 123.583 31.9848 123.687 31.8931C123.606 32.2254 123.549 32.5691 123.503 32.9244C123.434 33.4514 123.446 33.9785 123.538 34.5171C123.583 34.7233 123.641 34.9296 123.732 35.1243C123.824 35.3191 123.939 35.5025 124.099 35.6858C124.168 35.766 124.237 35.8233 124.317 35.8462C124.397 35.8691 124.466 35.8921 124.546 35.9379C124.844 36.0983 125.062 36.0639 125.199 35.8348C125.279 35.7202 125.371 35.6171 125.463 35.5139C125.554 35.4108 125.623 35.2962 125.68 35.1702C125.726 35.0556 125.795 34.941 125.875 34.8379C125.955 34.7348 126.024 34.6202 126.081 34.4941C126.207 34.2421 126.333 34.0014 126.437 33.7494C126.54 33.4973 126.654 33.2452 126.792 33.0046C126.941 32.7066 127.09 32.3973 127.239 32.0879C127.388 31.7785 127.548 31.4691 127.72 31.1712C127.926 30.8275 128.121 30.4952 128.327 30.1629C128.533 29.8306 128.74 29.4983 128.957 29.166C129.038 29.0171 129.129 28.891 129.221 28.7535C129.324 28.6275 129.416 28.49 129.507 28.3639C129.553 28.3181 129.588 28.2608 129.622 28.2264C129.656 28.1806 129.691 28.1348 129.725 28.0889C129.771 28.0087 129.817 27.9285 129.863 27.8483C129.897 27.7681 129.943 27.6994 130 27.6192C130.115 27.4817 130.229 27.3556 130.332 27.2296C130.435 27.1035 130.55 26.9775 130.665 26.8629C130.688 26.84 130.722 26.8171 130.756 26.8056C130.791 26.7827 130.825 26.7598 130.848 26.7483L130.905 26.7942C130.882 26.8858 130.859 26.9775 130.837 27.0692C130.814 27.1608 130.791 27.2525 130.745 27.3327C130.47 28.0317 130.355 28.7535 130.413 29.4869C130.458 29.9452 130.584 30.3577 130.791 30.7473C130.997 31.1369 131.341 31.4577 131.81 31.7327C132.017 31.8587 132.223 31.8587 132.406 31.7327C132.349 31.641 132.303 31.5494 132.246 31.4577C132.2 31.366 132.143 31.2858 132.097 31.2056C132.097 31.1598 132.097 31.1254 132.097 31.091C132.097 31.0566 132.097 31.0223 132.097 30.9879C132.097 30.8848 132.085 30.7816 132.063 30.6785C132.04 30.5754 132.04 30.4952 132.085 30.4264C132.166 30.3004 132.189 30.1744 132.154 30.0483C132.12 29.9223 132.131 29.7962 132.189 29.6816C132.212 29.6129 132.234 29.5327 132.246 29.4525C132.257 29.3723 132.292 29.3035 132.338 29.2348C132.372 29.166 132.418 29.0973 132.464 29.0285C132.498 28.9598 132.544 28.891 132.567 28.7994C132.601 28.7535 132.624 28.6848 132.624 28.616C132.635 28.5473 132.658 28.5014 132.704 28.4671C132.796 28.4212 132.853 28.3525 132.876 28.2837C132.899 28.215 132.933 28.1348 132.956 28.0546C132.979 28.0087 132.991 27.9744 132.991 27.9285C133.002 27.8827 133.014 27.8369 133.048 27.8025C133.197 27.5962 133.334 27.39 133.483 27.1837C133.495 27.1723 133.506 27.1494 133.518 27.1379C133.575 27.1494 133.621 27.1608 133.69 27.1608C133.839 27.1608 133.953 27.1379 134.056 27.1035C134.194 27.0577 134.297 27.0348 134.366 27.0348C134.434 27.0348 134.503 27.0806 134.572 27.1494C134.629 27.1264 134.687 27.115 134.755 27.0921C134.813 27.0806 134.881 27.0692 134.939 27.0577C135.019 27.0577 135.088 27.0921 135.156 27.1608C135.168 27.1723 135.168 27.1952 135.156 27.2181C135.145 27.2525 135.133 27.2754 135.11 27.2983C135.065 27.3785 135.007 27.4587 134.962 27.5389C134.916 27.6191 134.87 27.6994 134.813 27.7796C134.629 28.1004 134.457 28.4327 134.285 28.765C134.217 28.891 134.148 29.0171 134.091 29.1316C134.033 29.2462 133.976 29.3837 133.919 29.5212C133.873 29.6014 133.827 29.6931 133.804 29.7733C133.781 29.865 133.747 29.9452 133.701 30.0254C133.667 30.1056 133.621 30.1973 133.587 30.2775C133.552 30.3691 133.518 30.4608 133.483 30.5525C133.38 30.8275 133.289 31.1254 133.208 31.4348C133.197 31.4691 133.197 31.4921 133.208 31.5264C133.22 31.5608 133.22 31.5952 133.208 31.6525C133.208 31.6639 133.197 31.6754 133.174 31.6869C133.151 31.6983 133.14 31.7212 133.14 31.7441C133.105 31.8931 133.071 32.0421 133.048 32.191C133.025 32.34 133.002 32.4889 132.991 32.6379C132.979 32.7869 132.991 32.9244 133.002 33.0619C133.014 33.1994 133.037 33.3369 133.048 33.4858C133.071 33.5431 133.082 33.6119 133.105 33.6806C133.128 33.7494 133.151 33.8066 133.174 33.8754C133.243 34.0244 133.323 34.1504 133.403 34.2879C133.483 34.4139 133.564 34.54 133.644 34.666C133.724 34.815 133.827 34.9296 133.942 35.0327C134.045 35.1129 134.137 35.1931 134.24 35.2848C134.343 35.3764 134.423 35.4452 134.515 35.5368C134.583 35.5941 134.652 35.6285 134.721 35.64C134.801 35.6514 134.87 35.6629 134.927 35.7087C135.053 35.7775 135.191 35.8462 135.351 35.8921C135.408 35.915 135.477 35.9264 135.534 35.9379C135.603 35.9493 135.649 35.9379 135.695 35.9264C135.821 35.8577 135.947 35.8118 136.096 35.8004C136.245 35.7889 136.371 35.7316 136.497 35.6171C136.6 35.5139 136.726 35.4223 136.864 35.3421C137.001 35.2618 137.127 35.1816 137.242 35.09C137.322 35.0441 137.391 34.9868 137.459 34.9296C137.528 34.8723 137.585 34.815 137.654 34.7691C137.746 34.7118 137.826 34.6431 137.895 34.5743C137.964 34.5056 138.032 34.4368 138.113 34.3681C138.204 34.2535 138.307 34.1389 138.399 34.0244C138.491 33.9098 138.594 33.7952 138.685 33.6806C138.8 33.5546 138.915 33.44 139.029 33.3139C139.144 33.1994 139.258 33.0733 139.373 32.9473C139.339 32.9014 139.281 32.8556 139.224 32.8098C139.316 32.7639 139.362 32.741 139.373 32.7296C139.396 32.6837 139.407 32.6494 139.407 32.6264C139.407 32.5921 139.419 32.5691 139.442 32.5462C139.499 32.466 139.568 32.3858 139.637 32.2941C139.705 32.2139 139.774 32.1337 139.831 32.0421C139.9 31.9389 139.969 31.8358 140.038 31.7327C140.106 31.6296 140.164 31.5264 140.232 31.4233C140.255 31.4004 140.267 31.3775 140.29 31.366C140.301 31.3431 140.324 31.3202 140.347 31.3087C140.393 31.2056 140.439 31.1025 140.484 30.9994C140.53 30.8962 140.576 30.7931 140.622 30.69C140.656 30.6098 140.714 30.5296 140.771 30.4608C140.828 30.3921 140.828 30.3004 140.759 30.1973C140.702 30.1056 140.691 30.0254 140.725 29.9452C140.759 29.8764 140.794 29.7962 140.817 29.716C140.851 29.6358 140.874 29.5441 140.885 29.4639C140.897 29.3723 140.908 29.2921 140.92 29.2119C140.931 29.1775 140.931 29.1431 140.92 29.1087C140.977 29.0514 140.977 29.0171 140.977 28.9827ZM117.052 32.1337L117.087 32.0994C117.178 32.0191 117.247 31.9275 117.281 31.8244C117.316 31.7212 117.35 31.6181 117.407 31.515C117.43 31.4691 117.453 31.4348 117.488 31.4119C117.522 31.3775 117.545 31.3546 117.568 31.3202L117.648 31.24C117.671 31.1941 117.682 31.1598 117.705 31.1254C117.728 31.091 117.74 31.0566 117.763 31.0108C117.785 30.9535 117.785 30.9077 117.785 30.8733C117.797 30.8275 117.797 30.8046 117.808 30.7702C117.82 30.7473 117.854 30.7358 117.912 30.7473C117.923 30.7587 117.946 30.7587 117.969 30.7473C117.992 30.7358 118.003 30.7244 118.015 30.7129C118.083 30.6212 118.152 30.5296 118.221 30.4264C118.278 30.3233 118.347 30.2316 118.427 30.14C118.439 30.1171 118.439 30.0941 118.427 30.0712C118.416 30.0483 118.416 30.0139 118.416 29.991C118.565 29.9452 118.668 29.8764 118.748 29.7733C118.817 29.6702 118.897 29.5671 118.989 29.4754C119.057 29.4181 119.126 29.3494 119.195 29.2806C119.264 29.2119 119.321 29.1431 119.378 29.0744C119.435 29.0056 119.47 28.9254 119.504 28.8566C119.539 28.7879 119.584 28.7077 119.63 28.6389C119.642 28.616 119.665 28.5931 119.71 28.5473C119.756 28.5244 119.802 28.5014 119.848 28.4785C119.894 28.4556 119.928 28.4212 119.963 28.3983C120.043 28.3296 120.112 28.2494 120.169 28.1691C120.226 28.0889 120.306 28.0202 120.398 27.9629C120.478 27.9171 120.547 27.8712 120.593 27.8254C120.65 27.7796 120.707 27.7223 120.776 27.6879C120.822 27.6535 120.856 27.6306 120.902 27.5962C120.948 27.5619 120.982 27.5275 121.028 27.4931C121.051 27.4817 121.097 27.4473 121.154 27.39C121.223 27.3327 121.257 27.2869 121.28 27.2639C121.326 27.2181 121.372 27.2067 121.429 27.2067C121.452 27.2067 121.475 27.2181 121.498 27.2525C121.521 27.2869 121.532 27.3098 121.532 27.3327C121.544 27.4358 121.555 27.5389 121.567 27.6421C121.578 27.7452 121.578 27.8483 121.567 27.9514C121.544 28.2494 121.487 28.5244 121.383 28.7879C121.28 29.0514 121.154 29.2921 120.994 29.5441C120.971 29.5671 120.959 29.59 120.959 29.6244C120.959 29.6587 120.948 29.6816 120.937 29.7046C120.937 29.7389 120.925 29.7619 120.914 29.7848C120.833 29.8879 120.742 29.991 120.662 30.0941C120.581 30.1973 120.49 30.3004 120.409 30.4035C120.352 30.4837 120.283 30.5639 120.215 30.6556C120.146 30.7358 120.077 30.816 119.997 30.9077L119.928 30.965C119.837 31.1139 119.733 31.24 119.607 31.3546C119.481 31.4691 119.344 31.5837 119.195 31.6869C119.138 31.7327 119.08 31.7556 119.023 31.79C118.966 31.8129 118.908 31.8473 118.851 31.8702L118.358 32.191C118.335 32.2139 118.313 32.2254 118.29 32.2254C118.244 32.2483 118.198 32.2598 118.164 32.2712C118.129 32.2827 118.083 32.2941 118.049 32.3171C118.003 32.34 117.969 32.3514 117.934 32.3514C117.9 32.3514 117.843 32.3629 117.774 32.3744C117.717 32.3973 117.671 32.4087 117.625 32.4202C117.579 32.4316 117.533 32.4431 117.476 32.466C117.384 32.5004 117.281 32.5004 117.178 32.4775C117.075 32.4546 116.972 32.4431 116.88 32.4431L117.052 32.1337ZM130.126 26.3358C130.115 26.3473 130.103 26.3473 130.103 26.3587C130.115 26.3473 130.126 26.3358 130.149 26.3129C130.138 26.3244 130.126 26.3358 130.126 26.3358ZM134.641 26.4962C134.629 26.4962 134.618 26.4962 134.606 26.4962C134.618 26.4962 134.641 26.4848 134.652 26.4848C134.652 26.4848 134.641 26.4848 134.641 26.4962ZM139.866 29.6702C139.843 29.7389 139.82 29.8191 139.797 29.8879L139.396 30.5639C139.43 30.4837 139.453 30.415 139.442 30.3806C139.339 30.541 139.235 30.7129 139.132 30.8619C139.087 30.9421 139.029 31.0223 138.972 31.1025C138.708 31.4462 138.433 31.79 138.181 32.1452C138.135 32.1452 138.09 32.1566 138.055 32.1452C137.998 32.1337 137.975 32.1796 137.975 32.2941C137.975 32.3285 137.952 32.3514 137.895 32.3744C137.838 32.3973 137.792 32.4316 137.757 32.4546C137.712 32.4889 137.677 32.5119 137.631 32.5462C137.585 32.5806 137.563 32.6035 137.54 32.6264C137.551 32.6608 137.563 32.6837 137.574 32.7066C137.585 32.7296 137.597 32.7639 137.608 32.7869H137.459C137.402 32.7754 137.345 32.7983 137.31 32.8327C137.265 32.8785 137.253 32.9129 137.253 32.9587C137.196 33.016 137.15 33.0733 137.116 33.1191C137.07 33.165 137.024 33.2108 136.967 33.2681C136.852 33.3483 136.749 33.44 136.646 33.5316C136.543 33.6233 136.417 33.715 136.302 33.7952C136.176 33.8754 136.05 33.9671 135.924 34.0587C135.798 34.1504 135.66 34.2421 135.523 34.3223C135.408 34.3796 135.294 34.4368 135.179 34.4827C135.065 34.5285 134.939 34.5743 134.813 34.6202C134.709 34.6546 134.641 34.6087 134.606 34.4941C134.583 34.3681 134.56 34.2421 134.549 34.1275C134.526 34.0014 134.515 33.8754 134.503 33.7608C134.503 33.715 134.503 33.6577 134.515 33.6004C134.526 33.5431 134.538 33.4858 134.538 33.44C134.549 33.3254 134.56 33.2108 134.572 33.0848C134.583 32.9587 134.595 32.8441 134.606 32.7296V32.6837C134.767 32.6035 134.824 32.5004 134.801 32.3744C134.778 32.2483 134.767 32.1223 134.778 32.0077C134.904 32.0306 134.973 31.9962 134.984 31.9275C134.984 31.8587 135.007 31.79 135.042 31.7441C135.088 31.6296 135.133 31.5264 135.156 31.4233C135.191 31.3202 135.225 31.2171 135.271 31.1139C135.34 30.965 135.408 30.8275 135.466 30.6785C135.523 30.5296 135.603 30.3806 135.672 30.2202C135.706 30.1629 135.729 30.0941 135.764 30.0369C135.798 29.9796 135.844 29.9223 135.878 29.8535C135.958 29.7046 136.039 29.5785 136.107 29.441C136.176 29.315 136.256 29.1775 136.337 29.0514C136.382 28.9598 136.44 28.8681 136.497 28.7764C136.554 28.6848 136.612 28.5931 136.657 28.5014C136.703 28.4556 136.738 28.3983 136.772 28.341C136.806 28.2837 136.852 28.2264 136.909 28.1806C137.013 28.0431 137.116 27.9171 137.219 27.7796C137.322 27.6421 137.425 27.516 137.528 27.3785C137.608 27.2639 137.7 27.1608 137.792 27.0577C137.883 26.9546 137.987 26.8514 138.078 26.7369C138.09 26.7025 138.113 26.691 138.147 26.6796C138.227 26.6452 138.319 26.6337 138.433 26.6452C138.548 26.6567 138.663 26.6681 138.777 26.7025C138.892 26.7369 139.006 26.7827 139.109 26.8285C139.213 26.8744 139.293 26.9317 139.362 27.0004C139.442 27.0692 139.488 27.1379 139.522 27.2067C139.682 27.6421 139.774 28.0546 139.82 28.4785C139.82 28.5244 139.82 28.5587 139.82 28.5931H139.831C139.843 28.6962 139.866 28.7879 139.866 28.891C139.889 29.1889 139.9 29.4181 139.866 29.6702Z" fill="#465161"/>
<path d="M84.4304 14.0301C84.4304 13.4687 84.3273 12.9989 84.1325 12.6207C83.9377 12.2426 83.6627 11.9332 83.3189 11.6926C82.9752 11.452 82.5741 11.2916 82.1043 11.177C81.646 11.0739 81.1418 11.0166 80.6033 11.0166H77.0168V20.7791H79.3773V17.1124H80.546C81.0502 17.1124 81.5429 17.0551 82.0127 16.952C82.4825 16.8489 82.895 16.6655 83.2502 16.4249C83.6054 16.1843 83.8918 15.8749 84.1095 15.4853C84.3273 15.0843 84.4304 14.603 84.4304 14.0301ZM81.9325 14.6259C81.8408 14.7749 81.7148 14.9009 81.5543 14.9926C81.3939 15.0843 81.2106 15.153 81.0043 15.1874C80.7981 15.2218 80.5918 15.2447 80.3741 15.2447H79.3773V12.9301H80.4085C80.6262 12.9301 80.821 12.9416 81.0273 12.9759C81.222 12.9989 81.4054 13.0562 81.5543 13.1364C81.7148 13.2166 81.8408 13.3312 81.921 13.4801C82.0012 13.6291 82.0585 13.8124 82.0585 14.0416C82.07 14.2822 82.0241 14.4655 81.9325 14.6259Z" fill="#465161"/>
<path d="M88.2002 11.0275L84.0981 20.79H86.6647L87.3866 18.8764H91.1679L91.9241 20.79H94.5481L90.4918 11.0275H88.2002ZM88.0627 16.9858L89.3002 13.6285L90.5147 16.9858H88.0627Z" fill="#465161"/>
<path d="M102.557 15.6452C102.913 15.1983 103.096 14.6369 103.096 13.9723C103.096 13.4108 102.993 12.941 102.775 12.5629C102.569 12.1848 102.282 11.8869 101.927 11.6462C101.572 11.4171 101.171 11.2567 100.724 11.1535C100.277 11.0619 99.8188 11.0046 99.349 11.0046H95.6365V20.7671H97.9397V16.9171H98.7417L100.862 20.79H103.623L101.068 16.6077C101.709 16.4244 102.202 16.1035 102.557 15.6452ZM100.609 14.6254C100.506 14.7858 100.369 14.9004 100.197 14.9806C100.025 15.0608 99.8417 15.1181 99.6469 15.1525C99.4522 15.1869 99.2459 15.1983 99.0511 15.1983H97.9282V12.9296H99.1886C99.3605 12.9296 99.5438 12.941 99.7386 12.9754C99.9334 12.9983 100.105 13.0556 100.254 13.1358C100.403 13.216 100.529 13.3306 100.632 13.4681C100.724 13.6056 100.781 13.8004 100.781 14.0296C100.77 14.2702 100.713 14.4764 100.609 14.6254Z" fill="#465161"/>
<path d="M106.717 20.79H109.066V13.0442H111.827V11.0275H103.955V13.0442H106.717V20.79Z" fill="#465161"/>
<path d="M115.414 14.4077H115.459L119.39 20.79H122.071V11.0275H119.779L119.837 17.3983H119.791L115.872 11.0275H113.179V20.79H115.471L115.414 14.4077Z" fill="#465161"/>
<path d="M131.169 18.7848H126.631V16.7567H130.688V14.866H126.631V13.0098H130.928V11.0275H124.363V20.79H131.169V18.7848Z" fill="#465161"/>
<path d="M135.317 16.9171H136.119L138.239 20.79H141L138.445 16.6077C139.075 16.4129 139.579 16.0921 139.934 15.6452C140.29 15.1983 140.473 14.6369 140.473 13.9723C140.473 13.4108 140.37 12.941 140.152 12.5629C139.946 12.1848 139.659 11.8869 139.304 11.6462C138.949 11.4171 138.548 11.2567 138.101 11.1535C137.654 11.0504 137.196 11.0046 136.726 11.0046H133.002V20.7671H135.305L135.317 16.9171ZM135.294 12.9296H136.554C136.726 12.9296 136.909 12.941 137.104 12.9754C137.299 12.9983 137.471 13.0556 137.62 13.1358C137.769 13.216 137.895 13.3306 137.998 13.4681C138.09 13.6056 138.147 13.8004 138.147 14.0296C138.147 14.2817 138.09 14.4764 137.987 14.6369C137.883 14.7973 137.746 14.9119 137.574 14.9921C137.402 15.0723 137.219 15.1296 137.024 15.1639C136.818 15.1983 136.623 15.2098 136.428 15.2098H135.305V12.9296H135.294Z" fill="#465161"/>
<path d="M56.8272 8.6098C48.3824 8.6098 41.5303 15.4619 41.5303 23.9181C41.5303 32.3744 48.3824 39.2264 56.8386 39.2264C65.2949 39.2264 72.147 32.3744 72.147 23.9181C72.147 15.4619 65.2834 8.6098 56.8272 8.6098ZM65.6616 19.4035C65.6616 19.4494 65.6616 19.4952 65.6501 19.541C65.6386 19.5869 65.6386 19.6327 65.6386 19.6785C65.6272 19.9077 65.5928 20.1254 65.547 20.3546C65.5011 20.5837 65.398 20.8244 65.2605 21.1108C65.2491 21.1681 65.2261 21.214 65.1918 21.2598C65.1688 21.3056 65.1459 21.3515 65.123 21.4087C65.0543 21.5806 64.9741 21.7525 64.8938 21.9244C64.8136 22.0962 64.722 22.2567 64.6188 22.4171L64.5959 22.4285C64.4699 22.589 64.3553 22.7494 64.2293 22.9098C64.1147 23.0702 63.9886 23.2192 63.8626 23.3681C63.6449 23.6087 63.4157 23.8494 63.1751 24.09C62.9345 24.3306 62.6938 24.5712 62.4303 24.8004C62.3272 24.9035 62.2011 24.9952 62.0866 25.0754C61.9605 25.1556 61.8345 25.2358 61.6855 25.316C61.6053 25.3619 61.5366 25.4192 61.4563 25.465C61.3876 25.5108 61.3074 25.5681 61.2501 25.6254C61.1928 25.6712 61.147 25.7056 61.1126 25.7514C61.0782 25.7858 61.0324 25.8317 60.9866 25.8889C60.9636 25.9004 60.9407 25.9233 60.9293 25.9348C60.9178 25.9462 60.9064 25.9692 60.872 25.9806C60.8605 25.9921 60.8605 26.0035 60.8491 26.0035C60.8376 26.0035 60.8376 26.015 60.8261 26.0264C60.6657 26.1181 60.4938 26.2098 60.3334 26.3129C60.1386 26.416 59.9324 26.5192 59.7147 26.6223C59.497 26.7254 59.2907 26.8285 59.0845 26.9202C59.0845 26.9202 59.0845 26.9202 59.073 26.9202C59.073 26.9317 59.073 26.9317 59.0616 26.9431C59.0043 27.1494 59.0616 27.1952 59.0501 27.2296C59.0386 27.2639 59.0386 27.2983 59.0501 27.3098C59.073 27.3671 59.0845 27.4129 59.0616 27.4473C59.0386 27.4817 59.0272 27.516 59.0272 27.5504C59.0043 27.6306 58.9928 27.7108 58.9814 27.791C58.9699 27.8712 58.9699 27.94 58.9584 28.0087C58.947 28.2494 58.9241 28.4785 58.9126 28.7077C58.9011 28.9369 58.9011 29.166 58.9011 29.3837C58.9011 29.4869 58.9011 29.6014 58.9011 29.7046C58.9011 29.8077 58.9011 29.9223 58.9011 30.0254C58.9126 30.0483 58.9126 30.0712 58.9011 30.0827C58.8439 30.2087 58.8209 30.3348 58.8439 30.4723C58.8668 30.6098 58.8668 30.7473 58.8553 30.8733C58.8553 30.9077 58.8439 30.9421 58.8439 30.9764C58.8439 31.0108 58.8324 31.0452 58.8324 31.0796C58.8095 31.2056 58.798 31.3202 58.7866 31.4462C58.7751 31.5723 58.7751 31.6983 58.7866 31.8358C58.8095 31.9848 58.8324 32.1452 58.8553 32.2941C58.8897 32.4546 58.9126 32.6035 58.9355 32.7639C58.947 32.7983 58.947 32.8441 58.947 32.89C58.947 32.9358 58.9584 32.9816 58.9699 33.0275C58.9699 33.0504 58.9699 33.0733 58.9814 33.1077C58.9928 33.1421 59.0043 33.165 59.0043 33.1764C59.073 33.2566 59.0616 33.3139 58.9584 33.3483C58.9355 33.3483 58.9241 33.3712 58.9126 33.3941C58.9011 33.4171 58.9011 33.44 58.9011 33.4514C58.947 33.5316 58.9699 33.6119 59.0043 33.6921C59.0272 33.7723 59.0616 33.8525 59.1074 33.9327C59.1189 33.9441 59.1303 33.9556 59.1418 33.9671C59.1532 33.9785 59.1647 33.99 59.1761 34.0014C59.1991 34.0129 59.222 34.0244 59.2334 34.0358C59.2449 34.0473 59.2678 34.0587 59.2907 34.0702C59.3022 34.0931 59.3251 34.116 59.3366 34.1504C59.348 34.1848 59.3709 34.2077 59.4053 34.2535C59.3709 34.2535 59.348 34.2535 59.3136 34.265C59.2793 34.2764 59.2564 34.2764 59.2334 34.2764C58.9584 34.2764 58.7178 34.1848 58.5001 33.99C58.397 33.9098 58.3053 33.8181 58.2022 33.7264C58.0991 33.6348 58.0074 33.5431 57.9043 33.4629C57.8699 33.4171 57.847 33.3827 57.8241 33.3483C57.8011 33.3139 57.8126 33.2796 57.847 33.2223C57.847 33.1994 57.847 33.1764 57.8355 33.1421C57.8241 33.1077 57.8011 33.0962 57.7897 33.0848C57.7209 33.0275 57.6522 32.9702 57.6064 32.9129C57.5605 32.8556 57.5147 32.7754 57.4918 32.6723C57.4574 32.5806 57.423 32.4889 57.4001 32.3858C57.3772 32.34 57.3657 32.2827 57.3428 32.2369C57.2855 32.0879 57.2397 31.9504 57.2282 31.8014C57.1824 31.5608 57.148 31.3202 57.1251 31.0681C57.1022 30.8619 57.0793 30.6556 57.0449 30.4494C57.0449 30.4379 57.0334 30.415 57.0334 30.3921C57.0334 30.3806 57.0334 30.3806 57.0334 30.3692C57.0334 30.3577 57.0334 30.3577 57.0334 30.3462C57.0105 30.1629 56.9991 29.9796 56.9991 29.8192C56.9876 29.716 56.9876 29.6129 56.9761 29.5098C56.9647 29.4067 56.9761 29.3035 56.9991 29.1889C56.9876 29.0514 56.9876 28.9139 56.9876 28.7879C56.9876 28.6619 56.9761 28.5244 56.9761 28.3869C56.9876 28.2608 56.9991 28.1233 56.9991 27.9973C56.9991 27.9171 56.9991 27.8483 57.0105 27.7796C56.6439 27.9285 56.2657 28.0775 55.8761 28.2379C55.7157 28.3067 55.5439 28.3639 55.372 28.4098C55.2574 28.4442 55.1314 28.4671 55.0053 28.49C55.0168 28.6046 55.0168 28.7077 55.0282 28.765C55.0512 28.8567 55.0397 28.9712 54.9709 29.1202C54.9595 29.1431 54.948 29.1775 54.9251 29.2119C54.9136 29.2462 54.9136 29.2806 54.9251 29.2921C54.948 29.3608 54.9595 29.4067 54.9366 29.4296C54.9251 29.4639 54.9022 29.4983 54.8907 29.5327C54.8678 29.6129 54.8564 29.6931 54.8449 29.7733C54.8334 29.8535 54.8334 29.9223 54.822 29.991C54.8105 30.2316 54.7647 30.4952 54.7647 30.7244C54.7647 30.8389 54.7647 30.9421 54.7647 31.0567C54.7647 31.1712 54.7647 31.2744 54.7647 31.3889C54.7761 31.4119 54.7761 31.4348 54.7647 31.4462C54.7074 31.5723 54.6845 31.6983 54.7074 31.8473C54.7303 31.9962 54.7303 32.1223 54.7189 32.2598C54.7189 32.2941 54.7074 32.3285 54.7074 32.3629C54.7074 32.3973 54.6959 32.4316 54.6959 32.466C54.673 32.5921 54.6616 32.7181 54.6501 32.8441C54.6386 32.9702 54.6386 33.1077 54.6501 33.2452C54.673 33.4056 54.6959 33.5546 54.7303 33.715C54.7647 33.8754 54.7876 34.0358 54.8105 34.1962C54.822 34.2306 54.822 34.2764 54.822 34.3223C54.822 34.5858 54.7189 34.8494 54.7876 34.8952C54.8564 34.941 54.8564 35.0556 54.8907 35.1358C54.9251 35.216 54.948 35.2962 54.9939 35.3764C55.0053 35.3879 55.2689 35.6629 55.3032 35.7087C55.2689 35.7087 55.1428 35.7316 55.1314 35.7202C54.8564 35.7202 54.6043 35.6285 54.3751 35.4337C54.272 35.3535 54.272 35.365 54.1689 35.2619C54.1345 35.2275 54.0084 35.2389 54.0084 35.1129C54.0084 35.0441 53.8022 34.9181 53.7793 34.8837C53.7564 34.8494 53.4928 34.4025 53.447 34.3452C53.4012 34.2879 53.3553 34.2077 53.3324 34.1046C53.298 34.0129 53.2637 33.9098 53.2407 33.8066C53.2178 33.7608 53.2064 33.7035 53.1834 33.6577C53.1147 33.5087 53.0803 33.3598 53.0574 33.2108C53.0116 32.9587 52.9772 32.7181 52.9543 32.466C52.9314 32.2483 52.9084 32.0421 52.8741 31.8358C52.8741 31.8244 52.8626 31.8014 52.8626 31.7785C52.8626 31.7671 52.8626 31.7671 52.8626 31.7556C52.8626 31.7441 52.8626 31.7441 52.8626 31.7327C52.8397 31.5379 52.8282 31.366 52.8282 31.2056C52.8168 31.1025 52.8168 30.9879 52.8053 30.8848C52.7939 30.7817 52.8168 30.1514 52.8168 30.0139C52.8168 29.8764 52.8168 29.7504 52.8282 29.6129C52.8397 29.441 52.8397 29.2692 52.8512 29.1087C52.8512 29.0629 52.8512 29.0171 52.8626 28.9827C52.8397 28.9942 52.8053 28.9942 52.7709 29.0056C52.4959 29.0744 52.2324 29.1431 51.9574 29.2119C51.7626 29.2692 51.5793 29.315 51.3959 29.3379C51.2126 29.3608 51.0293 29.3837 50.8459 29.4067L50.2157 29.5212C49.998 29.5442 49.7803 29.5671 49.5741 29.6014C49.3678 29.6244 49.1616 29.6587 48.9553 29.6931C48.8866 29.7046 48.8293 29.7046 48.772 29.716C48.7147 29.716 48.6574 29.7275 48.5887 29.7389C48.5543 29.7504 48.497 29.7619 48.4282 29.7848C48.3595 29.8077 48.0043 29.7733 47.947 29.7389C47.7637 29.6129 47.5918 29.4067 47.4543 29.1202C47.4199 29.0171 47.3855 28.9254 47.3512 28.8223C47.3168 28.7192 47.2824 28.6275 47.248 28.5244C47.2137 28.4212 47.1793 28.3296 47.1449 28.2264C47.1105 28.1233 47.0762 28.0202 47.0418 27.9285C47.0647 27.791 47.0647 27.6535 47.0418 27.516C47.0189 27.39 46.996 27.2639 46.973 27.1379C46.9501 27.0462 46.9272 26.9546 46.9157 26.8744C46.9043 26.7942 46.8928 26.7139 46.8928 26.6337C46.8928 26.6108 46.8928 26.5994 46.8928 26.5879C46.8928 26.5764 46.9043 26.565 46.8928 26.5421C46.9043 26.3702 46.9043 26.2212 46.9272 26.0952C46.9501 25.9692 46.973 25.8317 47.0189 25.7056C47.0647 25.6598 47.0991 25.6025 47.1105 25.5337C47.122 25.4764 47.1335 25.4077 47.1335 25.3504C47.1335 25.3046 47.1335 25.2587 47.1335 25.2244C47.1449 25.19 47.1449 25.1556 47.1449 25.1212C47.2022 25.0181 47.271 24.915 47.3282 24.8233C47.3855 24.7202 47.4543 24.6171 47.5345 24.5139C47.546 24.4681 47.5574 24.4337 47.5918 24.4108C47.6147 24.3764 47.6491 24.3421 47.672 24.2962C47.7178 24.2619 47.7522 24.2275 47.7522 24.1931C47.7522 24.1587 47.7522 24.1244 47.7522 24.09C47.7407 24.0098 47.7866 23.9296 47.8897 23.8723C47.9241 23.8494 47.947 23.815 47.9814 23.8035C48.0043 23.7806 48.0387 23.7462 48.0616 23.7004L48.073 23.689C48.1074 23.666 48.1418 23.6317 48.1647 23.5973C48.1991 23.5629 48.2105 23.5056 48.222 23.4369C48.222 23.414 48.222 23.4025 48.2335 23.3796C48.3366 23.391 48.4168 23.3796 48.4855 23.3337C48.5543 23.2879 48.6116 23.2421 48.6689 23.1962C48.6918 23.1962 48.7032 23.1848 48.7032 23.1848C48.7032 23.1733 48.7147 23.1733 48.7376 23.1733C48.8064 23.116 48.8751 23.0587 48.9553 23.0129C49.0355 22.9556 49.1043 22.8983 49.173 22.8296C49.3105 22.7379 49.4251 22.6462 49.5282 22.5546C49.6314 22.4629 49.7574 22.3712 49.8834 22.3025C49.9293 22.2681 49.9866 22.2452 50.0324 22.2337C50.0782 22.2223 50.1241 22.1994 50.1699 22.1765C50.2043 22.1765 50.2157 22.1765 50.2387 22.165C50.2616 22.1535 50.273 22.1535 50.3074 22.1535C50.5022 22.314 50.7428 22.3025 51.0293 22.1192C51.0407 22.1077 51.0637 22.0962 51.1095 22.0733C51.1553 22.0619 51.2355 22.0733 51.3157 22.1306C51.3272 22.1421 51.3387 22.1535 51.3501 22.1765C51.3616 22.1994 51.373 22.2223 51.3845 22.2452C51.0866 22.5431 50.7887 22.841 50.5022 23.116C50.2157 23.4025 49.9522 23.7119 49.6772 24.0442C49.5397 24.2275 49.3907 24.4337 49.2418 24.6858C49.0928 24.9264 48.7491 25.2931 48.6803 25.5108C48.6459 25.591 48.6001 25.6827 48.5772 25.7629C48.5543 25.8431 48.5199 25.9233 48.4741 26.015C48.4397 26.141 48.4282 26.2442 48.4282 26.3129C48.4282 26.3587 48.4397 26.4046 48.4282 26.4389C48.4282 26.4733 48.4168 26.5077 48.4168 26.5535C48.4282 26.5764 48.4512 26.5994 48.497 26.6452C48.5428 26.691 48.5657 26.7139 48.5772 26.7369V26.9431H48.7605C48.7835 26.9546 48.8064 26.9546 48.8293 26.9546C48.9095 26.966 48.9782 26.9775 49.0241 26.966C49.0699 26.966 49.1157 26.9546 49.1616 26.9546C49.2074 26.9546 49.2532 26.9431 49.2991 26.9431C49.6084 26.9317 49.8949 26.8973 50.147 26.84C50.4334 26.7827 50.7314 26.7139 51.0407 26.6567C51.3501 26.5994 51.6824 26.5306 52.0262 26.4504C52.3584 26.3702 52.6907 26.2671 53.0345 26.1754C53.0345 26.0264 53.0459 25.8775 53.0574 25.74C53.0803 25.4535 53.0918 25.1785 53.1262 24.9035C53.1605 24.6285 53.172 24.3535 53.172 24.0671C53.1834 23.7921 53.2064 23.5171 53.2293 23.2421C53.2522 22.9671 53.2522 22.6806 53.1949 22.4056C53.1834 22.2452 53.2293 22.1306 53.3209 22.0619C53.3782 22.016 53.447 21.9931 53.5272 21.9702C53.5043 21.9244 53.4699 21.89 53.4355 21.8556C53.3782 21.8098 53.3209 21.7525 53.2637 21.6952L53.2178 21.615C53.2178 21.4202 53.2064 21.2254 53.1834 21.0535C53.1605 20.8702 53.1491 20.6869 53.1605 20.4806C53.1491 20.3317 53.172 20.1598 53.2064 19.9879C53.2522 19.816 53.2866 19.6442 53.3209 19.4837C53.3095 19.4723 53.3209 19.4608 53.3439 19.4379L53.3668 19.4265C53.4928 19.4035 53.6074 19.3119 53.722 19.1744C53.7449 19.1629 53.7678 19.1515 53.7907 19.14C53.8137 19.1285 53.8366 19.1171 53.848 19.0942C53.8939 18.9452 53.9741 18.8535 54.0886 18.8421C54.2032 18.8306 54.3178 18.7962 54.4324 18.7504C54.5699 18.6931 54.7189 18.7046 54.8564 18.7733C54.9022 18.8192 54.948 18.8421 55.0053 18.8421C55.0626 18.8421 55.1199 18.8535 55.1772 18.865L55.2345 18.8765C55.3605 18.9681 55.4636 19.1056 55.5324 19.289C55.6011 19.4723 55.6241 19.6327 55.5897 19.7702C55.5782 19.7931 55.5668 19.8275 55.5782 19.8619C55.5897 19.8962 55.5897 19.9192 55.5897 19.9421C55.6584 20.1598 55.6699 20.4119 55.6241 20.664C55.6241 20.6983 55.6355 20.7327 55.6584 20.7785C55.6814 20.8244 55.6814 20.8587 55.6699 20.9046C55.647 21.0421 55.6241 21.1796 55.5782 21.3056C55.5324 21.4317 55.5095 21.5577 55.498 21.6837C55.4751 21.8098 55.3834 21.8671 55.2459 21.8442C55.4064 21.9587 55.4293 22.0504 55.2918 22.1306C55.2574 22.165 55.2116 22.1765 55.1772 22.2108C55.2345 22.2452 55.2918 22.2796 55.3491 22.314C55.4178 22.3712 55.4751 22.4171 55.5439 22.4744C55.6011 22.5202 55.647 22.566 55.6814 22.6233C55.7157 22.6806 55.7272 22.7494 55.7043 22.841C55.7043 22.864 55.7043 22.8869 55.7157 22.8983C55.7272 22.9098 55.7386 22.9212 55.7501 22.9327C55.8418 22.9671 55.8876 23.0244 55.8876 23.1046C55.8647 23.2306 55.8532 23.3452 55.8418 23.4598C55.8303 23.5744 55.8303 23.6889 55.8189 23.7921C55.8074 23.8264 55.7959 23.8608 55.7616 23.8837C55.7386 23.9525 55.7272 24.0098 55.7157 24.0785C55.7043 24.1358 55.6814 24.2046 55.647 24.2619C55.5782 24.365 55.5553 24.4567 55.5553 24.5712C55.5668 24.6744 55.5553 24.7775 55.5209 24.8692C55.4866 24.9379 55.4522 25.0067 55.4293 25.0869C55.3949 25.1556 55.3834 25.2358 55.3834 25.316C55.3834 25.3619 55.3834 25.3962 55.372 25.4421C55.3834 25.4421 55.3949 25.4306 55.3949 25.4306C55.6584 25.3504 55.9105 25.2702 56.1626 25.1785C56.4147 25.0869 56.6668 24.9952 56.9189 24.8921L56.9761 24.8806C56.9876 24.8806 57.0105 24.8692 57.022 24.8577C57.0334 24.7087 57.0449 24.5483 57.0564 24.3994C57.0793 24.1358 57.1022 23.8608 57.1022 23.5858C57.1136 23.3223 57.1251 23.0473 57.1595 22.7723C57.1824 22.4973 57.1709 22.2223 57.1251 21.9587C57.1136 21.8098 57.1595 21.6952 57.2511 21.6265C57.297 21.5921 57.3428 21.5692 57.4001 21.5462C57.3886 21.5348 57.3886 21.5233 57.3772 21.5119C57.3543 21.466 57.3199 21.4317 57.2741 21.4087C57.2282 21.3858 57.1824 21.3629 57.1251 21.3285C57.0907 21.3056 57.0564 21.2827 57.0334 21.2598C56.9991 21.2369 56.9876 21.214 56.9991 21.191C57.0564 21.0192 57.0334 20.8817 56.9074 20.7785C56.7928 20.6754 56.7241 20.5494 56.6897 20.4119C56.7011 20.4004 56.7241 20.389 56.7584 20.3775C56.7928 20.3546 56.8043 20.3317 56.8043 20.2973C56.7928 20.1254 56.8157 19.9879 56.8959 19.8848C56.9761 19.7817 57.0793 19.6785 57.1939 19.564C57.2511 19.5296 57.297 19.4837 57.3314 19.4265C57.3657 19.3692 57.4001 19.3004 57.4459 19.2431C57.5605 19.0598 57.6522 18.8994 57.7095 18.7619C57.8241 18.4983 57.9959 18.4181 58.2366 18.5212C58.3282 18.5442 58.397 18.5556 58.4314 18.5556C58.6261 18.4869 58.7636 18.4525 58.8324 18.4754C58.9011 18.4983 59.0043 18.59 59.1418 18.7504C59.222 18.865 59.2907 18.9796 59.348 19.0942C59.4053 19.2087 59.4626 19.3348 59.5084 19.4608C59.6001 19.6671 59.6803 19.8733 59.7261 20.0681C59.772 20.2629 59.8064 20.4806 59.8407 20.7098C59.8636 20.8587 59.8636 20.9962 59.8522 21.1337C59.8407 21.2712 59.8293 21.4202 59.8293 21.5806C59.8407 21.6723 59.8064 21.741 59.7376 21.7869C59.6116 21.8442 59.4855 21.89 59.3709 21.9473C59.3595 21.9473 59.348 21.9587 59.348 21.9587C59.3824 21.9817 59.4053 22.0046 59.4397 22.0275C59.497 22.0733 59.5428 22.1192 59.5772 22.1765C59.6116 22.2337 59.7949 22.291 59.7834 22.6462C59.772 22.7723 59.7491 22.8869 59.7376 23.0015C59.7261 23.116 59.7261 23.2192 59.7147 23.3337C59.7032 23.3681 59.6918 23.391 59.6689 23.4254C59.6459 23.4712 59.6459 23.5285 59.6345 23.5744C59.6689 23.5515 59.7032 23.54 59.7376 23.5285C59.772 23.5171 59.8178 23.5056 59.8751 23.4827C59.9324 23.4598 59.9668 23.4025 59.9782 23.3223C60.0126 23.265 60.0814 23.2192 60.173 23.1848C60.2189 23.1504 60.2761 23.116 60.322 23.0817C60.3678 23.0473 60.4136 23.0015 60.448 22.9442C60.4595 22.9556 60.4709 22.9556 60.4824 22.9442C60.4939 22.9327 60.5168 22.9327 60.5511 22.9327C60.5855 22.9212 60.6199 22.9098 60.6428 22.8869C60.6657 22.864 60.7001 22.841 60.7345 22.841C60.7918 22.7952 60.8376 22.7608 60.872 22.7265C60.9064 22.6921 60.9407 22.6577 60.9866 22.6233C61.0324 22.589 61.1011 22.5317 61.1813 22.4629C61.2386 22.4171 61.2959 22.3827 61.3532 22.3483C61.4105 22.314 61.4678 22.2796 61.5136 22.2452C61.548 22.2337 61.5824 22.2223 61.6053 22.2108C61.6282 22.1994 61.6511 22.1765 61.6855 22.165C61.8116 22.0962 61.9376 22.0275 62.0636 21.9587C62.1897 21.8785 62.3043 21.764 62.4074 21.615C62.4647 21.5119 62.5678 21.3973 62.7168 21.2827C62.7741 21.2369 62.8199 21.191 62.8657 21.1452C62.9116 21.0994 62.9574 21.0535 62.9918 21.0077C63.4272 20.5379 63.8168 20.0681 64.1834 19.6212C64.2407 19.5296 64.2866 19.3921 64.3095 19.2087C64.3438 19.0254 64.3782 18.8879 64.4241 18.7848C64.4355 18.716 64.447 18.6587 64.4699 18.6129C64.4928 18.5785 64.5157 18.5327 64.5501 18.4869C64.6647 18.2462 64.6188 18.0285 64.4241 17.8337C64.172 17.5931 63.897 17.3525 63.622 17.1119C63.347 16.8713 63.0261 16.7108 62.6595 16.6192C62.5793 16.5963 62.4991 16.5733 62.4188 16.539C62.3386 16.5046 62.2584 16.4817 62.1897 16.4702C62.0751 16.4358 61.9605 16.39 61.8574 16.3556C61.7543 16.3213 61.6397 16.2869 61.5251 16.264C61.4563 16.2525 61.3761 16.2296 61.3074 16.2067C61.2386 16.1838 61.147 16.1494 61.0668 16.1379C60.8491 16.0921 60.6199 16.0348 60.3907 15.989C60.1616 15.9317 59.9324 15.9202 59.7032 15.9431C59.623 15.9431 59.5428 15.9317 59.4741 15.9202C59.3939 15.9088 59.3136 15.8858 59.222 15.8629C59.1647 15.8629 59.1074 15.8515 59.0501 15.84C58.9928 15.8285 58.9355 15.8171 58.8782 15.8171L58.7751 15.8056C58.5001 15.7713 58.2251 15.7369 57.9616 15.714C57.6866 15.691 57.4116 15.6681 57.148 15.6567C56.7928 15.6338 56.4491 15.6223 56.1282 15.6108C55.8074 15.6108 55.498 15.5994 55.2001 15.5994C55.1428 15.5994 55.0855 15.5994 55.0282 15.5994C54.9709 15.5994 54.9251 15.6108 54.8907 15.6223C54.8793 15.4504 54.8678 15.3588 54.8449 15.3358C54.822 15.3129 54.7532 15.3129 54.6501 15.3358C54.6157 15.3473 54.5814 15.3473 54.5584 15.3358C54.5355 15.3244 54.5012 15.3244 54.4668 15.3358C54.4095 15.3358 54.3522 15.3244 54.2949 15.3015C54.2376 15.2785 54.1918 15.2785 54.1459 15.2785C53.997 15.3129 53.8595 15.3358 53.722 15.3244C53.5845 15.3129 53.447 15.3129 53.298 15.3015C53.0803 15.2671 52.8741 15.2556 52.6678 15.2671C52.4616 15.2785 52.2553 15.3015 52.0491 15.3358C52.0262 15.3473 51.9918 15.3931 51.9574 15.4504C51.8657 15.2556 51.7168 15.1754 51.4991 15.1983C51.4532 15.1983 51.4074 15.2098 51.3845 15.2098C51.3616 15.2098 51.373 15.2327 51.373 15.1869C51.522 15.1525 51.6709 15.1296 51.8084 15.1296C51.9574 15.1296 52.0949 15.1296 52.2324 15.141C52.2782 15.141 52.3241 15.141 52.3584 15.141C52.3928 15.1525 52.4387 15.1525 52.4845 15.141C52.622 15.141 52.748 15.0035 52.9314 14.9692C53.0116 14.9806 53.0803 14.9119 53.1376 14.9004C53.1949 14.9004 53.1491 14.7285 52.9887 14.7285L52.9084 14.6483L52.6105 14.614L52.473 14.4765C52.3584 14.4077 52.0032 14.4421 52.1293 14.4306C52.2668 14.4192 52.1866 14.3046 51.9116 14.3046L51.8428 14.316C51.8199 14.3046 51.6251 14.3619 51.5793 14.3504C51.5334 14.339 51.4876 14.3275 51.4418 14.339C51.4074 14.3504 51.3616 14.3504 51.3157 14.3619C51.2699 14.3619 51.2126 14.3619 51.1553 14.3619L51.2126 14.3504C51.098 14.3046 50.9834 14.2817 50.8459 14.2817C50.7084 14.2817 50.6053 14.3275 50.5251 14.4077C50.4678 14.4077 50.422 14.4077 50.4105 14.4077L50.3991 14.3504C50.2959 14.2931 50.1241 14.316 50.2387 14.2931C50.273 14.2817 50.3074 14.2702 50.3532 14.2588C50.4793 14.2129 50.6397 14.1327 50.8574 14.0181C51.0293 13.9608 51.2355 13.9494 51.4762 13.9608C51.522 13.9608 51.5793 13.9608 51.6251 13.9608C51.6824 13.9608 51.7397 13.9608 51.8084 13.9494L51.8314 13.9608C51.8657 13.9494 51.9116 13.9379 51.9459 13.9379C51.9918 13.9379 52.0376 13.9035 52.0834 13.8577C52.1522 13.7775 52.2668 13.7202 52.4387 13.6973C52.4845 13.6744 52.5647 13.6515 52.6678 13.6285C52.7022 13.6056 52.7366 13.5713 52.7939 13.5369L52.8053 13.514L52.9084 13.4108L52.897 13.3879L52.9199 13.3765C52.9657 13.3765 53.023 13.365 53.0689 13.3535C53.1262 13.3421 53.172 13.3306 53.2178 13.3306C53.3209 13.3077 53.4241 13.2963 53.5272 13.2848C53.6303 13.2733 53.7334 13.2619 53.8366 13.239C53.8709 13.2275 53.9053 13.2275 53.9282 13.2275C53.9512 13.2275 53.9855 13.216 54.0199 13.216C54.0657 13.216 54.1116 13.2046 54.1574 13.1931C54.2032 13.1817 54.2491 13.1702 54.2949 13.1702C54.4209 13.1702 54.5584 13.1702 54.6959 13.1702C54.8334 13.1817 54.9709 13.1817 55.097 13.1702C55.1772 13.1588 55.2689 13.1588 55.3605 13.1588C55.4522 13.1588 55.5324 13.1702 55.6126 13.1702C55.647 13.1588 55.6699 13.1588 55.6928 13.1588C55.7157 13.1588 55.7386 13.1588 55.773 13.1473H55.8647C55.9334 13.1358 56.0022 13.1358 56.0709 13.1244C56.1397 13.1129 56.2084 13.1129 56.2772 13.1015C56.4491 13.1015 56.598 13.1129 56.747 13.1015C56.8959 13.09 57.0564 13.0785 57.2282 13.0556C57.2855 13.0442 57.3428 13.0327 57.4001 13.0327C57.4689 13.0327 57.5376 13.0327 57.6064 13.0327C57.7324 13.0327 57.847 13.0213 57.9501 13.0213C58.0532 13.0098 58.1678 12.9983 58.3053 12.964C58.4657 12.9296 58.672 12.9525 58.9241 13.0213C58.9928 13.0327 59.0501 13.0442 59.1074 13.0556C59.1532 13.0671 59.2105 13.0785 59.2678 13.0785L59.3022 13.1015C59.3366 13.1015 59.3709 13.1129 59.4282 13.1129C59.4741 13.1244 59.5199 13.1015 59.5657 13.0671C59.6459 13.0213 59.7261 12.9983 59.8064 13.0098C59.898 13.0098 60.0011 13.0327 60.1157 13.0785C60.1501 13.0785 60.173 13.09 60.2074 13.1015C60.2418 13.1129 60.2761 13.1244 60.2991 13.1244C60.322 13.1244 60.3334 13.1244 60.3564 13.1358C60.3907 13.1358 60.4251 13.1473 60.4595 13.1473C60.5053 13.1588 60.5511 13.1588 60.597 13.1588C60.872 13.1244 61.1011 13.1931 61.2845 13.3765C61.3074 13.4223 61.3532 13.4567 61.4105 13.5025C61.4678 13.5483 61.548 13.5483 61.6282 13.5369C61.7084 13.5254 61.7886 13.5369 61.8574 13.5713C61.9261 13.6056 62.0063 13.6515 62.098 13.6973C62.1553 13.7317 62.2126 13.766 62.2813 13.8004C62.3501 13.8348 62.4188 13.8692 62.4991 13.8806C62.648 13.9035 62.8313 13.9952 63.0376 14.1556L63.2209 14.2702L63.2897 14.316L63.3241 14.339C63.3928 14.4306 63.4616 14.5108 63.5303 14.591C63.5991 14.6713 63.6678 14.7515 63.748 14.8317C63.9199 15.015 64.0918 15.1983 64.2522 15.3817C64.3897 15.565 64.5386 15.7483 64.6761 15.9317C64.8136 16.1265 64.9282 16.3327 65.0199 16.5504C65.0657 16.6077 65.0886 16.665 65.1116 16.7338C65.123 16.8025 65.1459 16.8713 65.1688 16.9629C65.1803 16.9973 65.1803 17.0317 65.1918 17.0546C65.2032 17.0775 65.2032 17.1119 65.2147 17.1462L65.2261 17.1692C65.2261 17.1921 65.2376 17.215 65.2376 17.2494C65.2376 17.2837 65.2605 17.3181 65.2834 17.341C65.3636 17.4327 65.4209 17.5358 65.4553 17.6504C65.4897 17.765 65.5011 17.8796 65.5241 18.0171C65.5355 18.166 65.5699 18.315 65.6501 18.4869C65.6386 18.4983 65.6501 18.5098 65.6616 18.5098C65.6043 18.6358 65.5813 18.739 65.6043 18.8421C65.6157 18.9452 65.6501 19.0483 65.6845 19.14L65.6959 19.1629C65.7074 19.1973 65.7074 19.2431 65.6959 19.289C65.6845 19.3004 65.673 19.3462 65.6616 19.4035Z" fill="#465161"/>
</svg>
