<svg width="182" height="48" viewBox="0 0 182 48" fill="none" xmlns="http://www.w3.org/2000/svg">
<path d="M86.1477 12L86.1215 20.4451L93.5 12H99.5934L90.7462 22.1586L99.2612 31.3468L96.0178 34.7738H95.7293L86.1127 23.741L86.1215 30.1753L82.1175 34.7738H81.6017L81.5929 16.4498L85.5183 12H86.1477ZM100.328 16.9044V34.7825H100.896L104.856 30.2627V24.3617H107.313L111.299 19.7719H104.856V16.5373H113.537L117.463 12.0087H104.646L100.328 16.9044ZM65.0175 16.5897L65 34.7738H65.4721L69.5023 30.49V26.5298C69.5023 26.5298 73.6549 26.5123 74.1008 26.4948C74.5466 26.4773 75.5695 26.2325 75.9541 26.0577C76.3475 25.8828 78.3933 25.1397 79.5123 22.823C80.6313 20.5063 80.4302 17.6563 79.1626 15.3046C77.8862 12.9529 74.9488 12.0087 74.1707 12.0087C73.3926 12.0087 68.9603 12.0087 68.9603 12.0087L65.0175 16.5897ZM73.5937 22.01C73.3926 22.0187 69.581 22.01 69.581 22.01V16.5722C69.581 16.5722 72.5621 16.5635 73.3752 16.5635C74.1969 16.5722 74.8788 16.9482 75.1586 17.4552C75.4471 17.9623 75.9367 18.784 75.4646 20.5325C75.1149 21.8176 73.7948 22.0012 73.5937 22.01Z" fill="#465161"/>
</svg>
