<svg width="182" height="48" viewBox="0 0 182 48" fill="none" xmlns="http://www.w3.org/2000/svg">
<path d="M95.124 29.585L95.8135 29.2601L97.3574 29.7386L97.1778 30.0668L95.5942 29.5392L95.124 29.585Z" fill="#465161" stroke="#465161" stroke-width="0.0626595" stroke-miterlimit="10"/>
<path d="M97.9558 33.1331L98.4254 32.8954L97.9558 32.5647L97.0235 32.4672L96.8853 32.6826L97.2307 33.0012L97.9558 33.1331Z" fill="#465161" stroke="#465161" stroke-width="0.0626595" stroke-miterlimit="10"/>
<path d="M107.108 17.0269C107.108 17.2372 107.108 17.4475 107.108 17.6578C107.108 17.9063 107.108 18.1548 107.108 18.4033C107.108 18.6518 107.108 18.9004 107.108 19.1489C107.089 19.2056 107.058 19.2617 107.05 19.3203C106.975 19.8874 106.932 20.4609 106.827 21.0223C105.854 26.2091 103.071 30.1363 98.5614 32.8578C98.3722 32.9725 98.2065 32.991 97.9988 32.9216C97.6776 32.8145 97.345 32.7393 97.0175 32.6507C97.0104 32.6756 97.0034 32.7011 96.9964 32.726C98.0102 33.0452 99.0215 33.374 100.039 33.6811C101.626 34.1603 103.217 34.6254 104.806 35.0964C104.707 35.1142 104.609 35.1467 104.51 35.1474C103.33 35.1543 102.149 35.1563 100.968 35.1601C100.873 35.1569 100.778 35.1499 100.682 35.1499C97.1462 35.1461 93.6096 35.1595 90.0738 35.1295C89.1224 35.1212 88.1609 35.0505 87.2241 34.8905C83.0937 34.1845 79.6439 32.2308 76.9739 29.0027C73.6534 24.9864 72.4249 20.3526 73.2463 15.2173C73.8471 11.4577 75.5702 8.23981 78.3644 5.65017C82.4546 1.85939 87.3095 0.382972 92.8074 1.23302C97.0754 1.89316 100.576 3.99214 103.303 7.34071C105.327 9.82647 106.534 12.6767 106.947 15.859C106.998 16.2489 107.055 16.6376 107.108 17.0269ZM85.6642 26.0511C85.6674 26.0282 85.6706 26.0059 85.6738 25.9829C85.7764 25.9829 85.879 25.9829 85.981 25.9829C90.4726 25.9829 94.9643 25.9804 99.4561 25.99C99.7256 25.9906 99.8893 25.9078 100.047 25.6956C102.411 22.5121 103.189 18.9768 102.336 15.1108C100.834 8.30222 93.767 3.97557 87.0183 5.70178C81.0884 7.21833 77.1606 12.5174 77.455 18.6525C77.6105 21.8901 78.8728 24.6678 81.163 26.949C84.8849 30.6563 90.3923 31.649 95.1937 29.515C95.3773 29.4334 95.5289 29.4348 95.7086 29.4895C96.112 29.6132 96.5198 29.7221 96.9263 29.8368C96.934 29.8119 96.941 29.7865 96.9486 29.7617C93.1872 28.5248 89.4257 27.288 85.6642 26.0511ZM97.9988 33.1115C98.1376 33.0445 98.2766 32.9776 98.4161 32.9107C98.4231 32.9069 98.4308 32.9037 98.4378 32.8999" fill="#465161"/>
<path d="M97.9988 33.1115C98.1376 33.0445 98.2766 32.9776 98.4161 32.9107C98.4231 32.9069 98.4308 32.9037 98.4378 32.8999M107.108 17.0269C107.108 17.2372 107.108 17.4475 107.108 17.6578C107.108 17.9063 107.108 18.1548 107.108 18.4033C107.108 18.6518 107.108 18.9004 107.108 19.1489C107.089 19.2056 107.058 19.2617 107.05 19.3203C106.975 19.8874 106.932 20.4609 106.827 21.0223C105.854 26.2091 103.071 30.1363 98.5614 32.8578C98.3722 32.9725 98.2065 32.991 97.9988 32.9215C97.6776 32.8145 97.345 32.7393 97.0175 32.6507C97.0104 32.6756 97.0034 32.7011 96.9964 32.7259C98.0102 33.0452 99.0215 33.374 100.039 33.6811C101.626 34.1603 103.217 34.6254 104.806 35.0964C104.707 35.1142 104.609 35.1467 104.51 35.1474C103.33 35.1543 102.149 35.1563 100.968 35.1601C100.873 35.1569 100.778 35.1499 100.682 35.1499C97.1462 35.1461 93.6096 35.1595 90.0738 35.1295C89.1224 35.1212 88.1609 35.0505 87.2241 34.8905C83.0937 34.1845 79.6439 32.2308 76.9739 29.0027C73.6534 24.9864 72.4249 20.3526 73.2463 15.2173C73.8471 11.4577 75.5702 8.23981 78.3644 5.65017C82.4546 1.85939 87.3095 0.382972 92.8074 1.23302C97.0754 1.89316 100.576 3.99214 103.303 7.34071C105.327 9.82647 106.534 12.6767 106.947 15.8589C106.998 16.2489 107.055 16.6376 107.108 17.0269ZM85.6642 26.0511C85.6674 26.0282 85.6706 26.0059 85.6738 25.9829C85.7764 25.9829 85.879 25.9829 85.981 25.9829C90.4726 25.9829 94.9643 25.9804 99.4561 25.99C99.7256 25.9906 99.8893 25.9078 100.047 25.6956C102.411 22.5121 103.189 18.9768 102.336 15.1108C100.834 8.30222 93.767 3.97557 87.0183 5.70178C81.0884 7.21833 77.1606 12.5174 77.455 18.6525C77.6105 21.8901 78.8728 24.6677 81.163 26.949C84.8849 30.6563 90.3923 31.649 95.1937 29.515C95.3773 29.4334 95.5289 29.4347 95.7086 29.4895C96.112 29.6132 96.5198 29.7221 96.9263 29.8368C96.934 29.8119 96.941 29.7865 96.9486 29.7617C93.1871 28.5248 89.4257 27.2879 85.6642 26.0511Z" stroke="#465161" stroke-width="0.0626595" stroke-miterlimit="10"/>
<path d="M73.6601 42.9425C73.5992 42.9425 73.5668 42.8898 73.5911 42.8371L74.8357 40.1087C74.8479 40.0844 74.8844 40.0641 74.9047 40.0641H74.9452C74.9655 40.0641 75.0019 40.0844 75.0141 40.1087L76.2506 42.8371C76.2749 42.8898 76.2425 42.9425 76.1817 42.9425H75.9263C75.8776 42.9425 75.8493 42.9182 75.833 42.8817L75.5817 42.3263H74.256L74.0087 42.8817C73.9965 42.9101 73.9641 42.9425 73.9155 42.9425H73.6601ZM74.4141 41.9777H75.4276L74.929 40.8668H74.9087L74.4141 41.9777Z" fill="#465161"/>
<path d="M77.6573 42.8655V40.1817C77.6573 40.1412 77.6898 40.1047 77.7344 40.1047H78.6587C79.1573 40.1047 79.5668 40.5101 79.5668 41.0006C79.5668 41.5033 79.1573 41.9128 78.6627 41.9128H78.0749V42.8655C78.0749 42.906 78.0384 42.9425 77.9979 42.9425H77.7344C77.6898 42.9425 77.6573 42.906 77.6573 42.8655ZM78.0749 41.5155H78.6506C78.9303 41.5155 79.1492 41.2885 79.1492 40.9966C79.1492 40.7209 78.9303 40.5101 78.6506 40.5101H78.0749V41.5155Z" fill="#465161"/>
<path d="M80.5805 42.9425C80.5197 42.9425 80.4872 42.8898 80.5116 42.8371L81.7562 40.1087C81.7683 40.0844 81.8048 40.0641 81.8251 40.0641H81.8656C81.8859 40.0641 81.9224 40.0844 81.9345 40.1087L83.171 42.8371C83.1954 42.8898 83.1629 42.9425 83.1021 42.9425H82.8467C82.7981 42.9425 82.7697 42.9182 82.7535 42.8817L82.5021 42.3263H81.1764L80.9291 42.8817C80.917 42.9101 80.8845 42.9425 80.8359 42.9425H80.5805ZM81.3345 41.9777H82.3481L81.8494 40.8668H81.8291L81.3345 41.9777Z" fill="#465161"/>
<path d="M84.5778 42.8655V40.1817C84.5778 40.1412 84.6102 40.1047 84.6548 40.1047H85.7575C86.244 40.1047 86.6413 40.4898 86.6413 40.9722C86.6413 41.3452 86.394 41.6533 86.0413 41.7952L86.5967 42.825C86.6251 42.8777 86.5967 42.9425 86.5278 42.9425H86.2237C86.1791 42.9425 86.1548 42.9223 86.1386 42.8898L85.6075 41.8317H84.9953V42.8655C84.9953 42.906 84.9589 42.9425 84.9183 42.9425H84.6548C84.6102 42.9425 84.5778 42.906 84.5778 42.8655ZM85.0034 41.4831H85.7251C85.9886 41.4831 86.2197 41.2601 86.2197 40.9804C86.2197 40.7168 85.9886 40.4979 85.7251 40.4979H85.0034V41.4831Z" fill="#465161"/>
<path d="M88.7221 42.8655V40.4858H88.0613C88.0167 40.4858 87.9843 40.4493 87.9843 40.4087V40.1817C87.9843 40.1412 88.0167 40.1047 88.0613 40.1047H89.8046C89.8492 40.1047 89.8816 40.1412 89.8816 40.1817V40.4087C89.8816 40.4493 89.8492 40.4858 89.8046 40.4858H89.1438V42.8655C89.1438 42.906 89.1073 42.9425 89.0667 42.9425H88.7992C88.7586 42.9425 88.7221 42.906 88.7221 42.8655Z" fill="#465161"/>
<path d="M91.0785 42.8493L91.5812 40.1249C91.5893 40.0925 91.6218 40.0641 91.6542 40.0641H91.7191C91.7434 40.0641 91.7799 40.0844 91.788 40.1087L92.6353 42.1804H92.6515L93.4947 40.1087C93.5028 40.0844 93.5353 40.0641 93.5637 40.0641H93.6285C93.661 40.0641 93.6934 40.0925 93.7015 40.1249L94.2002 42.8493C94.2123 42.906 94.1839 42.9425 94.1272 42.9425H93.8637C93.8272 42.9425 93.7947 42.9141 93.7866 42.8858L93.4866 41.0736C93.4826 41.0736 93.4745 41.0736 93.4745 41.0736L92.7447 42.9385C92.7366 42.9628 92.7123 42.9831 92.6758 42.9831H92.6028C92.5704 42.9831 92.542 42.9628 92.5339 42.9385L91.8001 41.0736C91.7961 41.0736 91.788 41.0736 91.7839 41.0736L91.492 42.8858C91.488 42.9141 91.4515 42.9425 91.4191 42.9425H91.1555C91.0988 42.9425 91.0704 42.906 91.0785 42.8493Z" fill="#465161"/>
<path d="M95.7859 42.8655V40.1817C95.7859 40.1412 95.8183 40.1047 95.8629 40.1047H97.4845C97.5291 40.1047 97.5615 40.1412 97.5615 40.1817V40.4087C97.5615 40.4493 97.5291 40.4858 97.4845 40.4858H96.2034V41.3128H97.2859C97.3264 41.3128 97.3629 41.3493 97.3629 41.3898V41.6168C97.3629 41.6614 97.3264 41.6939 97.2859 41.6939H96.2034V42.5655H97.4845C97.5291 42.5655 97.5615 42.602 97.5615 42.6425V42.8655C97.5615 42.906 97.5291 42.9425 97.4845 42.9425H95.8629C95.8183 42.9425 95.7859 42.906 95.7859 42.8655Z" fill="#465161"/>
<path d="M99.1352 42.8655V40.1371C99.1352 40.0966 99.1717 40.0641 99.2123 40.0641H99.2447C99.2852 40.0641 99.3136 40.0641 99.3663 40.1249L101.069 42.0993H101.077V40.1817C101.077 40.1412 101.11 40.1047 101.154 40.1047H101.414C101.454 40.1047 101.491 40.1412 101.491 40.1817V42.9101C101.491 42.9506 101.454 42.9831 101.414 42.9831H101.377C101.337 42.9831 101.308 42.9831 101.26 42.9263L99.5528 40.8912H99.5447V42.8655C99.5447 42.906 99.5123 42.9425 99.4677 42.9425H99.2123C99.1717 42.9425 99.1352 42.906 99.1352 42.8655Z" fill="#465161"/>
<path d="M103.715 42.8655V40.4858H103.054C103.01 40.4858 102.977 40.4493 102.977 40.4087V40.1817C102.977 40.1412 103.01 40.1047 103.054 40.1047H104.798C104.842 40.1047 104.875 40.1412 104.875 40.1817V40.4087C104.875 40.4493 104.842 40.4858 104.798 40.4858H104.137V42.8655C104.137 42.906 104.1 42.9425 104.06 42.9425H103.792C103.752 42.9425 103.715 42.906 103.715 42.8655Z" fill="#465161"/>
<path d="M106.231 42.6628C106.194 42.6304 106.162 42.602 106.206 42.5331L106.312 42.3668C106.344 42.3141 106.405 42.2979 106.45 42.3344C106.64 42.4925 106.786 42.6141 107.098 42.6141C107.378 42.6141 107.556 42.4439 107.556 42.2371C107.556 41.9939 107.346 41.8398 106.944 41.6736C106.531 41.4993 106.206 41.2844 106.206 40.8141C106.206 40.4979 106.45 40.0641 107.094 40.0641C107.5 40.0641 107.804 40.2749 107.844 40.3033C107.877 40.3236 107.909 40.3804 107.869 40.4412L107.767 40.5952C107.735 40.6479 107.682 40.6722 107.625 40.6358C107.467 40.5344 107.313 40.4331 107.078 40.4331C106.738 40.4331 106.62 40.6479 106.62 40.7979C106.62 41.029 106.798 41.1709 107.135 41.3087C107.605 41.4993 108.006 41.7222 108.006 42.2168C108.006 42.6385 107.629 42.9831 107.102 42.9831C106.608 42.9831 106.296 42.7236 106.231 42.6628Z" fill="#465161"/>
</svg>
