<svg width="182" height="48" viewBox="0 0 182 48" fill="none" xmlns="http://www.w3.org/2000/svg">
<g clip-path="url(#clip0_196_464)">
<path d="M41.5172 26.4958C41.2677 26.1647 40.9223 25.8816 40.4858 25.6369C40.0444 25.3922 39.5695 25.2722 39.0514 25.2722C38.5957 25.2722 38.1831 25.3682 37.8042 25.5553C37.43 25.7424 37.2381 26.0543 37.2381 26.4958C37.2381 26.9372 37.4444 27.2443 37.8617 27.4218C38.2791 27.6041 38.8835 27.7865 39.6846 27.9736C40.1068 28.0696 40.5337 28.1943 40.9655 28.3479C41.3972 28.5062 41.7858 28.7125 42.1408 28.9717C42.4958 29.2308 42.7788 29.5522 42.9995 29.9361C43.2202 30.32 43.3257 30.7854 43.3257 31.3324C43.3257 32.0233 43.1962 32.6039 42.9371 33.0838C42.6781 33.5636 42.3327 33.9474 41.9057 34.2449C41.474 34.5424 40.9751 34.7583 40.4042 34.8927C39.8334 35.0271 39.2385 35.0942 38.6293 35.0942C37.7514 35.0942 36.8975 34.9311 36.0676 34.6096C35.2377 34.2881 34.5469 33.8323 34 33.2373L35.8565 31.5003C36.1683 31.9082 36.5761 32.2441 37.0798 32.5128C37.5787 32.7815 38.1352 32.911 38.7492 32.911C38.9507 32.911 39.1618 32.887 39.3728 32.839C39.5839 32.7911 39.7806 32.7191 39.9629 32.6135C40.1452 32.5128 40.2891 32.3736 40.3946 32.2009C40.505 32.0281 40.5577 31.817 40.5577 31.5675C40.5577 31.0973 40.3419 30.7614 39.9101 30.5551C39.4784 30.3535 38.8355 30.1472 37.9721 29.9457C37.5499 29.8497 37.1374 29.7298 36.7392 29.581C36.341 29.4323 35.9812 29.2356 35.6694 28.9956C35.3576 28.7509 35.1033 28.4486 34.9163 28.0888C34.7292 27.7289 34.6332 27.2827 34.6332 26.7501C34.6332 26.1263 34.7628 25.5841 35.0218 25.1282C35.2808 24.6724 35.6214 24.3029 36.0436 24.0103C36.4657 23.7224 36.9455 23.5064 37.4779 23.3625C38.0104 23.2233 38.5573 23.1514 39.1234 23.1514C39.9389 23.1514 40.7304 23.2905 41.5076 23.5736C42.2847 23.8567 42.8988 24.2886 43.3497 24.8643L41.5172 26.4862V26.4958Z" fill="#465161"/>
<path d="M51.4522 23.1562C52.1862 23.1562 52.8194 23.2857 53.3423 23.5448C53.87 23.8039 54.297 24.1446 54.6328 24.5668C54.9686 24.9891 55.2132 25.4737 55.3715 26.0255C55.5298 26.5725 55.6066 27.1387 55.6066 27.7193V34.7679H52.7858V28.5638C52.7858 28.2327 52.7619 27.892 52.7139 27.5418C52.6659 27.1867 52.57 26.87 52.4213 26.5773C52.2725 26.2894 52.0615 26.0495 51.788 25.8624C51.5146 25.6752 51.15 25.5793 50.6943 25.5793C50.2385 25.5793 49.85 25.6656 49.519 25.8384C49.188 26.0111 48.9145 26.2414 48.6987 26.5293C48.478 26.822 48.3149 27.1435 48.2045 27.5034C48.0942 27.8632 48.0414 28.2327 48.0414 28.607V34.7631H45.2207V17H48.0414V25.0611H48.0894C48.1997 24.826 48.3581 24.5956 48.5691 24.3653C48.7802 24.1398 49.0249 23.9335 49.3079 23.7559C49.5909 23.5736 49.9123 23.4297 50.2721 23.3193C50.6319 23.2089 51.0253 23.1562 51.4474 23.1562" fill="#465161"/>
<path d="M57.0696 29.0772C57.0696 28.1847 57.2327 27.3738 57.5493 26.6445C57.8707 25.9152 58.3073 25.2914 58.8541 24.778C59.401 24.2598 60.0534 23.8615 60.8066 23.5784C61.5549 23.2953 62.3561 23.1562 63.2004 23.1562C64.0447 23.1562 64.8458 23.2953 65.5942 23.5784C66.3473 23.8615 66.9949 24.2598 67.5466 24.778C68.0935 25.2962 68.53 25.92 68.8514 26.6445C69.1728 27.3738 69.3312 28.1847 69.3312 29.0772C69.3312 29.9697 69.168 30.7854 68.8514 31.5195C68.53 32.2537 68.0935 32.887 67.5466 33.41C66.9997 33.9378 66.3473 34.3457 65.5942 34.6432C64.841 34.9407 64.0447 35.0894 63.2004 35.0894C62.3561 35.0894 61.5549 34.9407 60.8066 34.6432C60.0534 34.3457 59.4058 33.933 58.8541 33.41C58.3073 32.887 57.8707 32.2537 57.5493 31.5195C57.2279 30.7854 57.0696 29.9697 57.0696 29.0772ZM59.9335 29.0772C59.9335 29.5138 60.0007 29.9553 60.1302 30.3919C60.2645 30.8286 60.4612 31.222 60.7298 31.5675C60.9985 31.913 61.3343 32.1961 61.742 32.412C62.1498 32.6327 62.6343 32.7431 63.2004 32.7431C63.7664 32.7431 64.2509 32.6327 64.6587 32.412C65.0665 32.1913 65.4023 31.913 65.6709 31.5675C65.9395 31.222 66.1362 30.8334 66.2706 30.3919C66.4049 29.9553 66.472 29.5138 66.472 29.0772C66.472 28.6406 66.4049 28.2039 66.2706 27.7721C66.1362 27.3402 65.9395 26.9516 65.6709 26.6109C65.4023 26.2654 65.0665 25.9871 64.6587 25.776C64.2509 25.5649 63.7664 25.4593 63.2004 25.4593C62.6343 25.4593 62.1498 25.5649 61.742 25.776C61.3343 25.9871 60.9985 26.2654 60.7298 26.6109C60.4612 26.9564 60.2645 27.345 60.1302 27.7721C59.9959 28.2039 59.9335 28.6358 59.9335 29.0772Z" fill="#465161"/>
<path d="M70.4585 29.0772C70.4585 28.1847 70.6216 27.3738 70.943 26.6445C71.2644 25.9152 71.6962 25.2914 72.2478 24.778C72.7947 24.2598 73.4471 23.8615 74.2003 23.5784C74.9534 23.2953 75.7498 23.1562 76.5941 23.1562C77.4384 23.1562 78.2395 23.2953 78.9879 23.5784C79.741 23.8615 80.3886 24.2598 80.9403 24.778C81.4872 25.2962 81.9237 25.92 82.2451 26.6445C82.5666 27.3738 82.7249 28.1847 82.7249 29.0772C82.7249 29.9697 82.5666 30.7854 82.2451 31.5195C81.9237 32.2537 81.492 32.887 80.9403 33.41C80.3934 33.9378 79.741 34.3457 78.9879 34.6432C78.2347 34.9407 77.4384 35.0894 76.5941 35.0894C75.7498 35.0894 74.9487 34.9407 74.2003 34.6432C73.4471 34.3457 72.7995 33.933 72.2478 33.41C71.701 32.887 71.2644 32.2537 70.943 31.5195C70.6216 30.7854 70.4585 29.9697 70.4585 29.0772ZM73.3272 29.0772C73.3272 29.5138 73.3944 29.9553 73.5287 30.3919C73.663 30.8286 73.8597 31.222 74.1283 31.5675C74.397 31.913 74.7328 32.1961 75.1405 32.412C75.5483 32.6327 76.0328 32.7431 76.5989 32.7431C77.1649 32.7431 77.6495 32.6327 78.0572 32.412C78.465 32.1913 78.8008 31.913 79.0694 31.5675C79.3381 31.222 79.5347 30.8334 79.6691 30.3919C79.8034 29.9553 79.8705 29.5138 79.8705 29.0772C79.8705 28.6406 79.8034 28.2039 79.6691 27.7721C79.5347 27.3402 79.3381 26.9516 79.0694 26.6109C78.8008 26.2654 78.465 25.9871 78.0572 25.776C77.6495 25.5649 77.1649 25.4593 76.5989 25.4593C76.0328 25.4593 75.5483 25.5649 75.1405 25.776C74.7328 25.9871 74.397 26.2654 74.1283 26.6109C73.8645 26.9564 73.663 27.345 73.5287 27.7721C73.3944 28.2039 73.3272 28.6358 73.3272 29.0772Z" fill="#465161"/>
<path d="M83.123 25.7424V23.4872H85.0947V20.2196H87.8674V23.4872H90.6882V25.7424H87.8674V30.9821C87.8674 31.4811 87.9586 31.8986 88.1361 32.2249C88.3184 32.5559 88.7213 32.7191 89.345 32.7191C89.5321 32.7191 89.7383 32.6999 89.9542 32.6615C90.1749 32.6231 90.3668 32.5655 90.5443 32.484L90.6402 34.6912C90.3908 34.7871 90.0933 34.8591 89.7479 34.9167C89.4025 34.9695 89.0763 34.9983 88.7597 34.9983C88.0066 34.9983 87.3973 34.8927 86.9272 34.6816C86.4571 34.4705 86.0829 34.1826 85.8095 33.8131C85.536 33.4436 85.3489 33.0214 85.2482 32.5416C85.1475 32.0665 85.0947 31.5531 85.0947 31.0013V25.7376H83.123V25.7424Z" fill="#465161"/>
<path d="M99.3807 26.4958C99.1312 26.1647 98.7858 25.8816 98.3445 25.6369C97.908 25.3922 97.4282 25.2722 96.9101 25.2722C96.4544 25.2722 96.0419 25.3682 95.6629 25.5553C95.2887 25.7424 95.0968 26.0543 95.0968 26.4958C95.0968 26.9372 95.3031 27.2443 95.7205 27.4218C96.133 27.6041 96.7423 27.7865 97.5434 27.9736C97.9655 28.0696 98.3925 28.1943 98.8242 28.3479C99.256 28.5062 99.6445 28.7125 99.9995 28.9717C100.35 29.2308 100.638 29.5522 100.858 29.9361C101.079 30.32 101.189 30.7854 101.189 31.3324C101.189 32.0233 101.06 32.6039 100.801 33.0838C100.542 33.5636 100.196 33.9474 99.7693 34.2449C99.3375 34.5424 98.8386 34.7583 98.2677 34.8927C97.6969 35.0271 97.1068 35.0942 96.4928 35.0942C95.6149 35.0942 94.761 34.9311 93.9311 34.6096C93.1012 34.2881 92.4104 33.8323 91.8635 33.2373L93.72 31.5003C94.0318 31.9082 94.4396 32.2441 94.9385 32.5128C95.4374 32.7815 95.9939 32.911 96.6079 32.911C96.8094 32.911 97.0205 32.887 97.2316 32.839C97.4426 32.7911 97.6393 32.7191 97.8168 32.6135C97.9991 32.5128 98.143 32.3736 98.2534 32.2009C98.3637 32.0281 98.4165 31.817 98.4165 31.5675C98.4165 31.0973 98.2006 30.7614 97.7688 30.5551C97.3371 30.3535 96.6895 30.1472 95.8308 29.9457C95.4086 29.8497 94.9961 29.7298 94.5979 29.581C94.1997 29.4323 93.8448 29.2356 93.5281 28.9956C93.2163 28.7509 92.9621 28.4486 92.775 28.0888C92.5879 27.7289 92.492 27.2827 92.492 26.7501C92.492 26.1263 92.6215 25.5841 92.8805 25.1282C93.1396 24.6724 93.4802 24.3029 93.9023 24.0103C94.3245 23.7224 94.8042 23.5064 95.3367 23.3625C95.8692 23.2233 96.416 23.1514 96.9821 23.1514C97.7976 23.1514 98.5892 23.2905 99.3663 23.5736C100.143 23.8567 100.757 24.2886 101.213 24.8643L99.3807 26.4862V26.4958Z" fill="#465161"/>
<path d="M102.245 25.7424V23.4872H104.216V20.2196H106.989V23.4872H109.81V25.7424H106.989V30.9821C106.989 31.4811 107.08 31.8986 107.258 32.2249C107.44 32.5559 107.843 32.7191 108.467 32.7191C108.654 32.7191 108.86 32.6999 109.076 32.6615C109.296 32.6231 109.488 32.5655 109.666 32.484L109.762 34.6912C109.512 34.7871 109.215 34.8591 108.87 34.9167C108.524 34.9695 108.198 34.9983 107.881 34.9983C107.128 34.9983 106.519 34.8927 106.049 34.6816C105.579 34.4705 105.204 34.1826 104.931 33.8131C104.658 33.4436 104.471 33.0214 104.37 32.5416C104.269 32.0665 104.216 31.5531 104.216 31.0013V25.7376H102.245V25.7424Z" fill="#465161"/>
<path d="M118.852 33.3333H118.78C118.497 33.8371 118.047 34.2449 117.418 34.5664C116.79 34.8879 116.08 35.051 115.279 35.051C114.823 35.051 114.348 34.9935 113.859 34.8735C113.364 34.7583 112.909 34.5616 112.496 34.2881C112.079 34.0146 111.738 33.6547 111.465 33.2085C111.191 32.7623 111.052 32.2105 111.052 31.5531C111.052 30.7086 111.292 30.0321 111.767 29.533C112.242 29.034 112.861 28.6502 113.609 28.3815C114.362 28.1128 115.192 27.94 116.113 27.8537C117.03 27.7673 117.927 27.7241 118.804 27.7241V27.441C118.804 26.7357 118.55 26.2174 118.042 25.8768C117.533 25.5409 116.924 25.373 116.224 25.373C115.629 25.373 115.058 25.4977 114.506 25.7472C113.959 25.9967 113.504 26.3038 113.144 26.6637L111.685 24.9507C112.328 24.3557 113.067 23.9095 113.907 23.612C114.746 23.3145 115.595 23.1658 116.454 23.1658C117.456 23.1658 118.282 23.3049 118.934 23.588C119.582 23.8711 120.095 24.2406 120.474 24.6916C120.848 25.1474 121.112 25.6561 121.261 26.2174C121.409 26.7836 121.486 27.345 121.486 27.9112V34.7727H118.852V33.3381V33.3333ZM118.809 29.6194H118.176C117.72 29.6194 117.245 29.6386 116.742 29.677C116.243 29.7154 115.777 29.8017 115.355 29.9361C114.933 30.0704 114.578 30.2576 114.3 30.4975C114.017 30.7422 113.878 31.0733 113.878 31.4955C113.878 31.7642 113.935 31.9849 114.055 32.1673C114.17 32.3496 114.324 32.4936 114.511 32.5991C114.698 32.7095 114.909 32.7863 115.144 32.8342C115.379 32.8822 115.614 32.9062 115.849 32.9062C116.818 32.9062 117.557 32.6471 118.056 32.1289C118.555 31.6107 118.809 30.9101 118.809 30.0129V29.6146V29.6194Z" fill="#465161"/>
<path d="M145.222 32.6711C144.911 32.7527 144.589 32.7959 144.273 32.7959C143.62 32.7959 142.973 32.6231 142.397 32.2872L140.468 31.1597L136.717 28.9716C136.837 29.0532 136.938 29.1348 137.034 29.2068C139.221 30.8286 140.248 32.7767 140.07 35.5261C140.07 35.5645 140.061 35.598 140.056 35.6364L146.067 32.3304C145.803 32.4744 145.52 32.5895 145.218 32.6711" fill="#465161"/>
<path d="M148 29.0484V29.0052C148 29.0052 148 28.986 148 28.9764V28.9621C148 28.9621 148 28.9429 148 28.9333C148 28.9333 148 28.9237 148 28.9189C148 28.9093 148 28.8997 148 28.8853V28.8757C148 28.8613 148 28.8517 148 28.8421V28.8325C148 28.8325 148 28.8085 148 28.7941C148 28.7941 148 28.7605 148 28.7509C148 28.7509 148 28.7173 148 28.7077C148 28.7077 148 28.6742 147.995 28.6598C147.995 28.6598 147.995 28.631 147.99 28.6166C147.99 28.6166 147.99 28.5878 147.985 28.5734C147.976 28.511 147.966 28.4438 147.957 28.3815C147.957 28.3719 147.952 28.3575 147.952 28.3479C147.952 28.3335 147.947 28.3191 147.942 28.3047C147.942 28.2903 147.938 28.2759 147.933 28.2615C147.933 28.2471 147.928 28.2327 147.923 28.2183C147.923 28.2183 147.918 28.1847 147.914 28.1751C147.914 28.1607 147.909 28.1464 147.904 28.132C147.904 28.1176 147.899 28.1032 147.894 28.0936C147.894 28.0936 147.894 28.0888 147.894 28.084C147.894 28.0696 147.89 28.06 147.885 28.0456C147.885 28.0456 147.885 28.0408 147.885 28.036C147.885 28.0264 147.88 28.012 147.875 28.0024C147.875 28.0024 147.875 27.9976 147.875 27.9928C147.875 27.9832 147.87 27.9688 147.866 27.9592V27.9496C147.866 27.94 147.861 27.9304 147.856 27.916C147.856 27.916 147.856 27.9064 147.856 27.9016C147.856 27.892 147.846 27.8824 147.846 27.8728C147.846 27.8681 147.846 27.8633 147.842 27.8585C147.842 27.8489 147.837 27.8393 147.832 27.8297C147.832 27.8249 147.832 27.8201 147.827 27.8153C147.827 27.8057 147.822 27.7961 147.818 27.7865C147.818 27.7817 147.818 27.7769 147.808 27.7673C147.808 27.7577 147.803 27.7529 147.798 27.7433C147.798 27.7385 147.794 27.7289 147.789 27.7241C147.789 27.7145 147.784 27.7097 147.779 27.7001C147.779 27.6953 147.774 27.6857 147.77 27.6809C147.77 27.6713 147.765 27.6665 147.76 27.6569C147.76 27.6473 147.755 27.6425 147.75 27.6377C147.75 27.6281 147.746 27.6233 147.741 27.6185C147.741 27.6089 147.736 27.6041 147.731 27.5946C147.731 27.5898 147.726 27.5802 147.722 27.5754C147.722 27.5658 147.712 27.561 147.712 27.5514C147.712 27.5466 147.707 27.5418 147.702 27.5322C147.702 27.5226 147.693 27.5178 147.693 27.5082C147.693 27.5034 147.688 27.4986 147.683 27.4938C147.683 27.4842 147.674 27.4746 147.669 27.4698C147.669 27.465 147.664 27.4602 147.664 27.4554C147.659 27.4458 147.654 27.4362 147.65 27.4266C147.65 27.4218 147.65 27.417 147.64 27.4122C147.635 27.4026 147.631 27.393 147.626 27.3834C147.626 27.3834 147.621 27.3738 147.621 27.369C147.616 27.3594 147.611 27.3498 147.607 27.3402C147.607 27.3402 147.607 27.3306 147.602 27.3306C147.597 27.3211 147.592 27.3115 147.587 27.3019C147.587 27.3019 147.587 27.2971 147.583 27.2923C147.578 27.2827 147.573 27.2731 147.568 27.2635C147.568 27.2635 147.568 27.2587 147.563 27.2539C147.559 27.2443 147.554 27.2347 147.544 27.2251C147.544 27.2251 147.544 27.2203 147.544 27.2155C147.539 27.2059 147.535 27.1963 147.525 27.1867C147.525 27.1867 147.525 27.1819 147.52 27.1771C147.515 27.1675 147.511 27.1579 147.501 27.1483C147.501 27.1483 147.501 27.1435 147.496 27.1387C147.496 27.1291 147.487 27.1243 147.482 27.1147C147.429 27.0332 147.376 26.9516 147.319 26.8748C147.309 26.8652 147.299 26.8508 147.295 26.8412C147.285 26.8316 147.276 26.822 147.271 26.8076C147.261 26.798 147.252 26.7884 147.247 26.7788C147.247 26.7788 147.247 26.7788 147.247 26.774C147.237 26.7645 147.232 26.7549 147.223 26.7453C147.223 26.7453 147.223 26.7405 147.218 26.7405C147.208 26.7309 147.204 26.7213 147.194 26.7117C147.194 26.7117 147.194 26.7069 147.189 26.7021C147.184 26.6925 147.175 26.6877 147.17 26.6781C147.17 26.6781 147.165 26.6733 147.16 26.6685C147.151 26.6589 147.146 26.6541 147.141 26.6445C147.141 26.6445 147.136 26.6349 147.132 26.6349C147.127 26.6253 147.117 26.6205 147.112 26.6157C147.112 26.6157 147.103 26.6061 147.103 26.6013C147.098 26.5965 147.093 26.5869 147.084 26.5821C147.084 26.5773 147.074 26.5725 147.069 26.5677C147.064 26.5629 147.06 26.5581 147.05 26.5485C147.045 26.5437 147.04 26.5389 147.036 26.5341C147.031 26.5293 147.026 26.5245 147.021 26.5197C147.016 26.5149 147.012 26.5101 147.002 26.5005C147.002 26.5005 146.992 26.491 146.988 26.4862C146.983 26.4814 146.973 26.4718 146.968 26.467L146.959 26.4574C146.954 26.4526 146.945 26.443 146.94 26.4382C146.94 26.4382 146.935 26.4334 146.93 26.4286C146.925 26.419 146.916 26.4142 146.906 26.4046C146.906 26.4046 146.901 26.3998 146.897 26.395C146.887 26.3854 146.882 26.3806 146.873 26.371C146.873 26.371 146.873 26.371 146.863 26.3662C146.853 26.3566 146.844 26.3518 146.839 26.3422C146.839 26.3422 146.839 26.3422 146.834 26.3422C146.825 26.3326 146.815 26.323 146.805 26.3182C146.796 26.3086 146.786 26.299 146.772 26.2894C146.647 26.1839 146.518 26.0831 146.383 25.9967H146.378C146.374 25.9967 146.364 25.9871 146.359 25.9823C146.354 25.9823 146.345 25.9727 146.34 25.9679C146.34 25.9679 146.33 25.9631 146.326 25.9583C146.316 25.9535 146.311 25.9487 146.302 25.944C146.297 25.944 146.292 25.9392 146.287 25.9344C146.278 25.9296 146.273 25.9248 146.263 25.92C146.259 25.92 146.254 25.9152 146.249 25.9104C146.239 25.9056 146.23 25.9008 146.22 25.896C145.961 25.7424 145.678 25.6225 145.381 25.5361C144.431 25.2626 143.414 25.373 142.545 25.848L140.588 26.9228L136.779 29.0148L140.531 31.2028L142.459 32.3304C143.035 32.6663 143.682 32.839 144.335 32.839C144.651 32.839 144.973 32.8007 145.285 32.7143C145.582 32.6375 145.865 32.5224 146.129 32.3736C146.143 32.3688 146.153 32.3592 146.163 32.3544C146.163 32.3544 146.163 32.3544 146.167 32.3544C146.177 32.3496 146.191 32.34 146.201 32.3352C146.211 32.3256 146.225 32.3208 146.235 32.316C146.249 32.3064 146.259 32.3016 146.268 32.2968C146.278 32.292 146.292 32.2824 146.302 32.2776C146.302 32.2776 146.302 32.2776 146.306 32.2776C146.311 32.2729 146.321 32.2681 146.33 32.2633C146.388 32.2249 146.441 32.1913 146.494 32.1529C146.494 32.1529 146.518 32.1385 146.527 32.1289C146.537 32.1193 146.551 32.1097 146.561 32.1049C146.57 32.0953 146.58 32.0905 146.594 32.0809C146.604 32.0713 146.613 32.0665 146.628 32.0569C146.637 32.0473 146.647 32.0425 146.657 32.0329C146.657 32.0329 146.661 32.0329 146.661 32.0281C146.671 32.0185 146.681 32.0137 146.69 32.0041C146.69 32.0041 146.695 32.0041 146.7 31.9993C146.709 31.9898 146.719 31.985 146.724 31.9754C146.724 31.9754 146.729 31.9706 146.733 31.9658C146.743 31.961 146.748 31.9514 146.757 31.9466C146.757 31.9466 146.762 31.9418 146.767 31.937C146.777 31.9322 146.781 31.9226 146.791 31.9178L146.801 31.9082C146.805 31.9034 146.815 31.8938 146.82 31.889C146.82 31.889 146.829 31.8794 146.834 31.8746C146.839 31.8698 146.849 31.865 146.853 31.8554C146.858 31.8554 146.863 31.8458 146.868 31.841C146.873 31.8362 146.877 31.8314 146.887 31.8266C146.887 31.8218 146.897 31.817 146.901 31.8122C146.906 31.8074 146.911 31.8026 146.916 31.7978C146.921 31.793 146.925 31.7882 146.935 31.7786C146.935 31.7786 146.945 31.769 146.949 31.7642C146.954 31.7594 146.964 31.7498 146.968 31.745L146.978 31.7354C146.978 31.7354 146.992 31.7211 146.997 31.7163C146.997 31.7163 147.002 31.7115 147.007 31.7067C147.012 31.6971 147.021 31.6923 147.031 31.6827C147.031 31.6827 147.036 31.6779 147.04 31.6731C147.05 31.6635 147.055 31.6539 147.064 31.6491C147.064 31.6491 147.064 31.6443 147.069 31.6395C147.079 31.6299 147.084 31.6203 147.093 31.6107C147.093 31.6107 147.093 31.6107 147.098 31.6059C147.108 31.5963 147.117 31.5867 147.122 31.5771C147.122 31.5771 147.122 31.5771 147.122 31.5723C147.132 31.5627 147.141 31.5531 147.146 31.5435C147.156 31.5339 147.165 31.5243 147.175 31.5099C147.256 31.4092 147.333 31.3084 147.405 31.198C147.405 31.1932 147.415 31.1836 147.419 31.1788C147.419 31.1788 147.424 31.1693 147.429 31.1645C147.434 31.1549 147.439 31.1453 147.448 31.1405C147.448 31.1405 147.453 31.1357 147.453 31.1309C147.458 31.1213 147.463 31.1117 147.472 31.1021C147.472 31.1021 147.472 31.0973 147.477 31.0925C147.482 31.0829 147.487 31.0733 147.496 31.0637C147.496 31.0637 147.496 31.0589 147.501 31.0541C147.506 31.0445 147.511 31.0349 147.52 31.0253C147.52 31.0253 147.52 31.0205 147.525 31.0157C147.53 31.0061 147.535 30.9965 147.544 30.9869C147.544 30.9869 147.544 30.9821 147.549 30.9773C147.554 30.9677 147.559 30.9581 147.563 30.9485L147.568 30.9389C147.573 30.9293 147.578 30.9197 147.583 30.9101C147.583 30.9101 147.583 30.9005 147.587 30.8958C147.592 30.8862 147.597 30.8766 147.602 30.867C147.602 30.8622 147.607 30.8574 147.611 30.8526C147.616 30.843 147.621 30.8334 147.626 30.8286C147.626 30.8238 147.63 30.819 147.63 30.8142C147.635 30.8046 147.64 30.795 147.645 30.7902C147.645 30.7854 147.65 30.7806 147.654 30.7758C147.654 30.7662 147.664 30.7614 147.669 30.7518C147.669 30.747 147.674 30.7422 147.678 30.7326C147.678 30.723 147.683 30.7182 147.688 30.7086C147.688 30.7038 147.693 30.6942 147.698 30.6894C147.698 30.6798 147.702 30.675 147.707 30.6654C147.707 30.6606 147.712 30.651 147.717 30.6462C147.717 30.6366 147.722 30.6318 147.726 30.6223C147.726 30.6175 147.731 30.6079 147.736 30.6031C147.736 30.5983 147.741 30.5887 147.746 30.5839C147.746 30.5743 147.75 30.5695 147.755 30.5599C147.755 30.5551 147.76 30.5455 147.765 30.5407C147.765 30.5311 147.77 30.5263 147.774 30.5167C147.774 30.5119 147.779 30.5023 147.784 30.4975C147.784 30.4879 147.789 30.4783 147.794 30.4735C147.794 30.4687 147.798 30.4591 147.803 30.4543C147.803 30.4447 147.808 30.4351 147.813 30.4303C147.813 30.4255 147.813 30.4207 147.818 30.4159C147.818 30.4063 147.822 30.3967 147.827 30.3871C147.827 30.3823 147.827 30.3775 147.827 30.3727C147.827 30.3631 147.832 30.3535 147.837 30.344C147.837 30.3392 147.837 30.3344 147.842 30.3296C147.842 30.32 147.846 30.3104 147.851 30.3008C147.851 30.296 147.851 30.2912 147.851 30.2864C147.851 30.2768 147.856 30.2672 147.861 30.2576C147.861 30.2576 147.861 30.248 147.861 30.2432C147.861 30.2336 147.866 30.224 147.87 30.2096C147.87 30.2096 147.87 30.2 147.87 30.1952C147.87 30.1856 147.875 30.176 147.88 30.1616V30.152C147.88 30.1424 147.885 30.1328 147.89 30.1184C147.89 30.1184 147.89 30.1088 147.89 30.104C147.89 30.0944 147.894 30.0848 147.899 30.0752C147.899 30.0705 147.899 30.0657 147.899 30.0609C147.899 30.0513 147.899 30.0417 147.904 30.0321C147.904 30.0273 147.904 30.0177 147.904 30.0129C147.904 30.0081 147.904 30.0033 147.904 29.9937C147.933 29.8689 147.957 29.7394 147.971 29.6098C147.971 29.5954 147.971 29.581 147.971 29.5714C147.971 29.557 147.971 29.5474 147.971 29.533C147.971 29.533 147.971 29.533 147.971 29.5282C147.971 29.5139 147.971 29.5043 147.971 29.4899C147.971 29.4899 147.971 29.4851 147.971 29.4803C147.971 29.4707 147.971 29.4563 147.971 29.4467C147.971 29.4467 147.971 29.4419 147.971 29.4371C147.971 29.4275 147.971 29.4131 147.971 29.4035C147.971 29.4035 147.971 29.3939 147.971 29.3891C147.971 29.3795 147.971 29.3699 147.971 29.3603C147.971 29.3555 147.971 29.3507 147.971 29.3459C147.971 29.3363 147.971 29.3267 147.971 29.3171C147.971 29.3123 147.971 29.3075 147.971 29.2979V29.2739C147.971 29.2739 147.971 29.2595 147.971 29.2547V29.2308C147.971 29.2308 147.971 29.2164 147.971 29.2068V29.1396L148 29.0484Z" fill="#525F70"/>
<path d="M146.148 25.848L134.942 19.3128C135.153 19.4423 135.355 19.5959 135.542 19.7686C135.58 19.8022 135.614 19.8358 135.647 19.8694C136.343 20.5699 136.731 21.52 136.731 22.5084V24.6628L136.712 28.9716L140.516 26.8796L142.474 25.8048C143.337 25.3298 144.359 25.2146 145.309 25.4929C145.606 25.5793 145.884 25.6992 146.148 25.8528" fill="#6A7688"/>
<path d="M136.717 28.9716L136.727 24.6676V22.5132C136.736 21.5248 136.348 20.5747 135.652 19.8742C134.956 19.1736 134.007 18.7754 133.018 18.7754C132.03 18.7754 131.08 19.164 130.38 19.8598C130.14 20.0997 129.934 20.3684 129.771 20.6563C129.771 20.6659 129.761 20.6707 129.756 20.6803C129.756 20.6851 129.752 20.6899 129.747 20.6995C129.747 20.6995 129.742 20.709 129.737 20.7138C129.732 20.7234 129.728 20.733 129.723 20.7426C129.281 21.5679 129.166 22.5324 129.406 23.4441C129.656 24.3989 130.279 25.2146 131.133 25.7136C131.133 25.7136 131.819 26.2078 135.954 28.511C136.242 28.6742 136.501 28.8229 136.712 28.9716H136.717Z" fill="#465161"/>
<path d="M129.373 34.1922C129.651 33.2325 130.298 32.4264 131.171 31.9466L132.994 30.9437L133.373 30.7326C132.927 30.4879 132.438 30.2432 131.886 29.9985C130.917 29.5762 130.039 29.1252 129.262 28.6358L129.248 34.8639C129.267 34.6384 129.305 34.4177 129.368 34.197" fill="#525F70"/>
<path d="M136.391 36.5865C136.487 36.2458 136.549 35.8811 136.573 35.5021C136.708 33.4628 135.777 32.0521 133.378 30.7278L132.995 30.9389L131.172 31.9418C130.299 32.4216 129.651 33.2325 129.373 34.1874C129.282 34.504 129.234 34.8303 129.229 35.1566V35.3533C129.229 35.3533 129.229 35.3917 129.229 35.4109C129.258 35.9771 129.406 36.5385 129.684 37.0471C129.819 37.2918 129.977 37.5173 130.159 37.7237C130.159 37.7237 130.159 37.7285 130.164 37.7333C130.169 37.7429 130.179 37.7477 130.183 37.7573C130.188 37.7669 130.198 37.7717 130.203 37.7812C130.203 37.7812 130.203 37.786 130.207 37.786C130.241 37.8196 130.27 37.8532 130.303 37.8868C131.004 38.5922 131.949 38.9856 132.942 38.9952C134.52 38.9856 135.858 37.9828 136.377 36.5817" fill="#465161"/>
</g>
<defs>
<clipPath id="clip0_196_464">
<rect width="114" height="22" fill="white" transform="translate(34 17)"/>
</clipPath>
</defs>
</svg>
