<svg width="182" height="48" viewBox="0 0 182 48" fill="none" xmlns="http://www.w3.org/2000/svg">
<g clip-path="url(#clip0_196_337)">
<mask id="mask0_196_337" style="mask-type:luminance" maskUnits="userSpaceOnUse" x="69" y="4" width="42" height="41">
<path d="M111 4V45H69.9998V4H111Z" fill="white"/>
</mask>
<g mask="url(#mask0_196_337)">
<mask id="mask1_196_337" style="mask-type:luminance" maskUnits="userSpaceOnUse" x="69" y="4" width="42" height="41">
<path d="M111 4V45H69.9998V4H111Z" fill="white"/>
</mask>
<g mask="url(#mask1_196_337)">
<path d="M88.8085 20.9637V11.2262C88.8085 9.40687 90.141 7.7925 91.9604 7.5875C94.1385 7.33125 96.0091 9.0225 96.0091 11.1494V35.9544C96.0091 36.9537 96.7779 37.7994 97.7516 37.8506C98.8023 37.9019 99.6735 37.0562 99.6735 36.0312V22.4244C99.6735 20.4512 101.262 18.8369 103.21 18.8369H110.231C108.992 14.5697 106.401 10.8205 102.847 8.1538C99.2929 5.4871 94.9686 4.04731 90.5254 4.05125C79.5066 4.05125 70.5123 12.7125 70.0254 23.6031H86.656C87.9629 23.6287 88.7829 22.5781 88.7829 20.9637M110.59 20.4512H103.287C102.262 20.4512 101.416 21.2969 101.416 22.3219V35.9031C101.416 37.7225 100.084 39.3369 98.2641 39.5419C96.086 39.7981 94.2154 38.1069 94.2154 35.98V11.0981C94.2154 11.0981 94.2154 9.2275 92.3448 9.2275C91.3198 9.2275 90.4741 10.0731 90.551 11.0981V20.9125C90.4741 23.5262 88.8854 25.32 86.6048 25.2687H69.9998C70.461 36.2619 79.4554 44.9744 90.4741 44.9744C101.493 44.9744 110.974 35.8006 110.974 24.4744C110.974 23.1162 110.59 20.4769 110.59 20.4769M79.8398 33.4431C79.6348 33.7762 79.3016 34.0325 78.8916 34.2119C78.4816 34.3912 77.9948 34.4937 77.4054 34.4937C76.816 34.4937 76.3035 34.4169 75.8166 34.2375C75.3298 34.0581 74.9198 33.8275 74.6379 33.5456C74.55 33.4666 74.4846 33.3657 74.4486 33.2531C74.4126 33.1405 74.4072 33.0204 74.4329 32.905C74.4585 32.6744 74.561 32.495 74.766 32.3412C74.971 32.1875 75.176 32.1106 75.4066 32.1362C75.6116 32.1619 75.791 32.2644 75.9448 32.4181C76.0473 32.5462 76.2523 32.6487 76.5085 32.7769C76.7648 32.8794 77.0723 32.9562 77.3798 32.9562C77.7898 32.9562 78.0973 32.905 78.2766 32.7769C78.456 32.6744 78.5329 32.5462 78.5329 32.4181C78.5329 32.2644 78.456 32.1362 78.3023 32.0081C78.1741 31.9056 77.8666 31.7519 77.1491 31.6237C76.3291 31.47 75.7141 31.2137 75.3298 30.855C75.1336 30.6935 74.9764 30.4898 74.8699 30.259C74.7635 30.0283 74.7104 29.7766 74.7148 29.5225C74.7148 29.0612 74.8429 28.6769 75.1248 28.3694C75.381 28.0875 75.7141 27.8569 76.1241 27.7287C76.5085 27.6006 76.9185 27.5237 77.3541 27.5237C77.8923 27.5237 78.3791 27.6006 78.8148 27.78C79.2504 27.9594 79.6091 28.2156 79.8654 28.5231C79.9356 28.5986 79.9899 28.6873 80.0251 28.7842C80.0604 28.881 80.0757 28.984 80.0704 29.0869C80.0704 29.2919 79.9679 29.4712 79.7629 29.625C79.5835 29.7531 79.3529 29.8044 79.1223 29.7531C78.9179 29.7023 78.7317 29.5958 78.5841 29.4456C78.4039 29.2816 78.1956 29.1514 77.9691 29.0612C77.7641 29.01 77.5591 28.9587 77.2773 28.9587C76.9698 28.9587 76.7648 29.0356 76.5598 29.1381C76.3804 29.2406 76.3291 29.42 76.3291 29.4969C76.3291 29.5737 76.3291 29.6762 76.406 29.7531C76.4316 29.8044 76.5085 29.8812 76.7391 29.9581C76.9441 30.035 77.2516 30.1375 77.6616 30.2144C78.2766 30.3425 78.7635 30.4962 79.1223 30.6756C79.5066 30.8806 79.7629 31.1112 79.9423 31.3931C80.1216 31.675 80.1985 31.9825 80.1985 32.3412C80.1985 32.7512 80.096 33.11 79.8654 33.4431M90.5766 33.5969C90.5766 33.8275 90.4998 34.0325 90.346 34.1862C90.1923 34.34 89.9873 34.4169 89.7566 34.4169C89.526 34.4169 89.321 34.34 89.1673 34.1862C89.0913 34.1084 89.0318 34.0162 88.9922 33.9149C88.9526 33.8137 88.9337 33.7055 88.9366 33.5969V30.2656C88.9366 29.8556 88.8341 29.5481 88.6548 29.3687C88.4754 29.1894 88.2191 29.0869 87.9116 29.0869C87.6041 29.0869 87.3223 29.1894 87.1173 29.42C86.9123 29.6506 86.8098 29.9325 86.8098 30.2912V33.5456C86.8098 33.8019 86.7329 34.0069 86.5535 34.1862C86.3998 34.3656 86.1691 34.4425 85.9129 34.4425C85.6566 34.4425 85.4516 34.3656 85.2723 34.1862C85.1872 34.1033 85.1204 34.0034 85.0763 33.8931C85.0321 33.7827 85.0116 33.6644 85.016 33.5456V30.24C85.016 29.83 84.9135 29.5225 84.7341 29.3431C84.5548 29.1637 84.2985 29.0612 83.991 29.0612C83.6835 29.0612 83.4016 29.1637 83.1966 29.3944C82.9916 29.625 82.8891 29.9069 82.8891 30.2656V33.5456C82.8891 33.7762 82.8123 33.9812 82.6585 34.135C82.5048 34.2887 82.2998 34.3656 82.0691 34.3656C81.8385 34.3656 81.6335 34.2887 81.4798 34.135C81.4038 34.0572 81.3443 33.9649 81.3047 33.8637C81.2651 33.7625 81.2462 33.6543 81.2491 33.5456V28.395C81.2491 28.1387 81.326 27.9594 81.4798 27.78C81.6335 27.6262 81.8385 27.5494 82.0691 27.5494C82.2998 27.5494 82.5048 27.6262 82.6585 27.78C82.7098 27.8312 82.7354 27.8825 82.7866 27.9337C82.8379 27.9081 82.8891 27.8569 82.9404 27.8312C83.3248 27.6006 83.786 27.4725 84.2729 27.4725C84.7598 27.4725 85.1954 27.575 85.5541 27.78C85.7591 27.9081 85.9385 28.0362 86.0923 28.2156C86.246 28.0619 86.451 27.9081 86.656 27.8056C87.0916 27.575 87.5785 27.4469 88.1166 27.4469C88.5632 27.4359 89.0049 27.5419 89.3979 27.7544C89.7823 27.9594 90.0641 28.2925 90.2948 28.7025C90.4998 29.1125 90.6023 29.5994 90.6023 30.1631V33.4944L90.5766 33.5969Z" fill="#465161"/>
</g>
</g>
</g>
<defs>
<clipPath id="clip0_196_337">
<rect width="41" height="41" fill="white" transform="translate(69.9998 4)"/>
</clipPath>
</defs>
</svg>
