<svg width="32" height="32" viewBox="0 0 32 32" fill="none" xmlns="http://www.w3.org/2000/svg">
<rect width="32" height="32" rx="16" fill="#17B2E8"/>
<path fill-rule="evenodd" clip-rule="evenodd" d="M20.7807 12.6539C20.8543 12.3911 20.7119 12.0702 20.4858 12.0169C20.0423 11.9488 19.5795 12.087 19.2217 12.4165C19.1564 12.1546 18.9228 11.9742 18.7018 12.0567C18.5162 12.1129 18.3904 12.3417 18.4014 12.5714C18.3998 14.5994 18.3998 16.6269 18.4014 18.6549C18.3845 18.9379 18.5827 19.2084 18.8186 19.1998C19.0396 19.2075 19.2397 18.97 19.2319 18.6981C19.2336 17.9703 19.2333 17.2421 19.2331 16.5139V16.5117C19.2329 16.0629 19.2328 15.6141 19.2331 15.1654C19.2333 15.0964 19.2331 15.0273 19.2329 14.9581V14.9579C19.2319 14.5866 19.2309 14.2126 19.2972 13.8487C19.3424 13.5907 19.4607 13.3422 19.6518 13.2084C19.8807 13.053 20.1477 13.0089 20.406 12.9935C20.5727 12.9911 20.7367 12.8539 20.7807 12.6539ZM25.7255 18.1194C26.3579 17.9897 26.9341 17.6076 27.3024 17.0769C27.7174 16.4957 27.8726 15.733 27.7075 15.0372C27.5411 14.2706 26.9964 13.6013 26.2866 13.272C25.8075 13.0423 25.2539 12.9734 24.7323 13.0715C24.1004 13.1847 23.5208 13.5494 23.1393 14.0654C22.704 14.6367 22.5291 15.4004 22.6767 16.1033C22.8234 16.866 23.3412 17.5448 24.0339 17.893C24.5493 18.1595 25.1582 18.2439 25.7255 18.1194ZM26.9577 12.4583C27.6811 12.8602 28.2578 13.5215 28.5544 14.2952C28.8312 14.9966 28.8751 15.7872 28.6818 16.516C28.4846 17.2826 28.0197 17.9765 27.392 18.4581C26.7752 18.9326 25.9994 19.2034 25.2199 19.1996C24.4371 19.2114 23.6552 18.9505 23.0322 18.4765C22.4578 18.042 22.0112 17.434 21.7858 16.7472C21.4868 15.8584 21.55 14.8518 21.9688 14.0112C22.4805 12.9484 23.5472 12.1809 24.7176 12.0314C25.484 11.9295 26.2838 12.0767 26.9577 12.4583ZM11.4774 14.9899C11.6385 14.3566 12.0396 13.7841 12.5942 13.4294C13.2552 12.9937 14.1226 12.8876 14.8706 13.1521C15.6994 13.4285 16.35 14.1491 16.5567 14.9904C15.7103 14.9901 14.8638 14.9901 14.0172 14.9901C13.1706 14.9901 12.324 14.9901 11.4774 14.9899ZM16.5819 13.0376C16.0401 12.4897 15.3064 12.1369 14.5408 12.036C13.6102 11.903 12.6274 12.1416 11.8732 12.7009C10.6828 13.5564 10.1234 15.1729 10.534 16.5735C10.7588 17.3818 11.2873 18.0967 11.983 18.5688C12.6555 19.0324 13.4905 19.2549 14.3065 19.1885C14.8839 19.1352 15.4528 18.9569 15.9456 18.6513C16.3319 18.4113 16.6518 18.0807 16.9327 17.728C17.0534 17.5808 17.0766 17.3743 17.0258 17.1951C16.9388 16.915 16.5648 16.7773 16.3115 16.9263C16.2034 16.9837 16.1326 17.08 16.0619 17.1761C16.0275 17.2228 15.9932 17.2694 15.9546 17.3116C15.6276 17.678 15.2004 17.96 14.7233 18.0916C13.9215 18.3189 13.0062 18.1321 12.3713 17.5912C11.8865 17.1871 11.5292 16.6136 11.4403 15.9864C12.3025 15.9881 13.1646 15.9878 14.0268 15.9875C14.8351 15.9872 15.6434 15.9869 16.4517 15.9883C16.7112 15.9992 16.984 15.9633 17.2064 15.8214C17.5006 15.6384 17.6512 15.2696 17.5847 14.9339C17.4459 14.2237 17.1071 13.5441 16.5819 13.0376ZM10.165 18.2503C9.6406 17.7283 9.11741 17.2047 8.5942 16.6812C8.23448 16.3212 7.87476 15.9613 7.51464 15.6018C7.97745 15.1362 8.44199 14.6721 8.90649 14.2081L8.90657 14.208C9.3539 13.7612 9.8012 13.3144 10.2469 12.8662C10.4122 12.7037 10.4506 12.4285 10.3241 12.2329C10.1754 11.972 9.77274 11.9222 9.56195 12.1344C8.64393 13.0504 7.72686 13.9673 6.81026 14.8852C6.01914 14.109 5.23617 13.3249 4.45277 12.5404L4.08699 12.1742C3.96573 12.0473 3.78477 11.9734 3.60951 12.0089C3.35703 12.052 3.16566 12.3101 3.20545 12.5645C3.228 12.7408 3.35599 12.8662 3.47795 12.9856L3.47796 12.9856C3.49946 13.0067 3.52078 13.0276 3.5413 13.0485C3.75076 13.2578 3.96037 13.467 4.17 13.6763C4.79902 14.3041 5.42823 14.9322 6.05424 15.5634C6.05713 15.5718 6.0624 15.5857 6.06697 15.5979L6.07272 15.6132C5.55207 16.1461 5.02399 16.6723 4.49578 17.1987L4.49571 17.1987C4.10989 17.5832 3.72402 17.9677 3.34092 18.355C3.2135 18.4843 3.1685 18.6865 3.22866 18.8584C3.29734 19.0891 3.55645 19.2354 3.79093 19.19C3.94255 19.1695 4.04811 19.0599 4.15038 18.9537C4.17847 18.9245 4.20631 18.8956 4.23478 18.8688C4.79552 18.3211 5.34887 17.7664 5.90223 17.2117L5.90228 17.2116L5.90238 17.2115L5.90247 17.2114C6.20215 16.911 6.50183 16.6106 6.80268 16.3113C7.3897 16.8933 7.97397 17.4783 8.55814 18.0632L8.55825 18.0634L8.55829 18.0634L8.55832 18.0634L8.55836 18.0635C8.88061 18.3861 9.20283 18.7087 9.52547 19.0308C9.6529 19.1663 9.8509 19.2369 10.0328 19.1805C10.2606 19.1279 10.4231 18.8906 10.3975 18.659C10.3957 18.4914 10.2786 18.3592 10.165 18.2503ZM24.44 15.3468C24.5217 15.0972 24.7376 14.9017 24.9888 14.8295C25.4551 14.691 25.99 15.0586 25.9967 15.5486C26.0329 15.9057 25.7871 16.2577 25.4471 16.363C25.142 16.4608 24.7784 16.3609 24.5798 16.1067C24.4055 15.8998 24.3563 15.6019 24.44 15.3468Z" fill="white"/>
</svg>
