<svg width="182" height="48" viewBox="0 0 182 48" fill="none" xmlns="http://www.w3.org/2000/svg">
<path d="M58.7304 28.0364L51.2879 15.8203H58.4053L61.9298 22.031H62.1523L65.6939 15.8032H72.6574L65.2148 28.0364V33.1692H58.7133L58.7304 28.0364ZM70.7753 24.4948C70.7753 18.6947 74.7447 15.1702 81.0409 15.1702C87.3371 15.1702 91.3065 18.6947 91.3065 24.4948C91.3065 30.2948 87.3371 33.8193 81.0409 33.8193C74.7447 33.8193 70.7753 30.2948 70.7753 24.4948ZM84.976 24.4948C84.976 21.9455 83.4875 20.4741 81.0409 20.4741C78.5943 20.4741 77.1229 21.9455 77.1229 24.4948C77.1229 27.044 78.5943 28.5154 81.0409 28.5154C83.4875 28.5154 84.976 27.044 84.976 24.4948ZM92.3501 24.5461C92.3501 18.746 96.4906 15.3242 102.616 15.3242C105.61 15.3242 107.731 16.0428 109.391 16.9838V22.8352H109.34C107.304 21.4664 105.541 20.6794 103.369 20.6794C100.734 20.6794 98.8517 22.0481 98.8517 24.4948C98.8517 27.0269 100.785 28.293 103.334 28.293C105.593 28.293 107.406 27.5231 109.34 26.103H109.391V32.0228C108.022 32.8099 105.627 33.6653 102.564 33.6653C96.2339 33.6653 92.3501 30.3461 92.3501 24.5461ZM110.469 24.4948C110.469 18.6947 114.438 15.1702 120.734 15.1702C127.031 15.1702 131 18.6947 131 24.4948C131 30.2948 127.031 33.8193 120.734 33.8193C114.438 33.8193 110.469 30.2948 110.469 24.4948ZM124.67 24.4948C124.67 21.9455 123.181 20.4741 120.734 20.4741C118.288 20.4741 116.816 21.9455 116.816 24.4948C116.816 27.044 118.271 28.5154 120.734 28.5154C123.198 28.5154 124.67 27.044 124.67 24.4948Z" fill="#465161"/>
</svg>
