<svg width="182" height="48" viewBox="0 0 182 48" fill="none" xmlns="http://www.w3.org/2000/svg">
<path d="M107.792 29.5936C106.838 27.925 106.362 26.1031 106.362 24.1279C106.362 21.1649 106.838 20.3309 107.792 18.6622C108.746 16.9937 110.05 15.6758 111.705 14.7085C113.36 13.7415 115.175 13.2579 117.15 13.2578C120.113 13.2577 120.947 13.7415 122.616 14.7085C124.285 15.6759 125.599 16.9938 126.559 18.6622C127.52 20.331 128 22.1529 128 24.1279C128 27.0903 127.52 27.925 126.559 29.5936C125.599 31.2623 124.285 32.5802 122.616 33.5472C120.947 34.5145 119.125 34.9981 117.15 34.998C114.188 34.9979 113.36 34.5147 111.705 33.5472C110.05 32.5802 108.746 31.2623 107.792 29.5936ZM114.228 21.012C113.452 21.8363 113.064 22.875 113.064 24.128C113.063 26.0075 113.452 26.4199 114.228 27.244C115.005 28.0682 115.979 28.4802 117.15 28.4801C118.907 28.4798 119.306 28.0648 120.103 27.2337C120.9 26.403 121.298 25.3677 121.298 24.128C121.298 22.2684 120.9 21.8532 120.103 21.0223C119.306 20.1914 118.322 19.7759 117.15 19.7758C115.393 19.7756 115.005 20.188 114.228 21.012Z" fill="#465161"/>
<path d="M81.5448 13.5499V34.7059H74.603V13.5499H81.5448Z" fill="#465161"/>
<path d="M92.3966 16.8534L95.3249 25.336L99.63 13.5499H106.543L98.8598 34.7059H91.8568L84.2557 13.5499H87.7613C88.7816 13.5499 89.7764 13.8681 90.6073 14.4603C91.4382 15.0524 92.0636 15.889 92.3966 16.8534Z" fill="#465161"/>
<path d="M56.1698 26.6829L61.3487 19.7271H54.0765V13.5499H70.3147V13.6049C70.3147 16.4669 69.4085 19.2555 67.7262 21.5707L62.6709 28.528H70.79V34.7052H53.5158V34.6915C53.5158 31.806 54.4465 28.9973 56.1698 26.6829Z" fill="#465161"/>
</svg>
